<?xml version="1.0" encoding="UTF-8" standalone="no"?>
<!DOCTYPE svg PUBLIC "-//W3C//DTD SVG 1.1//EN"
 "http://www.w3.org/Graphics/SVG/1.1/DTD/svg11.dtd">
<!-- Generated by graphviz version 2.43.0 (0)
 -->
<!-- Title: commonpython.messaging.mq_manager.MQManager.purge_queue Pages: 1 -->
<!--zoomable 238 -->

<svg id="main" version="1.1" xmlns="http://www.w3.org/2000/svg" xmlns:xlink="http://www.w3.org/1999/xlink" xml:space="preserve" onload="init(evt)">
<style type="text/css"><![CDATA[
.node, .edge {opacity: 0.7;}
.node.selected, .edge.selected {opacity: 1;}
.edge:hover path { stroke: red; }
.edge:hover polygon { stroke: red; fill: red; }
]]></style>

<defs>
  <circle id="rim" cx="0" cy="0" r="7"/>
  <circle id="rim2" cx="0" cy="0" r="3.5"/>
  <g id="zoomPlus">
    <use xlink:href="#rim" fill="#404040"><set attributeName="fill" to="#808080" begin="zoomplus.mouseover" end="zoomplus.mouseout"/></use>
    <path d="M-4,0h8M0,-4v8" fill="none" stroke="white" stroke-width="1.5" pointer-events="none"/>
  </g>
  <g id="zoomMin">
    <use xlink:href="#rim" fill="#404040"><set attributeName="fill" to="#808080" begin="zoomminus.mouseover" end="zoomminus.mouseout"/></use>
    <path d="M-4,0h8" fill="none" stroke="white" stroke-width="1.5" pointer-events="none"/>
  </g>
  <g id="arrowUp" transform="translate(30 24)">
    <use xlink:href="#rim"/>
    <path pointer-events="none" fill="none" stroke="white" stroke-width="1.5" d="M0,-3.0v7 M-2.5,-0.5L0,-3.0L2.5,-0.5"/>
  </g>
  <g id="arrowRight" transform="rotate(90) translate(36 -43)">
    <use xlink:href="#rim"/>
    <path pointer-events="none" fill="none" stroke="white" stroke-width="1.5" d="M0,-3.0v7 M-2.5,-0.5L0,-3.0L2.5,-0.5"/>
  </g>
  <g id="arrowDown" transform="rotate(180) translate(-30 -48)">
    <use xlink:href="#rim"/>
    <path pointer-events="none" fill="none" stroke="white" stroke-width="1.5" d="M0,-3.0v7 M-2.5,-0.5L0,-3.0L2.5,-0.5"/>
  </g>
  <g id="arrowLeft" transform="rotate(270) translate(-36 17)">
    <use xlink:href="#rim"/>
    <path pointer-events="none" fill="none" stroke="white" stroke-width="1.5" d="M0,-3.0v7 M-2.5,-0.5L0,-3.0L2.5,-0.5"/>
  </g>
  <g id="resetDef">
    <use xlink:href="#rim2" fill="#404040"><set attributeName="fill" to="#808080" begin="reset.mouseover" end="reset.mouseout"/></use>
  </g>
</defs>
<script type="application/ecmascript">
var viewWidth = 633;
var viewHeight = 238;
var sectionId = 'dynsection-9';
</script>
<script type="application/ecmascript" xlink:href="../../svg.min.js"/>
<svg id="graph" class="graph">
<g id="viewport">
<title>commonpython.messaging.mq_manager.MQManager.purge_queue</title>
<!-- Node1 -->
<g id="Node000001" class="node">
<title>Node1</title>
<g id="a_Node000001"><a xlink:title=" ">
<polygon fill="#999999" stroke="#666666" points="192,-140 0,-140 0,-110 192,-110 192,-140"/>
<text text-anchor="start" x="8" y="-128" font-family="Helvetica,sans-Serif" font-size="10.00">commonpython.messaging.mq</text>
<text text-anchor="middle" x="96" y="-117" font-family="Helvetica,sans-Serif" font-size="10.00">_manager.MQManager.purge_queue</text>
</a>
</g>
</g>
<!-- Node2 -->
<g id="Node000002" class="node">
<title>Node2</title>
<g id="a_Node000002"><a xlink:href="../../da/d7a/classcommonpython_1_1messaging_1_1mq__manager_1_1MQManager.html#a36c0f541209d8e3aecc1f6ae7f9b56cb" target="_top" xlink:title=" ">
<polygon fill="white" stroke="#666666" points="615,-229.5 442,-229.5 442,-188.5 615,-188.5 615,-229.5"/>
<text text-anchor="start" x="450" y="-217.5" font-family="Helvetica,sans-Serif" font-size="10.00">commonpython.messaging.mq</text>
<text text-anchor="start" x="450" y="-206.5" font-family="Helvetica,sans-Serif" font-size="10.00">_manager.MQManager._execute</text>
<text text-anchor="middle" x="528.5" y="-195.5" font-family="Helvetica,sans-Serif" font-size="10.00">_mq_command</text>
</a>
</g>
</g>
<!-- Node1&#45;&gt;Node2 -->
<g id="edge1_Node000001_Node000002" class="edge">
<title>Node1&#45;&gt;Node2</title>
<g id="a_edge1_Node000001_Node000002"><a xlink:title=" ">
<path fill="none" stroke="#63b8ff" d="M133.36,-140.11C159.32,-150.31 195.27,-163.27 228,-171 295.15,-186.86 372.43,-196.46 431.67,-202.04"/>
<polygon fill="#63b8ff" stroke="#63b8ff" points="431.48,-205.54 441.76,-202.97 432.12,-198.57 431.48,-205.54"/>
</a>
</g>
</g>
<!-- Node3 -->
<g id="Node000003" class="node">
<title>Node3</title>
<g id="a_Node000003"><a xlink:href="../../d6/dd2/classcommonpython_1_1cli_1_1cli_1_1CLI.html#a5b831c5dbe6824d9e2c27a673daf3ef1" target="_top" xlink:title=" ">
<polygon fill="white" stroke="#666666" points="391,-30 233,-30 233,0 391,0 391,-30"/>
<text text-anchor="start" x="241" y="-18" font-family="Helvetica,sans-Serif" font-size="10.00">commonpython.cli.cli.CLI.get</text>
<text text-anchor="middle" x="312" y="-7" font-family="Helvetica,sans-Serif" font-size="10.00">_queue_depth</text>
</a>
</g>
</g>
<!-- Node1&#45;&gt;Node3 -->
<g id="edge2_Node000001_Node000003" class="edge">
<title>Node1&#45;&gt;Node3</title>
<g id="a_edge2_Node000001_Node000003"><a xlink:title=" ">
<path fill="none" stroke="#63b8ff" d="M126.31,-109.94C164.3,-90.41 230.65,-56.3 272.62,-34.73"/>
<polygon fill="#63b8ff" stroke="#63b8ff" points="274.41,-37.74 281.7,-30.06 271.21,-31.52 274.41,-37.74"/>
</a>
</g>
</g>
<!-- Node5 -->
<g id="Node000005" class="node">
<title>Node5</title>
<g id="a_Node000005"><a xlink:href="../../da/d7a/classcommonpython_1_1messaging_1_1mq__manager_1_1MQManager.html#a36139cfca3b302ab3c930087a4b17d65" target="_top" xlink:title=" ">
<polygon fill="white" stroke="#666666" points="396,-145.5 228,-145.5 228,-104.5 396,-104.5 396,-145.5"/>
<text text-anchor="start" x="236" y="-133.5" font-family="Helvetica,sans-Serif" font-size="10.00">commonpython.messaging.mq</text>
<text text-anchor="start" x="236" y="-122.5" font-family="Helvetica,sans-Serif" font-size="10.00">_manager.MQManager.get</text>
<text text-anchor="middle" x="312" y="-111.5" font-family="Helvetica,sans-Serif" font-size="10.00">_queue_depth</text>
</a>
</g>
</g>
<!-- Node1&#45;&gt;Node5 -->
<g id="edge5_Node000001_Node000005" class="edge">
<title>Node1&#45;&gt;Node5</title>
<g id="a_edge5_Node000001_Node000005"><a xlink:title=" ">
<path fill="none" stroke="#63b8ff" d="M192.11,-125C200.6,-125 209.19,-125 217.67,-125"/>
<polygon fill="#63b8ff" stroke="#63b8ff" points="217.94,-128.5 227.94,-125 217.94,-121.5 217.94,-128.5"/>
</a>
</g>
</g>
<!-- Node6 -->
<g id="Node000006" class="node">
<title>Node6</title>
<g id="a_Node000006"><a xlink:href="../../d6/d85/classcommonpython_1_1database_1_1db2__manager_1_1DB2Manager.html#ae9d97b4b4535b05be8b744f32c4c14b3" target="_top" xlink:title=" ">
<polygon fill="white" stroke="#666666" points="609.5,-164.5 447.5,-164.5 447.5,-123.5 609.5,-123.5 609.5,-164.5"/>
<text text-anchor="start" x="455.5" y="-152.5" font-family="Helvetica,sans-Serif" font-size="10.00">commonpython.database.db2</text>
<text text-anchor="start" x="455.5" y="-141.5" font-family="Helvetica,sans-Serif" font-size="10.00">_manager.DB2Manager.is</text>
<text text-anchor="middle" x="528.5" y="-130.5" font-family="Helvetica,sans-Serif" font-size="10.00">_connected</text>
</a>
</g>
</g>
<!-- Node1&#45;&gt;Node6 -->
<g id="edge9_Node000001_Node000006" class="edge">
<title>Node1&#45;&gt;Node6</title>
<g id="a_edge9_Node000001_Node000006"><a xlink:title=" ">
<path fill="none" stroke="#63b8ff" d="M150.07,-140.01C173.71,-145.96 202.03,-152.06 228,-155 298.01,-162.91 377.76,-159.38 437.35,-154.29"/>
<polygon fill="#63b8ff" stroke="#63b8ff" points="437.83,-157.76 447.49,-153.39 437.22,-150.79 437.83,-157.76"/>
</a>
</g>
</g>
<!-- Node7 -->
<g id="Node000007" class="node">
<title>Node7</title>
<g id="a_Node000007"><a xlink:href="../../da/d7a/classcommonpython_1_1messaging_1_1mq__manager_1_1MQManager.html#a65be5e8c672869dfb55aee2f08e56395" target="_top" xlink:title=" ">
<polygon fill="white" stroke="#666666" points="625,-94 432,-94 432,-64 625,-64 625,-94"/>
<text text-anchor="start" x="440" y="-82" font-family="Helvetica,sans-Serif" font-size="10.00">commonpython.messaging.mq</text>
<text text-anchor="middle" x="528.5" y="-71" font-family="Helvetica,sans-Serif" font-size="10.00">_manager.MQManager.is_connected</text>
</a>
</g>
</g>
<!-- Node1&#45;&gt;Node7 -->
<g id="edge10_Node000001_Node000007" class="edge">
<title>Node1&#45;&gt;Node7</title>
<g id="a_edge10_Node000001_Node000007"><a xlink:title=" ">
<path fill="none" stroke="#63b8ff" d="M155.33,-109.98C177.88,-104.72 204,-99.32 228,-96 291.88,-87.18 364.02,-82.91 421.5,-80.86"/>
<polygon fill="#63b8ff" stroke="#63b8ff" points="421.81,-84.35 431.69,-80.51 421.58,-77.35 421.81,-84.35"/>
</a>
</g>
</g>
<!-- Node3&#45;&gt;Node3 -->
<g id="edge4_Node000003_Node000003" class="edge">
<title>Node3&#45;&gt;Node3</title>
<g id="a_edge4_Node000003_Node000003"><a xlink:title=" ">
<path fill="none" stroke="#63b8ff" d="M274.03,-30.28C265.59,-39.41 278.25,-48 312,-48 332.04,-48 344.64,-44.97 349.81,-40.6"/>
<polygon fill="#63b8ff" stroke="#63b8ff" points="353.31,-40.33 349.97,-30.28 346.31,-40.22 353.31,-40.33"/>
</a>
</g>
</g>
<!-- Node4 -->
<g id="Node000004" class="node">
<title>Node4</title>
<g id="a_Node000004"><a xlink:href="../../d6/dd2/classcommonpython_1_1cli_1_1cli_1_1CLI.html#a0a650b67088eade813342c1a2c930667" target="_top" xlink:title=" ">
<polygon fill="white" stroke="#666666" points="600,-30 457,-30 457,0 600,0 600,-30"/>
<text text-anchor="start" x="465" y="-18" font-family="Helvetica,sans-Serif" font-size="10.00">commonpython.cli.cli.CLI.</text>
<text text-anchor="middle" x="528.5" y="-7" font-family="Helvetica,sans-Serif" font-size="10.00">_setup_messaging</text>
</a>
</g>
</g>
<!-- Node3&#45;&gt;Node4 -->
<g id="edge3_Node000003_Node000004" class="edge">
<title>Node3&#45;&gt;Node4</title>
<g id="a_edge3_Node000003_Node000004"><a xlink:title=" ">
<path fill="none" stroke="#63b8ff" d="M391.05,-15C409.24,-15 428.65,-15 446.94,-15"/>
<polygon fill="#63b8ff" stroke="#63b8ff" points="446.98,-18.5 456.98,-15 446.98,-11.5 446.98,-18.5"/>
</a>
</g>
</g>
<!-- Node5&#45;&gt;Node2 -->
<g id="edge6_Node000005_Node000002" class="edge">
<title>Node5&#45;&gt;Node2</title>
<g id="a_edge6_Node000005_Node000002"><a xlink:title=" ">
<path fill="none" stroke="#63b8ff" d="M361.75,-145.58C383.22,-154.51 408.78,-164.97 432,-174 441.26,-177.6 451.06,-181.31 460.71,-184.9"/>
<polygon fill="#63b8ff" stroke="#63b8ff" points="459.7,-188.26 470.3,-188.45 462.14,-181.7 459.7,-188.26"/>
</a>
</g>
</g>
<!-- Node5&#45;&gt;Node6 -->
<g id="edge7_Node000005_Node000006" class="edge">
<title>Node5&#45;&gt;Node6</title>
<g id="a_edge7_Node000005_Node000006"><a xlink:title=" ">
<path fill="none" stroke="#63b8ff" d="M396.24,-132.37C409.66,-133.56 423.61,-134.8 437.18,-136"/>
<polygon fill="#63b8ff" stroke="#63b8ff" points="437.21,-139.52 447.48,-136.91 437.83,-132.54 437.21,-139.52"/>
</a>
</g>
</g>
<!-- Node5&#45;&gt;Node7 -->
<g id="edge8_Node000005_Node000007" class="edge">
<title>Node5&#45;&gt;Node7</title>
<g id="a_edge8_Node000005_Node000007"><a xlink:title=" ">
<path fill="none" stroke="#63b8ff" d="M396.24,-107.15C413.01,-103.55 430.61,-99.78 447.28,-96.2"/>
<polygon fill="#63b8ff" stroke="#63b8ff" points="448.48,-99.53 457.52,-94.01 447.01,-92.68 448.48,-99.53"/>
</a>
</g>
</g>
</g>
</svg>

<g id="navigator" transform="translate(0 0)" fill="#404254">
  <rect fill="#f2f5e9" fill-opacity="0.5" stroke="#606060" stroke-width=".5" x="0" y="0" width="60" height="60"/>
  <use id="zoomplus" xlink:href="#zoomPlus" x="17" y="9" onmousedown="handleZoom(evt,'in')"/>
  <use id="zoomminus" xlink:href="#zoomMin" x="42" y="9" onmousedown="handleZoom(evt,'out')"/>
  <use id="reset" xlink:href="#resetDef" x="30" y="36" onmousedown="handleReset()"/>
   <use id="arrowup" xlink:href="#arrowUp" x="0" y="0" onmousedown="handlePan(0,-1)"/>
  <use id="arrowright" xlink:href="#arrowRight" x="0" y="0" onmousedown="handlePan(1,0)"/>
  <use id="arrowdown" xlink:href="#arrowDown" x="0" y="0" onmousedown="handlePan(0,1)"/>
  <use id="arrowleft" xlink:href="#arrowLeft" x="0" y="0" onmousedown="handlePan(-1,0)"/>
</g>
<svg viewBox="0 0 15 15" width="100%" height="30px" preserveAspectRatio="xMaxYMin meet">
 <g id="arrow_out" transform="scale(0.3 0.3)">
  <a xlink:href="classcommonpython_1_1messaging_1_1mq__manager_1_1MQManager_ade7c79ee9d81b4d72cddf7403adf1ffc_cgraph_org.svg" target="_base">
   <rect id="button" ry="5" rx="5" y="6" x="6" height="38" width="38"
        fill="#f2f5e9" fill-opacity="0.5" stroke="#606060" stroke-width="1.0"/>
   <path id="arrow"
     d="M 11.500037,31.436501 C 11.940474,20.09759 22.043105,11.32322 32.158766,21.979434 L 37.068811,17.246167 C 37.068811,17.246167 37.088388,32 37.088388,32 L 22.160133,31.978069 C 22.160133,31.978069 26.997745,27.140456 26.997745,27.140456 C 18.528582,18.264221 13.291696,25.230495 11.500037,31.436501 z"
     style="fill:#404040;"/>
  </a>
 </g>
</svg>

<style type='text/css'>
<![CDATA[
[data-mouse-over-selected='false'] { opacity: 0.7; }
[data-mouse-over-selected='true']  { opacity: 1.0; }
]]>
</style>
<script type="application/ecmascript"><![CDATA[
document.addEventListener('DOMContentLoaded', (event) => {
  highlightEdges();
  highlightAdjacentNodes();
});
]]></script>
</svg>
