<?xml version="1.0" encoding="UTF-8" standalone="no"?>
<!DOCTYPE svg PUBLIC "-//W3C//DTD SVG 1.1//EN"
 "http://www.w3.org/Graphics/SVG/1.1/DTD/svg11.dtd">
<!-- Generated by graphviz version 2.43.0 (0)
 -->
<!-- Title: commonpython.messaging.mq_manager.MQManager.is_connected Pages: 1 -->
<!--zoomable 423 -->

<svg id="main" version="1.1" xmlns="http://www.w3.org/2000/svg" xmlns:xlink="http://www.w3.org/1999/xlink" xml:space="preserve" onload="init(evt)">
<style type="text/css"><![CDATA[
.node, .edge {opacity: 0.7;}
.node.selected, .edge.selected {opacity: 1;}
.edge:hover path { stroke: red; }
.edge:hover polygon { stroke: red; fill: red; }
]]></style>

<defs>
  <circle id="rim" cx="0" cy="0" r="7"/>
  <circle id="rim2" cx="0" cy="0" r="3.5"/>
  <g id="zoomPlus">
    <use xlink:href="#rim" fill="#404040"><set attributeName="fill" to="#808080" begin="zoomplus.mouseover" end="zoomplus.mouseout"/></use>
    <path d="M-4,0h8M0,-4v8" fill="none" stroke="white" stroke-width="1.5" pointer-events="none"/>
  </g>
  <g id="zoomMin">
    <use xlink:href="#rim" fill="#404040"><set attributeName="fill" to="#808080" begin="zoomminus.mouseover" end="zoomminus.mouseout"/></use>
    <path d="M-4,0h8" fill="none" stroke="white" stroke-width="1.5" pointer-events="none"/>
  </g>
  <g id="arrowUp" transform="translate(30 24)">
    <use xlink:href="#rim"/>
    <path pointer-events="none" fill="none" stroke="white" stroke-width="1.5" d="M0,-3.0v7 M-2.5,-0.5L0,-3.0L2.5,-0.5"/>
  </g>
  <g id="arrowRight" transform="rotate(90) translate(36 -43)">
    <use xlink:href="#rim"/>
    <path pointer-events="none" fill="none" stroke="white" stroke-width="1.5" d="M0,-3.0v7 M-2.5,-0.5L0,-3.0L2.5,-0.5"/>
  </g>
  <g id="arrowDown" transform="rotate(180) translate(-30 -48)">
    <use xlink:href="#rim"/>
    <path pointer-events="none" fill="none" stroke="white" stroke-width="1.5" d="M0,-3.0v7 M-2.5,-0.5L0,-3.0L2.5,-0.5"/>
  </g>
  <g id="arrowLeft" transform="rotate(270) translate(-36 17)">
    <use xlink:href="#rim"/>
    <path pointer-events="none" fill="none" stroke="white" stroke-width="1.5" d="M0,-3.0v7 M-2.5,-0.5L0,-3.0L2.5,-0.5"/>
  </g>
  <g id="resetDef">
    <use xlink:href="#rim2" fill="#404040"><set attributeName="fill" to="#808080" begin="reset.mouseover" end="reset.mouseout"/></use>
  </g>
</defs>
<script type="application/ecmascript">
var viewWidth = 686;
var viewHeight = 423;
var sectionId = 'dynsection-8';
</script>
<script type="application/ecmascript" xlink:href="../../svg.min.js"/>
<svg id="graph" class="graph">
<g id="viewport">
<title>commonpython.messaging.mq_manager.MQManager.is_connected</title>
<!-- Node1 -->
<g id="Node000001" class="node">
<title>Node1</title>
<g id="a_Node000001"><a xlink:title=" ">
<polygon fill="#999999" stroke="#666666" points="678,-224 485,-224 485,-194 678,-194 678,-224"/>
<text text-anchor="start" x="493" y="-212" font-family="Helvetica,sans-Serif" font-size="10.00">commonpython.messaging.mq</text>
<text text-anchor="middle" x="581.5" y="-201" font-family="Helvetica,sans-Serif" font-size="10.00">_manager.MQManager.is_connected</text>
</a>
</g>
</g>
<!-- Node2 -->
<g id="Node000002" class="node">
<title>Node2</title>
<g id="a_Node000002"><a xlink:href="../../da/d7a/classcommonpython_1_1messaging_1_1mq__manager_1_1MQManager.html#a89310d92ccfe7cd1ddbbf39d6467ecfa" target="_top" xlink:title=" ">
<polygon fill="white" stroke="#666666" points="185.5,-380.5 17.5,-380.5 17.5,-339.5 185.5,-339.5 185.5,-380.5"/>
<text text-anchor="start" x="25.5" y="-368.5" font-family="Helvetica,sans-Serif" font-size="10.00">commonpython.messaging.mq</text>
<text text-anchor="start" x="25.5" y="-357.5" font-family="Helvetica,sans-Serif" font-size="10.00">_manager.MQManager.browse</text>
<text text-anchor="middle" x="101.5" y="-346.5" font-family="Helvetica,sans-Serif" font-size="10.00">_message</text>
</a>
</g>
</g>
<!-- Node1&#45;&gt;Node2 -->
<g id="edge1_Node000001_Node000002" class="edge">
<title>Node1&#45;&gt;Node2</title>
<g id="a_edge1_Node000001_Node000002"><a xlink:title=" ">
<path fill="none" stroke="#63b8ff" d="M571.37,-233.51C554.48,-274.77 514.06,-356.85 449,-390 353.64,-438.59 224.22,-405.51 153.62,-380.56"/>
<polygon fill="#63b8ff" stroke="#63b8ff" points="574.63,-234.77 575.06,-224.19 568.12,-232.19 574.63,-234.77"/>
</a>
</g>
</g>
<!-- Node3 -->
<g id="Node000003" class="node">
<title>Node3</title>
<g id="a_Node000003"><a xlink:href="../../d6/d85/classcommonpython_1_1database_1_1db2__manager_1_1DB2Manager.html#a7db48a3010e6fc0df8ead73c99d3b70a" target="_top" xlink:title=" ">
<polygon fill="white" stroke="#666666" points="203,-289 0,-289 0,-259 203,-259 203,-289"/>
<text text-anchor="start" x="8" y="-277" font-family="Helvetica,sans-Serif" font-size="10.00">commonpython.database.db2</text>
<text text-anchor="middle" x="101.5" y="-266" font-family="Helvetica,sans-Serif" font-size="10.00">_manager.DB2Manager.execute_batch</text>
</a>
</g>
</g>
<!-- Node1&#45;&gt;Node3 -->
<g id="edge2_Node000001_Node000003" class="edge">
<title>Node1&#45;&gt;Node3</title>
<g id="a_edge2_Node000001_Node000003"><a xlink:title=" ">
<path fill="none" stroke="#63b8ff" d="M492.74,-225.81C478.16,-228.37 463.17,-230.87 449,-233 366.48,-245.4 272.44,-256.33 203.17,-263.77"/>
<polygon fill="#63b8ff" stroke="#63b8ff" points="493.52,-229.22 502.76,-224.02 492.3,-222.33 493.52,-229.22"/>
</a>
</g>
</g>
<!-- Node4 -->
<g id="Node000004" class="node">
<title>Node4</title>
<g id="a_Node000004"><a xlink:href="../../d6/d85/classcommonpython_1_1database_1_1db2__manager_1_1DB2Manager.html#a5ca23607d6391b8a38abf654c4b8884b" target="_top" xlink:title=" ">
<polygon fill="white" stroke="#666666" points="446,-176 242,-176 242,-146 446,-146 446,-176"/>
<text text-anchor="start" x="250" y="-164" font-family="Helvetica,sans-Serif" font-size="10.00">commonpython.database.db2</text>
<text text-anchor="middle" x="344" y="-153" font-family="Helvetica,sans-Serif" font-size="10.00">_manager.DB2Manager.execute_query</text>
</a>
</g>
</g>
<!-- Node1&#45;&gt;Node4 -->
<g id="edge3_Node000001_Node000004" class="edge">
<title>Node1&#45;&gt;Node4</title>
<g id="a_edge3_Node000001_Node000004"><a xlink:title=" ">
<path fill="none" stroke="#63b8ff" d="M496.62,-191.9C471.14,-186.71 443.35,-181.05 418.61,-176"/>
<polygon fill="#63b8ff" stroke="#63b8ff" points="496.13,-195.38 506.63,-193.94 497.53,-188.52 496.13,-195.38"/>
</a>
</g>
</g>
<!-- Node8 -->
<g id="Node000008" class="node">
<title>Node8</title>
<g id="a_Node000008"><a xlink:href="../../d6/d85/classcommonpython_1_1database_1_1db2__manager_1_1DB2Manager.html#a0d37e4a0c62f2474d75130bf59b59d26" target="_top" xlink:title=" ">
<polygon fill="white" stroke="#666666" points="449,-224 239,-224 239,-194 449,-194 449,-224"/>
<text text-anchor="start" x="247" y="-212" font-family="Helvetica,sans-Serif" font-size="10.00">commonpython.database.db2</text>
<text text-anchor="middle" x="344" y="-201" font-family="Helvetica,sans-Serif" font-size="10.00">_manager.DB2Manager.execute_update</text>
</a>
</g>
</g>
<!-- Node1&#45;&gt;Node8 -->
<g id="edge7_Node000001_Node000008" class="edge">
<title>Node1&#45;&gt;Node8</title>
<g id="a_edge7_Node000001_Node000008"><a xlink:title=" ">
<path fill="none" stroke="#63b8ff" d="M474.49,-209C466.07,-209 457.56,-209 449.15,-209"/>
<polygon fill="#63b8ff" stroke="#63b8ff" points="474.71,-212.5 484.71,-209 474.71,-205.5 474.71,-212.5"/>
</a>
</g>
</g>
<!-- Node9 -->
<g id="Node000009" class="node">
<title>Node9</title>
<g id="a_Node000009"><a xlink:href="../../da/d7a/classcommonpython_1_1messaging_1_1mq__manager_1_1MQManager.html#aa20f4e808bd10e87110c2815c7172988" target="_top" xlink:title=" ">
<polygon fill="white" stroke="#666666" points="428,-380.5 260,-380.5 260,-339.5 428,-339.5 428,-380.5"/>
<text text-anchor="start" x="268" y="-368.5" font-family="Helvetica,sans-Serif" font-size="10.00">commonpython.messaging.mq</text>
<text text-anchor="start" x="268" y="-357.5" font-family="Helvetica,sans-Serif" font-size="10.00">_manager.MQManager.get</text>
<text text-anchor="middle" x="344" y="-346.5" font-family="Helvetica,sans-Serif" font-size="10.00">_message</text>
</a>
</g>
</g>
<!-- Node1&#45;&gt;Node9 -->
<g id="edge9_Node000001_Node000009" class="edge">
<title>Node1&#45;&gt;Node9</title>
<g id="a_edge9_Node000001_Node000009"><a xlink:title=" ">
<path fill="none" stroke="#63b8ff" d="M561.75,-232.12C538.22,-259.64 495.31,-305.1 449,-331 442.46,-334.66 435.42,-337.88 428.2,-340.72"/>
<polygon fill="#63b8ff" stroke="#63b8ff" points="564.65,-234.11 568.41,-224.2 559.3,-229.6 564.65,-234.11"/>
</a>
</g>
</g>
<!-- Node10 -->
<g id="Node000010" class="node">
<title>Node10</title>
<g id="a_Node000010"><a xlink:href="../../da/d7a/classcommonpython_1_1messaging_1_1mq__manager_1_1MQManager.html#a36139cfca3b302ab3c930087a4b17d65" target="_top" xlink:title=" ">
<polygon fill="white" stroke="#666666" points="428,-127.5 260,-127.5 260,-86.5 428,-86.5 428,-127.5"/>
<text text-anchor="start" x="268" y="-115.5" font-family="Helvetica,sans-Serif" font-size="10.00">commonpython.messaging.mq</text>
<text text-anchor="start" x="268" y="-104.5" font-family="Helvetica,sans-Serif" font-size="10.00">_manager.MQManager.get</text>
<text text-anchor="middle" x="344" y="-93.5" font-family="Helvetica,sans-Serif" font-size="10.00">_queue_depth</text>
</a>
</g>
</g>
<!-- Node1&#45;&gt;Node10 -->
<g id="edge11_Node000001_Node000010" class="edge">
<title>Node1&#45;&gt;Node10</title>
<g id="a_edge11_Node000001_Node000010"><a xlink:title=" ">
<path fill="none" stroke="#63b8ff" d="M547.89,-188.5C521.87,-172.81 484.09,-151.46 449,-137 440.75,-133.6 431.98,-130.43 423.16,-127.52"/>
<polygon fill="#63b8ff" stroke="#63b8ff" points="546.22,-191.58 556.58,-193.8 549.86,-185.6 546.22,-191.58"/>
</a>
</g>
</g>
<!-- Node11 -->
<g id="Node000011" class="node">
<title>Node11</title>
<g id="a_Node000011"><a xlink:href="../../da/d7a/classcommonpython_1_1messaging_1_1mq__manager_1_1MQManager.html#ade7c79ee9d81b4d72cddf7403adf1ffc" target="_top" xlink:title=" ">
<polygon fill="white" stroke="#666666" points="197.5,-63 5.5,-63 5.5,-33 197.5,-33 197.5,-63"/>
<text text-anchor="start" x="13.5" y="-51" font-family="Helvetica,sans-Serif" font-size="10.00">commonpython.messaging.mq</text>
<text text-anchor="middle" x="101.5" y="-40" font-family="Helvetica,sans-Serif" font-size="10.00">_manager.MQManager.purge_queue</text>
</a>
</g>
</g>
<!-- Node1&#45;&gt;Node11 -->
<g id="edge13_Node000001_Node000011" class="edge">
<title>Node1&#45;&gt;Node11</title>
<g id="a_edge13_Node000001_Node000011"><a xlink:title=" ">
<path fill="none" stroke="#63b8ff" d="M565,-185.24C543.25,-154.19 500.52,-100.97 449,-77 405.9,-56.95 284.68,-50.59 197.77,-48.67"/>
<polygon fill="#63b8ff" stroke="#63b8ff" points="562.28,-187.46 570.81,-193.74 568.05,-183.51 562.28,-187.46"/>
</a>
</g>
</g>
<!-- Node12 -->
<g id="Node000012" class="node">
<title>Node12</title>
<g id="a_Node000012"><a xlink:href="../../da/d7a/classcommonpython_1_1messaging_1_1mq__manager_1_1MQManager.html#a7ebf18c3bf61946366a302d19508710d" target="_top" xlink:title=" ">
<polygon fill="white" stroke="#666666" points="428,-321.5 260,-321.5 260,-280.5 428,-280.5 428,-321.5"/>
<text text-anchor="start" x="268" y="-309.5" font-family="Helvetica,sans-Serif" font-size="10.00">commonpython.messaging.mq</text>
<text text-anchor="start" x="268" y="-298.5" font-family="Helvetica,sans-Serif" font-size="10.00">_manager.MQManager.put</text>
<text text-anchor="middle" x="344" y="-287.5" font-family="Helvetica,sans-Serif" font-size="10.00">_message</text>
</a>
</g>
</g>
<!-- Node1&#45;&gt;Node12 -->
<g id="edge14_Node000001_Node000012" class="edge">
<title>Node1&#45;&gt;Node12</title>
<g id="a_edge14_Node000001_Node000012"><a xlink:title=" ">
<path fill="none" stroke="#63b8ff" d="M538.44,-228.31C512.81,-239.8 479.28,-254.37 449,-266 436.11,-270.95 422.18,-275.91 408.83,-280.47"/>
<polygon fill="#63b8ff" stroke="#63b8ff" points="540.17,-231.37 547.85,-224.07 537.3,-224.99 540.17,-231.37"/>
</a>
</g>
</g>
<!-- Node13 -->
<g id="Node000013" class="node">
<title>Node13</title>
<g id="a_Node000013"><a xlink:href="../../d6/d85/classcommonpython_1_1database_1_1db2__manager_1_1DB2Manager.html#af323686805601c7cb16daa555ea0821b" target="_top" xlink:title=" ">
<polygon fill="white" stroke="#666666" points="438,-30 250,-30 250,0 438,0 438,-30"/>
<text text-anchor="start" x="258" y="-18" font-family="Helvetica,sans-Serif" font-size="10.00">commonpython.database.db2</text>
<text text-anchor="middle" x="344" y="-7" font-family="Helvetica,sans-Serif" font-size="10.00">_manager.DB2Manager.transaction</text>
</a>
</g>
</g>
<!-- Node1&#45;&gt;Node13 -->
<g id="edge16_Node000001_Node000013" class="edge">
<title>Node1&#45;&gt;Node13</title>
<g id="a_edge16_Node000001_Node000013"><a xlink:title=" ">
<path fill="none" stroke="#63b8ff" d="M567.74,-184.69C547.48,-148.5 504.51,-80.76 449,-44 440.4,-38.31 430.7,-33.72 420.76,-30.03"/>
<polygon fill="#63b8ff" stroke="#63b8ff" points="564.75,-186.51 572.62,-193.6 570.88,-183.14 564.75,-186.51"/>
</a>
</g>
</g>
<!-- Node5 -->
<g id="Node000005" class="node">
<title>Node5</title>
<g id="a_Node000005"><a xlink:href="../../d6/d85/classcommonpython_1_1database_1_1db2__manager_1_1DB2Manager.html#ae2f69904d2bdd61d49cb9eebb3ad9223" target="_top" xlink:title=" ">
<polygon fill="white" stroke="#666666" points="182.5,-240.5 20.5,-240.5 20.5,-199.5 182.5,-199.5 182.5,-240.5"/>
<text text-anchor="start" x="28.5" y="-228.5" font-family="Helvetica,sans-Serif" font-size="10.00">commonpython.database.db2</text>
<text text-anchor="start" x="28.5" y="-217.5" font-family="Helvetica,sans-Serif" font-size="10.00">_manager.DB2Manager.get</text>
<text text-anchor="middle" x="101.5" y="-206.5" font-family="Helvetica,sans-Serif" font-size="10.00">_database_info</text>
</a>
</g>
</g>
<!-- Node4&#45;&gt;Node5 -->
<g id="edge4_Node000004_Node000005" class="edge">
<title>Node4&#45;&gt;Node5</title>
<g id="a_edge4_Node000004_Node000005"><a xlink:title=" ">
<path fill="none" stroke="#63b8ff" d="M266.89,-178.34C257.49,-180.55 248.02,-182.8 239,-185 220.34,-189.54 200.29,-194.59 181.46,-199.41"/>
<polygon fill="#63b8ff" stroke="#63b8ff" points="267.7,-181.74 276.64,-176.06 266.11,-174.93 267.7,-181.74"/>
</a>
</g>
</g>
<!-- Node6 -->
<g id="Node000006" class="node">
<title>Node6</title>
<g id="a_Node000006"><a xlink:href="../../d6/d85/classcommonpython_1_1database_1_1db2__manager_1_1DB2Manager.html#a2d25bd39c2fedacac875e4c70309890a" target="_top" xlink:title=" ">
<polygon fill="white" stroke="#666666" points="182.5,-181.5 20.5,-181.5 20.5,-140.5 182.5,-140.5 182.5,-181.5"/>
<text text-anchor="start" x="28.5" y="-169.5" font-family="Helvetica,sans-Serif" font-size="10.00">commonpython.database.db2</text>
<text text-anchor="start" x="28.5" y="-158.5" font-family="Helvetica,sans-Serif" font-size="10.00">_manager.DB2Manager.get</text>
<text text-anchor="middle" x="101.5" y="-147.5" font-family="Helvetica,sans-Serif" font-size="10.00">_table_info</text>
</a>
</g>
</g>
<!-- Node4&#45;&gt;Node6 -->
<g id="edge5_Node000004_Node000006" class="edge">
<title>Node4&#45;&gt;Node6</title>
<g id="a_edge5_Node000004_Node000006"><a xlink:title=" ">
<path fill="none" stroke="#63b8ff" d="M231.46,-161C214.94,-161 198.2,-161 182.5,-161"/>
<polygon fill="#63b8ff" stroke="#63b8ff" points="231.7,-164.5 241.7,-161 231.7,-157.5 231.7,-164.5"/>
</a>
</g>
</g>
<!-- Node7 -->
<g id="Node000007" class="node">
<title>Node7</title>
<g id="a_Node000007"><a xlink:href="../../d6/d85/classcommonpython_1_1database_1_1db2__manager_1_1DB2Manager.html#aad0b00e23d460a43a9ee47d9caecaaa6" target="_top" xlink:title=" ">
<polygon fill="white" stroke="#666666" points="182.5,-122.5 20.5,-122.5 20.5,-81.5 182.5,-81.5 182.5,-122.5"/>
<text text-anchor="start" x="28.5" y="-110.5" font-family="Helvetica,sans-Serif" font-size="10.00">commonpython.database.db2</text>
<text text-anchor="start" x="28.5" y="-99.5" font-family="Helvetica,sans-Serif" font-size="10.00">_manager.DB2Manager.test</text>
<text text-anchor="middle" x="101.5" y="-88.5" font-family="Helvetica,sans-Serif" font-size="10.00">_connection</text>
</a>
</g>
</g>
<!-- Node4&#45;&gt;Node7 -->
<g id="edge6_Node000004_Node000007" class="edge">
<title>Node4&#45;&gt;Node7</title>
<g id="a_edge6_Node000004_Node000007"><a xlink:title=" ">
<path fill="none" stroke="#63b8ff" d="M266.89,-143.66C257.49,-141.45 248.02,-139.2 239,-137 220.34,-132.46 200.29,-127.41 181.46,-122.59"/>
<polygon fill="#63b8ff" stroke="#63b8ff" points="266.11,-147.07 276.64,-145.94 267.7,-140.26 266.11,-147.07"/>
</a>
</g>
</g>
<!-- Node8&#45;&gt;Node3 -->
<g id="edge8_Node000008_Node000003" class="edge">
<title>Node8&#45;&gt;Node3</title>
<g id="a_edge8_Node000008_Node000003"><a xlink:title=" ">
<path fill="none" stroke="#63b8ff" d="M277.35,-226.77C264.6,-230.37 251.36,-234.22 239,-238 222.87,-242.93 219.22,-245.37 203,-250 192.13,-253.1 180.53,-256.13 169.21,-258.93"/>
<polygon fill="#63b8ff" stroke="#63b8ff" points="278.31,-230.14 286.99,-224.07 276.41,-223.4 278.31,-230.14"/>
</a>
</g>
</g>
<!-- Node9&#45;&gt;Node2 -->
<g id="edge10_Node000009_Node000002" class="edge">
<title>Node9&#45;&gt;Node2</title>
<g id="a_edge10_Node000009_Node000002"><a xlink:title=" ">
<path fill="none" stroke="#63b8ff" d="M249.64,-360C228.53,-360 206.26,-360 185.61,-360"/>
<polygon fill="#63b8ff" stroke="#63b8ff" points="249.9,-363.5 259.9,-360 249.9,-356.5 249.9,-363.5"/>
</a>
</g>
</g>
<!-- Node10&#45;&gt;Node11 -->
<g id="edge12_Node000010_Node000011" class="edge">
<title>Node10&#45;&gt;Node11</title>
<g id="a_edge12_Node000010_Node000011"><a xlink:title=" ">
<path fill="none" stroke="#63b8ff" d="M251.61,-84C235.42,-79.97 218.72,-75.84 203,-72 190.98,-69.06 178.13,-65.96 165.79,-63.01"/>
<polygon fill="#63b8ff" stroke="#63b8ff" points="251.05,-87.47 261.6,-86.5 252.75,-80.68 251.05,-87.47"/>
</a>
</g>
</g>
<!-- Node12&#45;&gt;Node2 -->
<g id="edge15_Node000012_Node000002" class="edge">
<title>Node12&#45;&gt;Node2</title>
<g id="a_edge15_Node000012_Node000002"><a xlink:title=" ">
<path fill="none" stroke="#63b8ff" d="M249.93,-323.83C228.73,-329.03 206.35,-334.52 185.61,-339.61"/>
<polygon fill="#63b8ff" stroke="#63b8ff" points="251.02,-327.17 259.9,-321.39 249.35,-320.37 251.02,-327.17"/>
</a>
</g>
</g>
</g>
</svg>

<g id="navigator" transform="translate(0 0)" fill="#404254">
  <rect fill="#f2f5e9" fill-opacity="0.5" stroke="#606060" stroke-width=".5" x="0" y="0" width="60" height="60"/>
  <use id="zoomplus" xlink:href="#zoomPlus" x="17" y="9" onmousedown="handleZoom(evt,'in')"/>
  <use id="zoomminus" xlink:href="#zoomMin" x="42" y="9" onmousedown="handleZoom(evt,'out')"/>
  <use id="reset" xlink:href="#resetDef" x="30" y="36" onmousedown="handleReset()"/>
   <use id="arrowup" xlink:href="#arrowUp" x="0" y="0" onmousedown="handlePan(0,-1)"/>
  <use id="arrowright" xlink:href="#arrowRight" x="0" y="0" onmousedown="handlePan(1,0)"/>
  <use id="arrowdown" xlink:href="#arrowDown" x="0" y="0" onmousedown="handlePan(0,1)"/>
  <use id="arrowleft" xlink:href="#arrowLeft" x="0" y="0" onmousedown="handlePan(-1,0)"/>
</g>
<svg viewBox="0 0 15 15" width="100%" height="30px" preserveAspectRatio="xMaxYMin meet">
 <g id="arrow_out" transform="scale(0.3 0.3)">
  <a xlink:href="classcommonpython_1_1messaging_1_1mq__manager_1_1MQManager_a65be5e8c672869dfb55aee2f08e56395_icgraph_org.svg" target="_base">
   <rect id="button" ry="5" rx="5" y="6" x="6" height="38" width="38"
        fill="#f2f5e9" fill-opacity="0.5" stroke="#606060" stroke-width="1.0"/>
   <path id="arrow"
     d="M 11.500037,31.436501 C 11.940474,20.09759 22.043105,11.32322 32.158766,21.979434 L 37.068811,17.246167 C 37.068811,17.246167 37.088388,32 37.088388,32 L 22.160133,31.978069 C 22.160133,31.978069 26.997745,27.140456 26.997745,27.140456 C 18.528582,18.264221 13.291696,25.230495 11.500037,31.436501 z"
     style="fill:#404040;"/>
  </a>
 </g>
</svg>

<style type='text/css'>
<![CDATA[
[data-mouse-over-selected='false'] { opacity: 0.7; }
[data-mouse-over-selected='true']  { opacity: 1.0; }
]]>
</style>
<script type="application/ecmascript"><![CDATA[
document.addEventListener('DOMContentLoaded', (event) => {
  highlightEdges();
  highlightAdjacentNodes();
});
]]></script>
</svg>
