<?xml version="1.0" encoding="UTF-8" standalone="no"?>
<!DOCTYPE svg PUBLIC "-//W3C//DTD SVG 1.1//EN"
 "http://www.w3.org/Graphics/SVG/1.1/DTD/svg11.dtd">
<!-- Generated by graphviz version 2.43.0 (0)
 -->
<!-- Title: commonpython.messaging.mq_manager.MQManager.browse_message Pages: 1 -->
<!--zoomable 304 -->

<svg id="main" version="1.1" xmlns="http://www.w3.org/2000/svg" xmlns:xlink="http://www.w3.org/1999/xlink" xml:space="preserve" onload="init(evt)">
<style type="text/css"><![CDATA[
.node, .edge {opacity: 0.7;}
.node.selected, .edge.selected {opacity: 1;}
.edge:hover path { stroke: red; }
.edge:hover polygon { stroke: red; fill: red; }
]]></style>

<defs>
  <circle id="rim" cx="0" cy="0" r="7"/>
  <circle id="rim2" cx="0" cy="0" r="3.5"/>
  <g id="zoomPlus">
    <use xlink:href="#rim" fill="#404040"><set attributeName="fill" to="#808080" begin="zoomplus.mouseover" end="zoomplus.mouseout"/></use>
    <path d="M-4,0h8M0,-4v8" fill="none" stroke="white" stroke-width="1.5" pointer-events="none"/>
  </g>
  <g id="zoomMin">
    <use xlink:href="#rim" fill="#404040"><set attributeName="fill" to="#808080" begin="zoomminus.mouseover" end="zoomminus.mouseout"/></use>
    <path d="M-4,0h8" fill="none" stroke="white" stroke-width="1.5" pointer-events="none"/>
  </g>
  <g id="arrowUp" transform="translate(30 24)">
    <use xlink:href="#rim"/>
    <path pointer-events="none" fill="none" stroke="white" stroke-width="1.5" d="M0,-3.0v7 M-2.5,-0.5L0,-3.0L2.5,-0.5"/>
  </g>
  <g id="arrowRight" transform="rotate(90) translate(36 -43)">
    <use xlink:href="#rim"/>
    <path pointer-events="none" fill="none" stroke="white" stroke-width="1.5" d="M0,-3.0v7 M-2.5,-0.5L0,-3.0L2.5,-0.5"/>
  </g>
  <g id="arrowDown" transform="rotate(180) translate(-30 -48)">
    <use xlink:href="#rim"/>
    <path pointer-events="none" fill="none" stroke="white" stroke-width="1.5" d="M0,-3.0v7 M-2.5,-0.5L0,-3.0L2.5,-0.5"/>
  </g>
  <g id="arrowLeft" transform="rotate(270) translate(-36 17)">
    <use xlink:href="#rim"/>
    <path pointer-events="none" fill="none" stroke="white" stroke-width="1.5" d="M0,-3.0v7 M-2.5,-0.5L0,-3.0L2.5,-0.5"/>
  </g>
  <g id="resetDef">
    <use xlink:href="#rim2" fill="#404040"><set attributeName="fill" to="#808080" begin="reset.mouseover" end="reset.mouseout"/></use>
  </g>
</defs>
<script type="application/ecmascript">
var viewWidth = 609;
var viewHeight = 304;
var sectionId = 'dynsection-2';
</script>
<script type="application/ecmascript" xlink:href="../../svg.min.js"/>
<svg id="graph" class="graph">
<g id="viewport">
<title>commonpython.messaging.mq_manager.MQManager.browse_message</title>
<!-- Node1 -->
<g id="Node000001" class="node">
<title>Node1</title>
<g id="a_Node000001"><a xlink:title=" ">
<polygon fill="#999999" stroke="#666666" points="168,-149.91 0,-149.91 0,-108.91 168,-108.91 168,-149.91"/>
<text text-anchor="start" x="8" y="-137.91" font-family="Helvetica,sans-Serif" font-size="10.00">commonpython.messaging.mq</text>
<text text-anchor="start" x="8" y="-126.91" font-family="Helvetica,sans-Serif" font-size="10.00">_manager.MQManager.browse</text>
<text text-anchor="middle" x="84" y="-115.91" font-family="Helvetica,sans-Serif" font-size="10.00">_message</text>
</a>
</g>
</g>
<!-- Node2 -->
<g id="Node000002" class="node">
<title>Node2</title>
<g id="a_Node000002"><a xlink:href="../../d6/dd2/classcommonpython_1_1cli_1_1cli_1_1CLI.html#a3f977116a5cf6d8c00f2bb246cfef782" target="_top" xlink:title=" ">
<polygon fill="white" stroke="#666666" points="367,-278.41 209,-278.41 209,-248.41 367,-248.41 367,-278.41"/>
<text text-anchor="start" x="217" y="-266.41" font-family="Helvetica,sans-Serif" font-size="10.00">commonpython.cli.cli.CLI.get</text>
<text text-anchor="middle" x="288" y="-255.41" font-family="Helvetica,sans-Serif" font-size="10.00">_message</text>
</a>
</g>
</g>
<!-- Node1&#45;&gt;Node2 -->
<g id="edge1_Node000001_Node000002" class="edge">
<title>Node1&#45;&gt;Node2</title>
<g id="a_edge1_Node000001_Node000002"><a xlink:title=" ">
<path fill="none" stroke="#63b8ff" d="M101.79,-149.92C123.08,-174.63 162.1,-215.77 204,-239.41 207.19,-241.21 210.53,-242.89 213.96,-244.45"/>
<polygon fill="#63b8ff" stroke="#63b8ff" points="212.63,-247.68 223.21,-248.3 215.32,-241.22 212.63,-247.68"/>
</a>
</g>
</g>
<!-- Node5 -->
<g id="Node000005" class="node">
<title>Node5</title>
<g id="a_Node000005"><a xlink:href="../../da/d7a/classcommonpython_1_1messaging_1_1mq__manager_1_1MQManager.html#aa20f4e808bd10e87110c2815c7172988" target="_top" xlink:title=" ">
<polygon fill="white" stroke="#666666" points="372,-125.91 204,-125.91 204,-84.91 372,-84.91 372,-125.91"/>
<text text-anchor="start" x="212" y="-113.91" font-family="Helvetica,sans-Serif" font-size="10.00">commonpython.messaging.mq</text>
<text text-anchor="start" x="212" y="-102.91" font-family="Helvetica,sans-Serif" font-size="10.00">_manager.MQManager.get</text>
<text text-anchor="middle" x="288" y="-91.91" font-family="Helvetica,sans-Serif" font-size="10.00">_message</text>
</a>
</g>
</g>
<!-- Node1&#45;&gt;Node5 -->
<g id="edge5_Node000001_Node000005" class="edge">
<title>Node1&#45;&gt;Node5</title>
<g id="a_edge5_Node000001_Node000005"><a xlink:title=" ">
<path fill="none" stroke="#63b8ff" d="M168.04,-119.54C176.56,-118.53 185.26,-117.5 193.89,-116.47"/>
<polygon fill="#63b8ff" stroke="#63b8ff" points="194.44,-119.93 203.96,-115.28 193.62,-112.98 194.44,-119.93"/>
</a>
</g>
</g>
<!-- Node6 -->
<g id="Node000006" class="node">
<title>Node6</title>
<g id="a_Node000006"><a xlink:href="../../d6/d85/classcommonpython_1_1database_1_1db2__manager_1_1DB2Manager.html#ae9d97b4b4535b05be8b744f32c4c14b3" target="_top" xlink:title=" ">
<polygon fill="white" stroke="#666666" points="585.5,-125.91 423.5,-125.91 423.5,-84.91 585.5,-84.91 585.5,-125.91"/>
<text text-anchor="start" x="431.5" y="-113.91" font-family="Helvetica,sans-Serif" font-size="10.00">commonpython.database.db2</text>
<text text-anchor="start" x="431.5" y="-102.91" font-family="Helvetica,sans-Serif" font-size="10.00">_manager.DB2Manager.is</text>
<text text-anchor="middle" x="504.5" y="-91.91" font-family="Helvetica,sans-Serif" font-size="10.00">_connected</text>
</a>
</g>
</g>
<!-- Node1&#45;&gt;Node6 -->
<g id="edge8_Node000001_Node000006" class="edge">
<title>Node1&#45;&gt;Node6</title>
<g id="a_edge8_Node000001_Node000006"><a xlink:title=" ">
<path fill="none" stroke="#63b8ff" d="M168.2,-134.14C180.21,-134.67 192.42,-135.12 204,-135.41 278.64,-137.29 297.8,-143.77 372,-135.41 386.56,-133.77 401.85,-131.14 416.66,-128.1"/>
<polygon fill="#63b8ff" stroke="#63b8ff" points="417.76,-131.45 426.81,-125.94 416.3,-124.6 417.76,-131.45"/>
</a>
</g>
</g>
<!-- Node7 -->
<g id="Node000007" class="node">
<title>Node7</title>
<g id="a_Node000007"><a xlink:href="../../da/d7a/classcommonpython_1_1messaging_1_1mq__manager_1_1MQManager.html#a65be5e8c672869dfb55aee2f08e56395" target="_top" xlink:title=" ">
<polygon fill="white" stroke="#666666" points="601,-61.41 408,-61.41 408,-31.41 601,-31.41 601,-61.41"/>
<text text-anchor="start" x="416" y="-49.41" font-family="Helvetica,sans-Serif" font-size="10.00">commonpython.messaging.mq</text>
<text text-anchor="middle" x="504.5" y="-38.41" font-family="Helvetica,sans-Serif" font-size="10.00">_manager.MQManager.is_connected</text>
</a>
</g>
</g>
<!-- Node1&#45;&gt;Node7 -->
<g id="edge9_Node000001_Node000007" class="edge">
<title>Node1&#45;&gt;Node7</title>
<g id="a_edge9_Node000001_Node000007"><a xlink:title=" ">
<path fill="none" stroke="#63b8ff" d="M98.96,-108.65C118.65,-81.44 157.43,-35 204,-16.41 287.44,16.9 393.89,-8.07 454.81,-28.05"/>
<polygon fill="#63b8ff" stroke="#63b8ff" points="453.96,-31.46 464.55,-31.33 456.19,-24.82 453.96,-31.46"/>
</a>
</g>
</g>
<!-- Node8 -->
<g id="Node000008" class="node">
<title>Node8</title>
<g id="a_Node000008"><a xlink:href="../../d6/dd2/classcommonpython_1_1cli_1_1cli_1_1CLI.html#a8aadb5626fc6f25b75fdddbd7e978faa" target="_top" xlink:title=" ">
<polygon fill="white" stroke="#666666" points="367,-212.41 209,-212.41 209,-182.41 367,-182.41 367,-212.41"/>
<text text-anchor="start" x="217" y="-200.41" font-family="Helvetica,sans-Serif" font-size="10.00">commonpython.cli.cli.CLI.put</text>
<text text-anchor="middle" x="288" y="-189.41" font-family="Helvetica,sans-Serif" font-size="10.00">_message</text>
</a>
</g>
</g>
<!-- Node1&#45;&gt;Node8 -->
<g id="edge10_Node000001_Node000008" class="edge">
<title>Node1&#45;&gt;Node8</title>
<g id="a_edge10_Node000001_Node000008"><a xlink:title=" ">
<path fill="none" stroke="#63b8ff" d="M146.15,-150C173.77,-159.29 206.11,-170.18 232.84,-179.18"/>
<polygon fill="#63b8ff" stroke="#63b8ff" points="231.82,-182.53 242.41,-182.4 234.05,-175.89 231.82,-182.53"/>
</a>
</g>
</g>
<!-- Node9 -->
<g id="Node000009" class="node">
<title>Node9</title>
<g id="a_Node000009"><a xlink:href="../../da/d7a/classcommonpython_1_1messaging_1_1mq__manager_1_1MQManager.html#a7ebf18c3bf61946366a302d19508710d" target="_top" xlink:title=" ">
<polygon fill="white" stroke="#666666" points="372,-66.91 204,-66.91 204,-25.91 372,-25.91 372,-66.91"/>
<text text-anchor="start" x="212" y="-54.91" font-family="Helvetica,sans-Serif" font-size="10.00">commonpython.messaging.mq</text>
<text text-anchor="start" x="212" y="-43.91" font-family="Helvetica,sans-Serif" font-size="10.00">_manager.MQManager.put</text>
<text text-anchor="middle" x="288" y="-32.91" font-family="Helvetica,sans-Serif" font-size="10.00">_message</text>
</a>
</g>
</g>
<!-- Node1&#45;&gt;Node9 -->
<g id="edge13_Node000001_Node000009" class="edge">
<title>Node1&#45;&gt;Node9</title>
<g id="a_edge13_Node000001_Node000009"><a xlink:title=" ">
<path fill="none" stroke="#63b8ff" d="M129.04,-108.89C151.34,-98.73 178.93,-86.51 204,-76.41 208.76,-74.49 213.7,-72.56 218.69,-70.65"/>
<polygon fill="#63b8ff" stroke="#63b8ff" points="220.18,-73.83 228.3,-67.03 217.71,-67.28 220.18,-73.83"/>
</a>
</g>
</g>
<!-- Node2&#45;&gt;Node2 -->
<g id="edge4_Node000002_Node000002" class="edge">
<title>Node2&#45;&gt;Node2</title>
<g id="a_edge4_Node000002_Node000002"><a xlink:title=" ">
<path fill="none" stroke="#63b8ff" d="M252.14,-278.69C244.17,-287.82 256.12,-296.41 288,-296.41 306.93,-296.41 318.83,-293.38 323.71,-289.01"/>
<polygon fill="#63b8ff" stroke="#63b8ff" points="327.21,-288.74 323.86,-278.69 320.21,-288.63 327.21,-288.74"/>
</a>
</g>
</g>
<!-- Node3 -->
<g id="Node000003" class="node">
<title>Node3</title>
<g id="a_Node000003"><a xlink:href="../../d6/dd2/classcommonpython_1_1cli_1_1cli_1_1CLI.html#ae6928d446a98c9c86e7435eb46d842e3" target="_top" xlink:title=" ">
<polygon fill="white" stroke="#666666" points="576,-278.41 433,-278.41 433,-248.41 576,-248.41 576,-278.41"/>
<text text-anchor="start" x="441" y="-266.41" font-family="Helvetica,sans-Serif" font-size="10.00">commonpython.cli.cli.CLI.</text>
<text text-anchor="middle" x="504.5" y="-255.41" font-family="Helvetica,sans-Serif" font-size="10.00">_display_results</text>
</a>
</g>
</g>
<!-- Node2&#45;&gt;Node3 -->
<g id="edge2_Node000002_Node000003" class="edge">
<title>Node2&#45;&gt;Node3</title>
<g id="a_edge2_Node000002_Node000003"><a xlink:title=" ">
<path fill="none" stroke="#63b8ff" d="M367.05,-263.41C385.24,-263.41 404.65,-263.41 422.94,-263.41"/>
<polygon fill="#63b8ff" stroke="#63b8ff" points="422.98,-266.91 432.98,-263.41 422.98,-259.91 422.98,-266.91"/>
</a>
</g>
</g>
<!-- Node4 -->
<g id="Node000004" class="node">
<title>Node4</title>
<g id="a_Node000004"><a xlink:href="../../d6/dd2/classcommonpython_1_1cli_1_1cli_1_1CLI.html#a0a650b67088eade813342c1a2c930667" target="_top" xlink:title=" ">
<polygon fill="white" stroke="#666666" points="576,-221.41 433,-221.41 433,-191.41 576,-191.41 576,-221.41"/>
<text text-anchor="start" x="441" y="-209.41" font-family="Helvetica,sans-Serif" font-size="10.00">commonpython.cli.cli.CLI.</text>
<text text-anchor="middle" x="504.5" y="-198.41" font-family="Helvetica,sans-Serif" font-size="10.00">_setup_messaging</text>
</a>
</g>
</g>
<!-- Node2&#45;&gt;Node4 -->
<g id="edge3_Node000002_Node000004" class="edge">
<title>Node2&#45;&gt;Node4</title>
<g id="a_edge3_Node000002_Node000004"><a xlink:title=" ">
<path fill="none" stroke="#63b8ff" d="M345.64,-248.36C373.74,-240.89 407.86,-231.83 437.17,-224.04"/>
<polygon fill="#63b8ff" stroke="#63b8ff" points="438.15,-227.4 446.92,-221.45 436.35,-220.63 438.15,-227.4"/>
</a>
</g>
</g>
<!-- Node5&#45;&gt;Node6 -->
<g id="edge6_Node000005_Node000006" class="edge">
<title>Node5&#45;&gt;Node6</title>
<g id="a_edge6_Node000005_Node000006"><a xlink:title=" ">
<path fill="none" stroke="#63b8ff" d="M372.24,-105.41C385.66,-105.41 399.61,-105.41 413.18,-105.41"/>
<polygon fill="#63b8ff" stroke="#63b8ff" points="413.48,-108.91 423.48,-105.41 413.48,-101.91 413.48,-108.91"/>
</a>
</g>
</g>
<!-- Node5&#45;&gt;Node7 -->
<g id="edge7_Node000005_Node000007" class="edge">
<title>Node5&#45;&gt;Node7</title>
<g id="a_edge7_Node000005_Node000007"><a xlink:title=" ">
<path fill="none" stroke="#63b8ff" d="M363.72,-84.86C388.16,-78.14 415.09,-70.73 438.73,-64.23"/>
<polygon fill="#63b8ff" stroke="#63b8ff" points="439.93,-67.53 448.64,-61.5 438.07,-60.78 439.93,-67.53"/>
</a>
</g>
</g>
<!-- Node8&#45;&gt;Node4 -->
<g id="edge11_Node000008_Node000004" class="edge">
<title>Node8&#45;&gt;Node4</title>
<g id="a_edge11_Node000008_Node000004"><a xlink:title=" ">
<path fill="none" stroke="#63b8ff" d="M367.05,-200.68C385.24,-201.45 404.65,-202.26 422.94,-203.03"/>
<polygon fill="#63b8ff" stroke="#63b8ff" points="422.84,-206.53 432.98,-203.45 423.14,-199.54 422.84,-206.53"/>
</a>
</g>
</g>
<!-- Node8&#45;&gt;Node8 -->
<g id="edge12_Node000008_Node000008" class="edge">
<title>Node8&#45;&gt;Node8</title>
<g id="a_edge12_Node000008_Node000008"><a xlink:title=" ">
<path fill="none" stroke="#63b8ff" d="M252.14,-212.69C244.17,-221.82 256.12,-230.41 288,-230.41 306.93,-230.41 318.83,-227.38 323.71,-223.01"/>
<polygon fill="#63b8ff" stroke="#63b8ff" points="327.21,-222.74 323.86,-212.69 320.21,-222.63 327.21,-222.74"/>
</a>
</g>
</g>
<!-- Node9&#45;&gt;Node6 -->
<g id="edge14_Node000009_Node000006" class="edge">
<title>Node9&#45;&gt;Node6</title>
<g id="a_edge14_Node000009_Node000006"><a xlink:title=" ">
<path fill="none" stroke="#63b8ff" d="M363.72,-66.96C381.55,-71.87 400.71,-77.14 418.95,-82.15"/>
<polygon fill="#63b8ff" stroke="#63b8ff" points="418.11,-85.55 428.68,-84.83 419.97,-78.8 418.11,-85.55"/>
</a>
</g>
</g>
<!-- Node9&#45;&gt;Node7 -->
<g id="edge15_Node000009_Node000007" class="edge">
<title>Node9&#45;&gt;Node7</title>
<g id="a_edge15_Node000009_Node000007"><a xlink:title=" ">
<path fill="none" stroke="#63b8ff" d="M372.24,-46.41C380.62,-46.41 389.2,-46.41 397.78,-46.41"/>
<polygon fill="#63b8ff" stroke="#63b8ff" points="397.82,-49.91 407.82,-46.41 397.82,-42.91 397.82,-49.91"/>
</a>
</g>
</g>
</g>
</svg>

<g id="navigator" transform="translate(0 0)" fill="#404254">
  <rect fill="#f2f5e9" fill-opacity="0.5" stroke="#606060" stroke-width=".5" x="0" y="0" width="60" height="60"/>
  <use id="zoomplus" xlink:href="#zoomPlus" x="17" y="9" onmousedown="handleZoom(evt,'in')"/>
  <use id="zoomminus" xlink:href="#zoomMin" x="42" y="9" onmousedown="handleZoom(evt,'out')"/>
  <use id="reset" xlink:href="#resetDef" x="30" y="36" onmousedown="handleReset()"/>
   <use id="arrowup" xlink:href="#arrowUp" x="0" y="0" onmousedown="handlePan(0,-1)"/>
  <use id="arrowright" xlink:href="#arrowRight" x="0" y="0" onmousedown="handlePan(1,0)"/>
  <use id="arrowdown" xlink:href="#arrowDown" x="0" y="0" onmousedown="handlePan(0,1)"/>
  <use id="arrowleft" xlink:href="#arrowLeft" x="0" y="0" onmousedown="handlePan(-1,0)"/>
</g>
<svg viewBox="0 0 15 15" width="100%" height="30px" preserveAspectRatio="xMaxYMin meet">
 <g id="arrow_out" transform="scale(0.3 0.3)">
  <a xlink:href="classcommonpython_1_1messaging_1_1mq__manager_1_1MQManager_a89310d92ccfe7cd1ddbbf39d6467ecfa_cgraph_org.svg" target="_base">
   <rect id="button" ry="5" rx="5" y="6" x="6" height="38" width="38"
        fill="#f2f5e9" fill-opacity="0.5" stroke="#606060" stroke-width="1.0"/>
   <path id="arrow"
     d="M 11.500037,31.436501 C 11.940474,20.09759 22.043105,11.32322 32.158766,21.979434 L 37.068811,17.246167 C 37.068811,17.246167 37.088388,32 37.088388,32 L 22.160133,31.978069 C 22.160133,31.978069 26.997745,27.140456 26.997745,27.140456 C 18.528582,18.264221 13.291696,25.230495 11.500037,31.436501 z"
     style="fill:#404040;"/>
  </a>
 </g>
</svg>

<style type='text/css'>
<![CDATA[
[data-mouse-over-selected='false'] { opacity: 0.7; }
[data-mouse-over-selected='true']  { opacity: 1.0; }
]]>
</style>
<script type="application/ecmascript"><![CDATA[
document.addEventListener('DOMContentLoaded', (event) => {
  highlightEdges();
  highlightAdjacentNodes();
});
]]></script>
</svg>
