<?xml version="1.0" encoding="UTF-8" standalone="no"?>
<!DOCTYPE svg PUBLIC "-//W3C//DTD SVG 1.1//EN"
 "http://www.w3.org/Graphics/SVG/1.1/DTD/svg11.dtd">
<!-- Generated by graphviz version 2.43.0 (0)
 -->
<!-- Title: commonpython.messaging.mq_manager.MQManager._execute_mq_command Pages: 1 -->
<svg width="613pt" height="196pt"
 viewBox="0.00 0.00 613.00 195.50" xmlns="http://www.w3.org/2000/svg" xmlns:xlink="http://www.w3.org/1999/xlink">
<g id="graph0" class="graph" transform="scale(1 1) rotate(0) translate(4 191.5)">
<title>commonpython.messaging.mq_manager.MQManager._execute_mq_command</title>
<!-- Node1 -->
<g id="Node000001" class="node">
<title>Node1</title>
<g id="a_Node000001"><a xlink:title=" ">
<polygon fill="#999999" stroke="#666666" points="605,-114 432,-114 432,-73 605,-73 605,-114"/>
<text text-anchor="start" x="440" y="-102" font-family="Helvetica,sans-Serif" font-size="10.00">commonpython.messaging.mq</text>
<text text-anchor="start" x="440" y="-91" font-family="Helvetica,sans-Serif" font-size="10.00">_manager.MQManager._execute</text>
<text text-anchor="middle" x="518.5" y="-80" font-family="Helvetica,sans-Serif" font-size="10.00">_mq_command</text>
</a>
</g>
</g>
<!-- Node2 -->
<g id="Node000002" class="node">
<title>Node2</title>
<g id="a_Node000002"><a xlink:href="../../da/d7a/classcommonpython_1_1messaging_1_1mq__manager_1_1MQManager.html#a89724f927b5cb779158242d29f9a325b" target="_top" xlink:title=" ">
<polygon fill="white" stroke="#666666" points="396,-187.5 228,-187.5 228,-157.5 396,-157.5 396,-187.5"/>
<text text-anchor="start" x="236" y="-175.5" font-family="Helvetica,sans-Serif" font-size="10.00">commonpython.messaging.mq</text>
<text text-anchor="middle" x="312" y="-164.5" font-family="Helvetica,sans-Serif" font-size="10.00">_manager.MQManager.connect</text>
</a>
</g>
</g>
<!-- Node1&#45;&gt;Node2 -->
<g id="edge1_Node000001_Node000002" class="edge">
<title>Node1&#45;&gt;Node2</title>
<g id="a_edge1_Node000001_Node000002"><a xlink:title=" ">
<path fill="none" stroke="#63b8ff" d="M466.68,-118.47C445.17,-128.52 419.65,-139.78 396,-148.5 387.42,-151.67 378.21,-154.69 369.16,-157.45"/>
<polygon fill="#63b8ff" stroke="#63b8ff" points="468.4,-121.53 475.95,-114.1 465.41,-115.2 468.4,-121.53"/>
</a>
</g>
</g>
<!-- Node3 -->
<g id="Node000003" class="node">
<title>Node3</title>
<g id="a_Node000003"><a xlink:href="../../da/d7a/classcommonpython_1_1messaging_1_1mq__manager_1_1MQManager.html#a36139cfca3b302ab3c930087a4b17d65" target="_top" xlink:title=" ">
<polygon fill="white" stroke="#666666" points="396,-139 228,-139 228,-98 396,-98 396,-139"/>
<text text-anchor="start" x="236" y="-127" font-family="Helvetica,sans-Serif" font-size="10.00">commonpython.messaging.mq</text>
<text text-anchor="start" x="236" y="-116" font-family="Helvetica,sans-Serif" font-size="10.00">_manager.MQManager.get</text>
<text text-anchor="middle" x="312" y="-105" font-family="Helvetica,sans-Serif" font-size="10.00">_queue_depth</text>
</a>
</g>
</g>
<!-- Node1&#45;&gt;Node3 -->
<g id="edge2_Node000001_Node000003" class="edge">
<title>Node1&#45;&gt;Node3</title>
<g id="a_edge2_Node000001_Node000003"><a xlink:title=" ">
<path fill="none" stroke="#63b8ff" d="M421.93,-105.18C413.34,-106.23 404.7,-107.29 396.23,-108.32"/>
<polygon fill="#63b8ff" stroke="#63b8ff" points="422.46,-108.65 431.96,-103.96 421.61,-101.7 422.46,-108.65"/>
</a>
</g>
</g>
<!-- Node4 -->
<g id="Node000004" class="node">
<title>Node4</title>
<g id="a_Node000004"><a xlink:href="../../da/d7a/classcommonpython_1_1messaging_1_1mq__manager_1_1MQManager.html#ade7c79ee9d81b4d72cddf7403adf1ffc" target="_top" xlink:title=" ">
<polygon fill="white" stroke="#666666" points="192,-108.5 0,-108.5 0,-78.5 192,-78.5 192,-108.5"/>
<text text-anchor="start" x="8" y="-96.5" font-family="Helvetica,sans-Serif" font-size="10.00">commonpython.messaging.mq</text>
<text text-anchor="middle" x="96" y="-85.5" font-family="Helvetica,sans-Serif" font-size="10.00">_manager.MQManager.purge_queue</text>
</a>
</g>
</g>
<!-- Node1&#45;&gt;Node4 -->
<g id="edge4_Node000001_Node000004" class="edge">
<title>Node1&#45;&gt;Node4</title>
<g id="a_edge4_Node000001_Node000004"><a xlink:title=" ">
<path fill="none" stroke="#63b8ff" d="M421.69,-90.05C413,-89.83 404.34,-89.64 396,-89.5 321.34,-88.27 302.66,-88.36 228,-89.5 216.4,-89.68 204.22,-89.94 192.15,-90.25"/>
<polygon fill="#63b8ff" stroke="#63b8ff" points="421.79,-93.55 431.88,-90.33 421.98,-86.56 421.79,-93.55"/>
</a>
</g>
</g>
<!-- Node5 -->
<g id="Node000005" class="node">
<title>Node5</title>
<g id="a_Node000005"><a xlink:href="../../da/d7a/classcommonpython_1_1messaging_1_1mq__manager_1_1MQManager.html#a1f21d3750f6e188f0746fd1f6cbcdb11" target="_top" xlink:title=" ">
<polygon fill="white" stroke="#666666" points="396,-41 228,-41 228,0 396,0 396,-41"/>
<text text-anchor="start" x="236" y="-29" font-family="Helvetica,sans-Serif" font-size="10.00">commonpython.messaging.mq</text>
<text text-anchor="start" x="236" y="-18" font-family="Helvetica,sans-Serif" font-size="10.00">_manager.MQManager.test</text>
<text text-anchor="middle" x="312" y="-7" font-family="Helvetica,sans-Serif" font-size="10.00">_connection</text>
</a>
</g>
</g>
<!-- Node1&#45;&gt;Node5 -->
<g id="edge5_Node000001_Node000005" class="edge">
<title>Node1&#45;&gt;Node5</title>
<g id="a_edge5_Node000001_Node000005"><a xlink:title=" ">
<path fill="none" stroke="#63b8ff" d="M450.28,-69.5C424.46,-60.29 395.25,-49.86 370.43,-41"/>
<polygon fill="#63b8ff" stroke="#63b8ff" points="449.4,-72.91 459.99,-72.97 451.75,-66.31 449.4,-72.91"/>
</a>
</g>
</g>
<!-- Node3&#45;&gt;Node4 -->
<g id="edge3_Node000003_Node000004" class="edge">
<title>Node3&#45;&gt;Node4</title>
<g id="a_edge3_Node000003_Node000004"><a xlink:title=" ">
<path fill="none" stroke="#63b8ff" d="M217.96,-107.63C209.39,-106.63 200.69,-105.61 192.1,-104.61"/>
<polygon fill="#63b8ff" stroke="#63b8ff" points="217.62,-111.11 227.96,-108.8 218.43,-104.16 217.62,-111.11"/>
</a>
</g>
</g>
</g>
</svg>
