<?xml version="1.0" encoding="UTF-8" standalone="no"?>
<!DOCTYPE svg PUBLIC "-//W3C//DTD SVG 1.1//EN"
 "http://www.w3.org/Graphics/SVG/1.1/DTD/svg11.dtd">
<!-- Generated by graphviz version 2.43.0 (0)
 -->
<!-- Title: commonpython.messaging.mq_manager.MQManager.purge_queue Pages: 1 -->
<svg width="633pt" height="238pt"
 viewBox="0.00 0.00 633.00 237.50" xmlns="http://www.w3.org/2000/svg" xmlns:xlink="http://www.w3.org/1999/xlink">
<g id="graph0" class="graph" transform="scale(1 1) rotate(0) translate(4 233.5)">
<title>commonpython.messaging.mq_manager.MQManager.purge_queue</title>
<!-- Node1 -->
<g id="Node000001" class="node">
<title>Node1</title>
<g id="a_Node000001"><a xlink:title=" ">
<polygon fill="#999999" stroke="#666666" points="192,-140 0,-140 0,-110 192,-110 192,-140"/>
<text text-anchor="start" x="8" y="-128" font-family="Helvetica,sans-Serif" font-size="10.00">commonpython.messaging.mq</text>
<text text-anchor="middle" x="96" y="-117" font-family="Helvetica,sans-Serif" font-size="10.00">_manager.MQManager.purge_queue</text>
</a>
</g>
</g>
<!-- Node2 -->
<g id="Node000002" class="node">
<title>Node2</title>
<g id="a_Node000002"><a xlink:href="../../da/d7a/classcommonpython_1_1messaging_1_1mq__manager_1_1MQManager.html#a36c0f541209d8e3aecc1f6ae7f9b56cb" target="_top" xlink:title=" ">
<polygon fill="white" stroke="#666666" points="615,-229.5 442,-229.5 442,-188.5 615,-188.5 615,-229.5"/>
<text text-anchor="start" x="450" y="-217.5" font-family="Helvetica,sans-Serif" font-size="10.00">commonpython.messaging.mq</text>
<text text-anchor="start" x="450" y="-206.5" font-family="Helvetica,sans-Serif" font-size="10.00">_manager.MQManager._execute</text>
<text text-anchor="middle" x="528.5" y="-195.5" font-family="Helvetica,sans-Serif" font-size="10.00">_mq_command</text>
</a>
</g>
</g>
<!-- Node1&#45;&gt;Node2 -->
<g id="edge1_Node000001_Node000002" class="edge">
<title>Node1&#45;&gt;Node2</title>
<g id="a_edge1_Node000001_Node000002"><a xlink:title=" ">
<path fill="none" stroke="#63b8ff" d="M133.36,-140.11C159.32,-150.31 195.27,-163.27 228,-171 295.15,-186.86 372.43,-196.46 431.67,-202.04"/>
<polygon fill="#63b8ff" stroke="#63b8ff" points="431.48,-205.54 441.76,-202.97 432.12,-198.57 431.48,-205.54"/>
</a>
</g>
</g>
<!-- Node3 -->
<g id="Node000003" class="node">
<title>Node3</title>
<g id="a_Node000003"><a xlink:href="../../d6/dd2/classcommonpython_1_1cli_1_1cli_1_1CLI.html#a5b831c5dbe6824d9e2c27a673daf3ef1" target="_top" xlink:title=" ">
<polygon fill="white" stroke="#666666" points="391,-30 233,-30 233,0 391,0 391,-30"/>
<text text-anchor="start" x="241" y="-18" font-family="Helvetica,sans-Serif" font-size="10.00">commonpython.cli.cli.CLI.get</text>
<text text-anchor="middle" x="312" y="-7" font-family="Helvetica,sans-Serif" font-size="10.00">_queue_depth</text>
</a>
</g>
</g>
<!-- Node1&#45;&gt;Node3 -->
<g id="edge2_Node000001_Node000003" class="edge">
<title>Node1&#45;&gt;Node3</title>
<g id="a_edge2_Node000001_Node000003"><a xlink:title=" ">
<path fill="none" stroke="#63b8ff" d="M126.31,-109.94C164.3,-90.41 230.65,-56.3 272.62,-34.73"/>
<polygon fill="#63b8ff" stroke="#63b8ff" points="274.41,-37.74 281.7,-30.06 271.21,-31.52 274.41,-37.74"/>
</a>
</g>
</g>
<!-- Node5 -->
<g id="Node000005" class="node">
<title>Node5</title>
<g id="a_Node000005"><a xlink:href="../../da/d7a/classcommonpython_1_1messaging_1_1mq__manager_1_1MQManager.html#a36139cfca3b302ab3c930087a4b17d65" target="_top" xlink:title=" ">
<polygon fill="white" stroke="#666666" points="396,-145.5 228,-145.5 228,-104.5 396,-104.5 396,-145.5"/>
<text text-anchor="start" x="236" y="-133.5" font-family="Helvetica,sans-Serif" font-size="10.00">commonpython.messaging.mq</text>
<text text-anchor="start" x="236" y="-122.5" font-family="Helvetica,sans-Serif" font-size="10.00">_manager.MQManager.get</text>
<text text-anchor="middle" x="312" y="-111.5" font-family="Helvetica,sans-Serif" font-size="10.00">_queue_depth</text>
</a>
</g>
</g>
<!-- Node1&#45;&gt;Node5 -->
<g id="edge5_Node000001_Node000005" class="edge">
<title>Node1&#45;&gt;Node5</title>
<g id="a_edge5_Node000001_Node000005"><a xlink:title=" ">
<path fill="none" stroke="#63b8ff" d="M192.11,-125C200.6,-125 209.19,-125 217.67,-125"/>
<polygon fill="#63b8ff" stroke="#63b8ff" points="217.94,-128.5 227.94,-125 217.94,-121.5 217.94,-128.5"/>
</a>
</g>
</g>
<!-- Node6 -->
<g id="Node000006" class="node">
<title>Node6</title>
<g id="a_Node000006"><a xlink:href="../../d6/d85/classcommonpython_1_1database_1_1db2__manager_1_1DB2Manager.html#ae9d97b4b4535b05be8b744f32c4c14b3" target="_top" xlink:title=" ">
<polygon fill="white" stroke="#666666" points="609.5,-164.5 447.5,-164.5 447.5,-123.5 609.5,-123.5 609.5,-164.5"/>
<text text-anchor="start" x="455.5" y="-152.5" font-family="Helvetica,sans-Serif" font-size="10.00">commonpython.database.db2</text>
<text text-anchor="start" x="455.5" y="-141.5" font-family="Helvetica,sans-Serif" font-size="10.00">_manager.DB2Manager.is</text>
<text text-anchor="middle" x="528.5" y="-130.5" font-family="Helvetica,sans-Serif" font-size="10.00">_connected</text>
</a>
</g>
</g>
<!-- Node1&#45;&gt;Node6 -->
<g id="edge9_Node000001_Node000006" class="edge">
<title>Node1&#45;&gt;Node6</title>
<g id="a_edge9_Node000001_Node000006"><a xlink:title=" ">
<path fill="none" stroke="#63b8ff" d="M150.07,-140.01C173.71,-145.96 202.03,-152.06 228,-155 298.01,-162.91 377.76,-159.38 437.35,-154.29"/>
<polygon fill="#63b8ff" stroke="#63b8ff" points="437.83,-157.76 447.49,-153.39 437.22,-150.79 437.83,-157.76"/>
</a>
</g>
</g>
<!-- Node7 -->
<g id="Node000007" class="node">
<title>Node7</title>
<g id="a_Node000007"><a xlink:href="../../da/d7a/classcommonpython_1_1messaging_1_1mq__manager_1_1MQManager.html#a65be5e8c672869dfb55aee2f08e56395" target="_top" xlink:title=" ">
<polygon fill="white" stroke="#666666" points="625,-94 432,-94 432,-64 625,-64 625,-94"/>
<text text-anchor="start" x="440" y="-82" font-family="Helvetica,sans-Serif" font-size="10.00">commonpython.messaging.mq</text>
<text text-anchor="middle" x="528.5" y="-71" font-family="Helvetica,sans-Serif" font-size="10.00">_manager.MQManager.is_connected</text>
</a>
</g>
</g>
<!-- Node1&#45;&gt;Node7 -->
<g id="edge10_Node000001_Node000007" class="edge">
<title>Node1&#45;&gt;Node7</title>
<g id="a_edge10_Node000001_Node000007"><a xlink:title=" ">
<path fill="none" stroke="#63b8ff" d="M155.33,-109.98C177.88,-104.72 204,-99.32 228,-96 291.88,-87.18 364.02,-82.91 421.5,-80.86"/>
<polygon fill="#63b8ff" stroke="#63b8ff" points="421.81,-84.35 431.69,-80.51 421.58,-77.35 421.81,-84.35"/>
</a>
</g>
</g>
<!-- Node3&#45;&gt;Node3 -->
<g id="edge4_Node000003_Node000003" class="edge">
<title>Node3&#45;&gt;Node3</title>
<g id="a_edge4_Node000003_Node000003"><a xlink:title=" ">
<path fill="none" stroke="#63b8ff" d="M274.03,-30.28C265.59,-39.41 278.25,-48 312,-48 332.04,-48 344.64,-44.97 349.81,-40.6"/>
<polygon fill="#63b8ff" stroke="#63b8ff" points="353.31,-40.33 349.97,-30.28 346.31,-40.22 353.31,-40.33"/>
</a>
</g>
</g>
<!-- Node4 -->
<g id="Node000004" class="node">
<title>Node4</title>
<g id="a_Node000004"><a xlink:href="../../d6/dd2/classcommonpython_1_1cli_1_1cli_1_1CLI.html#a0a650b67088eade813342c1a2c930667" target="_top" xlink:title=" ">
<polygon fill="white" stroke="#666666" points="600,-30 457,-30 457,0 600,0 600,-30"/>
<text text-anchor="start" x="465" y="-18" font-family="Helvetica,sans-Serif" font-size="10.00">commonpython.cli.cli.CLI.</text>
<text text-anchor="middle" x="528.5" y="-7" font-family="Helvetica,sans-Serif" font-size="10.00">_setup_messaging</text>
</a>
</g>
</g>
<!-- Node3&#45;&gt;Node4 -->
<g id="edge3_Node000003_Node000004" class="edge">
<title>Node3&#45;&gt;Node4</title>
<g id="a_edge3_Node000003_Node000004"><a xlink:title=" ">
<path fill="none" stroke="#63b8ff" d="M391.05,-15C409.24,-15 428.65,-15 446.94,-15"/>
<polygon fill="#63b8ff" stroke="#63b8ff" points="446.98,-18.5 456.98,-15 446.98,-11.5 446.98,-18.5"/>
</a>
</g>
</g>
<!-- Node5&#45;&gt;Node2 -->
<g id="edge6_Node000005_Node000002" class="edge">
<title>Node5&#45;&gt;Node2</title>
<g id="a_edge6_Node000005_Node000002"><a xlink:title=" ">
<path fill="none" stroke="#63b8ff" d="M361.75,-145.58C383.22,-154.51 408.78,-164.97 432,-174 441.26,-177.6 451.06,-181.31 460.71,-184.9"/>
<polygon fill="#63b8ff" stroke="#63b8ff" points="459.7,-188.26 470.3,-188.45 462.14,-181.7 459.7,-188.26"/>
</a>
</g>
</g>
<!-- Node5&#45;&gt;Node6 -->
<g id="edge7_Node000005_Node000006" class="edge">
<title>Node5&#45;&gt;Node6</title>
<g id="a_edge7_Node000005_Node000006"><a xlink:title=" ">
<path fill="none" stroke="#63b8ff" d="M396.24,-132.37C409.66,-133.56 423.61,-134.8 437.18,-136"/>
<polygon fill="#63b8ff" stroke="#63b8ff" points="437.21,-139.52 447.48,-136.91 437.83,-132.54 437.21,-139.52"/>
</a>
</g>
</g>
<!-- Node5&#45;&gt;Node7 -->
<g id="edge8_Node000005_Node000007" class="edge">
<title>Node5&#45;&gt;Node7</title>
<g id="a_edge8_Node000005_Node000007"><a xlink:title=" ">
<path fill="none" stroke="#63b8ff" d="M396.24,-107.15C413.01,-103.55 430.61,-99.78 447.28,-96.2"/>
<polygon fill="#63b8ff" stroke="#63b8ff" points="448.48,-99.53 457.52,-94.01 447.01,-92.68 448.48,-99.53"/>
</a>
</g>
</g>
</g>
</svg>
