<?xml version="1.0" encoding="UTF-8" standalone="no"?>
<!DOCTYPE svg PUBLIC "-//W3C//DTD SVG 1.1//EN"
 "http://www.w3.org/Graphics/SVG/1.1/DTD/svg11.dtd">
<!-- Generated by graphviz version 2.43.0 (0)
 -->
<!-- Title: commonpython.framework.component_base.ComponentBase Pages: 1 -->
<svg width="209pt" height="393pt"
 viewBox="0.00 0.00 209.00 393.00" xmlns="http://www.w3.org/2000/svg" xmlns:xlink="http://www.w3.org/1999/xlink">

<svg id="main" version="1.1" xmlns="http://www.w3.org/2000/svg" xmlns:xlink="http://www.w3.org/1999/xlink" xml:space="preserve" onload="init(evt)">
<style type="text/css"><![CDATA[
.node, .edge {opacity: 0.7;}
.node.selected, .edge.selected {opacity: 1;}
.edge:hover path { stroke: red; }
.edge:hover polygon { stroke: red; fill: red; }
]]></style>
<script type="application/ecmascript" xlink:href="../../svg.min.js"/>
<svg id="graph" class="graph">
<g id="graph0" class="graph" transform="scale(1 1) rotate(0) translate(4 389)">
<title>commonpython.framework.component_base.ComponentBase</title>
<!-- Node1 -->
<g id="Node000001" class="node">
<title>Node1</title>
<g id="a_Node000001"><a xlink:title=" ">
<polygon fill="#999999" stroke="transparent" points="201,-300 0,-300 0,0 201,0 201,-300"/>
<text text-anchor="start" x="5.5" y="-288" font-family="Helvetica,sans-Serif" font-size="10.00">commonpython.framework.component</text>
<text text-anchor="start" x="45" y="-277" font-family="Helvetica,sans-Serif" font-size="10.00">_base.ComponentBase</text>
<text text-anchor="start" x="21.5" y="-262" font-family="Helvetica,sans-Serif" font-size="10.00">+</text>
<text text-anchor="start" x="51.5" y="-262" font-family="Helvetica,sans-Serif" font-size="10.00">component_name</text>
<text text-anchor="start" x="21.5" y="-247" font-family="Helvetica,sans-Serif" font-size="10.00">+</text>
<text text-anchor="start" x="51.5" y="-247" font-family="Helvetica,sans-Serif" font-size="10.00">config_file</text>
<text text-anchor="start" x="21.5" y="-232" font-family="Helvetica,sans-Serif" font-size="10.00">+</text>
<text text-anchor="start" x="51.5" y="-232" font-family="Helvetica,sans-Serif" font-size="10.00">config_manager</text>
<text text-anchor="start" x="21.5" y="-217" font-family="Helvetica,sans-Serif" font-size="10.00">+</text>
<text text-anchor="start" x="51.5" y="-217" font-family="Helvetica,sans-Serif" font-size="10.00">logger_manager</text>
<text text-anchor="start" x="21.5" y="-202" font-family="Helvetica,sans-Serif" font-size="10.00">+</text>
<text text-anchor="start" x="51.5" y="-202" font-family="Helvetica,sans-Serif" font-size="10.00">db_manager</text>
<text text-anchor="start" x="21.5" y="-187" font-family="Helvetica,sans-Serif" font-size="10.00">+</text>
<text text-anchor="start" x="51.5" y="-187" font-family="Helvetica,sans-Serif" font-size="10.00">mq_manager</text>
<text text-anchor="start" x="21.5" y="-172" font-family="Helvetica,sans-Serif" font-size="10.00">+</text>
<text text-anchor="start" x="51.5" y="-172" font-family="Helvetica,sans-Serif" font-size="10.00">__init__()</text>
<text text-anchor="start" x="21.5" y="-157" font-family="Helvetica,sans-Serif" font-size="10.00">+</text>
<text text-anchor="start" x="51.5" y="-157" font-family="Helvetica,sans-Serif" font-size="10.00">get_config()</text>
<text text-anchor="start" x="21.5" y="-142" font-family="Helvetica,sans-Serif" font-size="10.00">+</text>
<text text-anchor="start" x="51.5" y="-142" font-family="Helvetica,sans-Serif" font-size="10.00">set_config()</text>
<text text-anchor="start" x="21.5" y="-127" font-family="Helvetica,sans-Serif" font-size="10.00">+</text>
<text text-anchor="start" x="51.5" y="-127" font-family="Helvetica,sans-Serif" font-size="10.00">log_info()</text>
<text text-anchor="start" x="21.5" y="-112" font-family="Helvetica,sans-Serif" font-size="10.00">+</text>
<text text-anchor="start" x="51.5" y="-112" font-family="Helvetica,sans-Serif" font-size="10.00">log_error()</text>
<text text-anchor="start" x="21.5" y="-97" font-family="Helvetica,sans-Serif" font-size="10.00">+</text>
<text text-anchor="start" x="51.5" y="-97" font-family="Helvetica,sans-Serif" font-size="10.00">log_warning()</text>
<text text-anchor="start" x="21.5" y="-82" font-family="Helvetica,sans-Serif" font-size="10.00">+</text>
<text text-anchor="start" x="51.5" y="-82" font-family="Helvetica,sans-Serif" font-size="10.00">log_debug()</text>
<text text-anchor="start" x="21.5" y="-67" font-family="Helvetica,sans-Serif" font-size="10.00">+</text>
<text text-anchor="start" x="51.5" y="-67" font-family="Helvetica,sans-Serif" font-size="10.00">connect_database()</text>
<text text-anchor="start" x="21.5" y="-52" font-family="Helvetica,sans-Serif" font-size="10.00">+</text>
<text text-anchor="start" x="51.5" y="-52" font-family="Helvetica,sans-Serif" font-size="10.00">disconnect_database()</text>
<text text-anchor="start" x="21.5" y="-37" font-family="Helvetica,sans-Serif" font-size="10.00">+</text>
<text text-anchor="start" x="51.5" y="-37" font-family="Helvetica,sans-Serif" font-size="10.00">connect_messaging()</text>
<text text-anchor="start" x="51.5" y="-22" font-family="Helvetica,sans-Serif" font-size="10.00">and 9 more...</text>
<text text-anchor="start" x="21.5" y="-7" font-family="Helvetica,sans-Serif" font-size="10.00">#</text>
<text text-anchor="start" x="51.5" y="-7" font-family="Helvetica,sans-Serif" font-size="10.00">_initialize_services()</text>
<polygon fill="#666666" stroke="#666666" points="0.5,-272 0.5,-272 201.5,-272 201.5,-272 0.5,-272"/>
<polygon fill="#666666" stroke="#666666" points="0.5,-182 0.5,-182 49.5,-182 49.5,-182 0.5,-182"/>
<polygon fill="#666666" stroke="#666666" points="49.5,-182 49.5,-182 201.5,-182 201.5,-182 49.5,-182"/>
<polygon fill="none" stroke="#666666" points="0,0 0,-300 201,-300 201,0 0,0"/>
</a>
</g>
</g>
<!-- Node2 -->
<g id="Node000002" class="node">
<title>Node2</title>
<g id="a_Node000002"><a xlink:title=" ">
<polygon fill="white" stroke="transparent" points="116,-385 85,-385 85,-336 116,-336 116,-385"/>
<text text-anchor="start" x="90.5" y="-372.5" font-family="Helvetica,sans-Serif" font-size="10.00">ABC</text>
<text text-anchor="start" x="99" y="-357.5" font-family="Helvetica,sans-Serif" font-size="10.00"> </text>
<text text-anchor="start" x="99" y="-342.5" font-family="Helvetica,sans-Serif" font-size="10.00"> </text>
<polygon fill="#666666" stroke="#666666" points="85.5,-367.5 85.5,-367.5 116.5,-367.5 116.5,-367.5 85.5,-367.5"/>
<polygon fill="#666666" stroke="#666666" points="85.5,-352.5 85.5,-352.5 116.5,-352.5 116.5,-352.5 85.5,-352.5"/>
<polygon fill="none" stroke="#666666" points="85,-336 85,-385 116,-385 116,-336 85,-336"/>
</a>
</g>
</g>
<!-- Node2&#45;&gt;Node1 -->
<g id="edge1_Node000001_Node000002" class="edge">
<title>Node2&#45;&gt;Node1</title>
<g id="a_edge1_Node000001_Node000002"><a xlink:title=" ">
<path fill="none" stroke="#63b8ff" d="M100.5,-325.86C100.5,-318.21 100.5,-309.61 100.5,-300.44"/>
<polygon fill="none" stroke="#63b8ff" points="97,-325.99 100.5,-335.99 104,-325.99 97,-325.99"/>
</a>
</g>
</g>
</g>
</svg>
</svg>

<style type='text/css'>
<![CDATA[
[data-mouse-over-selected='false'] { opacity: 0.7; }
[data-mouse-over-selected='true']  { opacity: 1.0; }
]]>
</style>
<script type="application/ecmascript"><![CDATA[
document.addEventListener('DOMContentLoaded', (event) => {
  highlightEdges();
  highlightAdjacentNodes();
});
]]></script>
</svg>
