<?xml version="1.0" encoding="UTF-8" standalone="no"?>
<!DOCTYPE svg PUBLIC "-//W3C//DTD SVG 1.1//EN"
 "http://www.w3.org/Graphics/SVG/1.1/DTD/svg11.dtd">
<!-- Generated by graphviz version 2.43.0 (0)
 -->
<!-- Title: commonpython.cli.cli.main Pages: 1 -->
<svg width="348pt" height="51pt"
 viewBox="0.00 0.00 348.00 50.50" xmlns="http://www.w3.org/2000/svg" xmlns:xlink="http://www.w3.org/1999/xlink">
<g id="graph0" class="graph" transform="scale(1 1) rotate(0) translate(4 46.5)">
<title>commonpython.cli.cli.main</title>
<!-- Node1 -->
<g id="Node000001" class="node">
<title>Node1</title>
<g id="a_Node000001"><a xlink:title=" ">
<polygon fill="#999999" stroke="#666666" points="149,-24.5 0,-24.5 0,-5.5 149,-5.5 149,-24.5"/>
<text text-anchor="middle" x="74.5" y="-12.5" font-family="Helvetica,sans-Serif" font-size="10.00">commonpython.cli.cli.main</text>
</a>
</g>
</g>
<!-- Node1&#45;&gt;Node1 -->
<g id="edge2_Node000001_Node000001" class="edge">
<title>Node1&#45;&gt;Node1</title>
<g id="a_edge2_Node000001_Node000001"><a xlink:title=" ">
<path fill="none" stroke="#63b8ff" d="M45.52,-24.58C31.43,-33.23 41.09,-42.5 74.5,-42.5 97.47,-42.5 109.22,-38.12 109.73,-32.57"/>
<polygon fill="#63b8ff" stroke="#63b8ff" points="112.4,-30.3 103.48,-24.58 106.89,-34.61 112.4,-30.3"/>
</a>
</g>
</g>
<!-- Node2 -->
<g id="Node000002" class="node">
<title>Node2</title>
<g id="a_Node000002"><a xlink:href="../../d4/dcd/namespacecommonpython_1_1cli_1_1cli.html#a32376de6177f094b6d50de55e2a943ce" target="_top" xlink:title=" ">
<polygon fill="white" stroke="#666666" points="340,-30 185,-30 185,0 340,0 340,-30"/>
<text text-anchor="start" x="193" y="-18" font-family="Helvetica,sans-Serif" font-size="10.00">commonpython.cli.cli.create</text>
<text text-anchor="middle" x="262.5" y="-7" font-family="Helvetica,sans-Serif" font-size="10.00">_parser</text>
</a>
</g>
</g>
<!-- Node1&#45;&gt;Node2 -->
<g id="edge1_Node000001_Node000002" class="edge">
<title>Node1&#45;&gt;Node2</title>
<g id="a_edge1_Node000001_Node000002"><a xlink:title=" ">
<path fill="none" stroke="#63b8ff" d="M149.01,-15C157.48,-15 166.17,-15 174.79,-15"/>
<polygon fill="#63b8ff" stroke="#63b8ff" points="174.86,-18.5 184.86,-15 174.86,-11.5 174.86,-18.5"/>
</a>
</g>
</g>
</g>
</svg>
