<?xml version="1.0" encoding="UTF-8" standalone="no"?>
<!DOCTYPE svg PUBLIC "-//W3C//DTD SVG 1.1//EN"
 "http://www.w3.org/Graphics/SVG/1.1/DTD/svg11.dtd">
<!-- Generated by graphviz version 2.43.0 (0)
 -->
<!-- Title: commonpython.database.db2_manager.DB2Manager.transaction Pages: 1 -->
<svg width="425pt" height="157pt"
 viewBox="0.00 0.00 425.00 156.50" xmlns="http://www.w3.org/2000/svg" xmlns:xlink="http://www.w3.org/1999/xlink">
<g id="graph0" class="graph" transform="scale(1 1) rotate(0) translate(4 152.5)">
<title>commonpython.database.db2_manager.DB2Manager.transaction</title>
<!-- Node1 -->
<g id="Node000001" class="node">
<title>Node1</title>
<g id="a_Node000001"><a xlink:title=" ">
<polygon fill="#999999" stroke="#666666" points="188,-84 0,-84 0,-54 188,-54 188,-84"/>
<text text-anchor="start" x="8" y="-72" font-family="Helvetica,sans-Serif" font-size="10.00">commonpython.database.db2</text>
<text text-anchor="middle" x="94" y="-61" font-family="Helvetica,sans-Serif" font-size="10.00">_manager.DB2Manager.transaction</text>
</a>
</g>
</g>
<!-- Node2 -->
<g id="Node000002" class="node">
<title>Node2</title>
<g id="a_Node000002"><a xlink:href="../../d6/d85/classcommonpython_1_1database_1_1db2__manager_1_1DB2Manager.html#ad0ab28d7036184db12445c789f9ce863" target="_top" xlink:title=" ">
<polygon fill="white" stroke="#666666" points="408.5,-148.5 232.5,-148.5 232.5,-107.5 408.5,-107.5 408.5,-148.5"/>
<text text-anchor="start" x="240.5" y="-136.5" font-family="Helvetica,sans-Serif" font-size="10.00">commonpython.database.db2</text>
<text text-anchor="start" x="240.5" y="-125.5" font-family="Helvetica,sans-Serif" font-size="10.00">_manager.DB2Manager._execute</text>
<text text-anchor="middle" x="320.5" y="-114.5" font-family="Helvetica,sans-Serif" font-size="10.00">_db2_command</text>
</a>
</g>
</g>
<!-- Node1&#45;&gt;Node2 -->
<g id="edge1_Node000001_Node000002" class="edge">
<title>Node1&#45;&gt;Node2</title>
<g id="a_edge1_Node000001_Node000002"><a xlink:title=" ">
<path fill="none" stroke="#63b8ff" d="M152.23,-84.04C176.3,-90.37 204.85,-97.87 231.48,-104.87"/>
<polygon fill="#63b8ff" stroke="#63b8ff" points="230.64,-108.26 241.2,-107.42 232.42,-101.49 230.64,-108.26"/>
</a>
</g>
</g>
<!-- Node3 -->
<g id="Node000003" class="node">
<title>Node3</title>
<g id="a_Node000003"><a xlink:href="../../d6/d85/classcommonpython_1_1database_1_1db2__manager_1_1DB2Manager.html#ae9d97b4b4535b05be8b744f32c4c14b3" target="_top" xlink:title=" ">
<polygon fill="white" stroke="#666666" points="401.5,-89.5 239.5,-89.5 239.5,-48.5 401.5,-48.5 401.5,-89.5"/>
<text text-anchor="start" x="247.5" y="-77.5" font-family="Helvetica,sans-Serif" font-size="10.00">commonpython.database.db2</text>
<text text-anchor="start" x="247.5" y="-66.5" font-family="Helvetica,sans-Serif" font-size="10.00">_manager.DB2Manager.is</text>
<text text-anchor="middle" x="320.5" y="-55.5" font-family="Helvetica,sans-Serif" font-size="10.00">_connected</text>
</a>
</g>
</g>
<!-- Node1&#45;&gt;Node3 -->
<g id="edge2_Node000001_Node000003" class="edge">
<title>Node1&#45;&gt;Node3</title>
<g id="a_edge2_Node000001_Node000003"><a xlink:title=" ">
<path fill="none" stroke="#63b8ff" d="M188.26,-69C201.79,-69 215.71,-69 229.19,-69"/>
<polygon fill="#63b8ff" stroke="#63b8ff" points="229.39,-72.5 239.39,-69 229.39,-65.5 229.39,-72.5"/>
</a>
</g>
</g>
<!-- Node4 -->
<g id="Node000004" class="node">
<title>Node4</title>
<g id="a_Node000004"><a xlink:href="../../da/d7a/classcommonpython_1_1messaging_1_1mq__manager_1_1MQManager.html#a65be5e8c672869dfb55aee2f08e56395" target="_top" xlink:title=" ">
<polygon fill="white" stroke="#666666" points="417,-30 224,-30 224,0 417,0 417,-30"/>
<text text-anchor="start" x="232" y="-18" font-family="Helvetica,sans-Serif" font-size="10.00">commonpython.messaging.mq</text>
<text text-anchor="middle" x="320.5" y="-7" font-family="Helvetica,sans-Serif" font-size="10.00">_manager.MQManager.is_connected</text>
</a>
</g>
</g>
<!-- Node1&#45;&gt;Node4 -->
<g id="edge3_Node000001_Node000004" class="edge">
<title>Node1&#45;&gt;Node4</title>
<g id="a_edge3_Node000001_Node000004"><a xlink:title=" ">
<path fill="none" stroke="#63b8ff" d="M157.54,-53.96C185.27,-47.29 218.09,-39.39 246.9,-32.46"/>
<polygon fill="#63b8ff" stroke="#63b8ff" points="248.01,-35.8 256.91,-30.05 246.37,-28.99 248.01,-35.8"/>
</a>
</g>
</g>
</g>
</svg>
