<?xml version="1.0" encoding="UTF-8" standalone="no"?>
<!DOCTYPE svg PUBLIC "-//W3C//DTD SVG 1.1//EN"
 "http://www.w3.org/Graphics/SVG/1.1/DTD/svg11.dtd">
<!-- Generated by graphviz version 2.43.0 (0)
 -->
<!-- Title: commonpython.database.db2_manager.DB2Manager.is_connected Pages: 1 -->
<svg width="655pt" height="425pt"
 viewBox="0.00 0.00 655.00 424.66" xmlns="http://www.w3.org/2000/svg" xmlns:xlink="http://www.w3.org/1999/xlink">
<g id="graph0" class="graph" transform="scale(1 1) rotate(0) translate(4 420.66)">
<title>commonpython.database.db2_manager.DB2Manager.is_connected</title>
<!-- Node1 -->
<g id="Node000001" class="node">
<title>Node1</title>
<g id="a_Node000001"><a xlink:title=" ">
<polygon fill="#999999" stroke="#666666" points="647,-229.5 485,-229.5 485,-188.5 647,-188.5 647,-229.5"/>
<text text-anchor="start" x="493" y="-217.5" font-family="Helvetica,sans-Serif" font-size="10.00">commonpython.database.db2</text>
<text text-anchor="start" x="493" y="-206.5" font-family="Helvetica,sans-Serif" font-size="10.00">_manager.DB2Manager.is</text>
<text text-anchor="middle" x="566" y="-195.5" font-family="Helvetica,sans-Serif" font-size="10.00">_connected</text>
</a>
</g>
</g>
<!-- Node2 -->
<g id="Node000002" class="node">
<title>Node2</title>
<g id="a_Node000002"><a xlink:href="../../da/d7a/classcommonpython_1_1messaging_1_1mq__manager_1_1MQManager.html#a89310d92ccfe7cd1ddbbf39d6467ecfa" target="_top" xlink:title=" ">
<polygon fill="white" stroke="#666666" points="185.5,-380.5 17.5,-380.5 17.5,-339.5 185.5,-339.5 185.5,-380.5"/>
<text text-anchor="start" x="25.5" y="-368.5" font-family="Helvetica,sans-Serif" font-size="10.00">commonpython.messaging.mq</text>
<text text-anchor="start" x="25.5" y="-357.5" font-family="Helvetica,sans-Serif" font-size="10.00">_manager.MQManager.browse</text>
<text text-anchor="middle" x="101.5" y="-346.5" font-family="Helvetica,sans-Serif" font-size="10.00">_message</text>
</a>
</g>
</g>
<!-- Node1&#45;&gt;Node2 -->
<g id="edge1_Node000001_Node000002" class="edge">
<title>Node1&#45;&gt;Node2</title>
<g id="a_edge1_Node000001_Node000002"><a xlink:title=" ">
<path fill="none" stroke="#63b8ff" d="M555.89,-239.15C541.2,-281.72 507.81,-357.84 449,-390 354.17,-441.86 222.55,-406.53 151.95,-380.58"/>
<polygon fill="#63b8ff" stroke="#63b8ff" points="559.23,-240.19 559.06,-229.59 552.59,-237.98 559.23,-240.19"/>
</a>
</g>
</g>
<!-- Node3 -->
<g id="Node000003" class="node">
<title>Node3</title>
<g id="a_Node000003"><a xlink:href="../../d6/d85/classcommonpython_1_1database_1_1db2__manager_1_1DB2Manager.html#a7db48a3010e6fc0df8ead73c99d3b70a" target="_top" xlink:title=" ">
<polygon fill="white" stroke="#666666" points="203,-289 0,-289 0,-259 203,-259 203,-289"/>
<text text-anchor="start" x="8" y="-277" font-family="Helvetica,sans-Serif" font-size="10.00">commonpython.database.db2</text>
<text text-anchor="middle" x="101.5" y="-266" font-family="Helvetica,sans-Serif" font-size="10.00">_manager.DB2Manager.execute_batch</text>
</a>
</g>
</g>
<!-- Node1&#45;&gt;Node3 -->
<g id="edge2_Node000001_Node000003" class="edge">
<title>Node1&#45;&gt;Node3</title>
<g id="a_edge2_Node000001_Node000003"><a xlink:title=" ">
<path fill="none" stroke="#63b8ff" d="M475.08,-228.4C466.28,-230.06 457.48,-231.62 449,-233 366.63,-246.37 272.58,-257.22 203.27,-264.39"/>
<polygon fill="#63b8ff" stroke="#63b8ff" points="475.82,-231.82 484.98,-226.49 474.5,-224.95 475.82,-231.82"/>
</a>
</g>
</g>
<!-- Node4 -->
<g id="Node000004" class="node">
<title>Node4</title>
<g id="a_Node000004"><a xlink:href="../../d6/d85/classcommonpython_1_1database_1_1db2__manager_1_1DB2Manager.html#a5ca23607d6391b8a38abf654c4b8884b" target="_top" xlink:title=" ">
<polygon fill="white" stroke="#666666" points="446,-176 242,-176 242,-146 446,-146 446,-176"/>
<text text-anchor="start" x="250" y="-164" font-family="Helvetica,sans-Serif" font-size="10.00">commonpython.database.db2</text>
<text text-anchor="middle" x="344" y="-153" font-family="Helvetica,sans-Serif" font-size="10.00">_manager.DB2Manager.execute_query</text>
</a>
</g>
</g>
<!-- Node1&#45;&gt;Node4 -->
<g id="edge3_Node000001_Node000004" class="edge">
<title>Node1&#45;&gt;Node4</title>
<g id="a_edge3_Node000001_Node000004"><a xlink:title=" ">
<path fill="none" stroke="#63b8ff" d="M475.05,-189.38C454.71,-184.94 433.42,-180.29 414.1,-176.08"/>
<polygon fill="#63b8ff" stroke="#63b8ff" points="474.44,-192.82 484.95,-191.54 475.93,-185.98 474.44,-192.82"/>
</a>
</g>
</g>
<!-- Node8 -->
<g id="Node000008" class="node">
<title>Node8</title>
<g id="a_Node000008"><a xlink:href="../../d6/d85/classcommonpython_1_1database_1_1db2__manager_1_1DB2Manager.html#a0d37e4a0c62f2474d75130bf59b59d26" target="_top" xlink:title=" ">
<polygon fill="white" stroke="#666666" points="449,-224 239,-224 239,-194 449,-194 449,-224"/>
<text text-anchor="start" x="247" y="-212" font-family="Helvetica,sans-Serif" font-size="10.00">commonpython.database.db2</text>
<text text-anchor="middle" x="344" y="-201" font-family="Helvetica,sans-Serif" font-size="10.00">_manager.DB2Manager.execute_update</text>
</a>
</g>
</g>
<!-- Node1&#45;&gt;Node8 -->
<g id="edge7_Node000001_Node000008" class="edge">
<title>Node1&#45;&gt;Node8</title>
<g id="a_edge7_Node000001_Node000008"><a xlink:title=" ">
<path fill="none" stroke="#63b8ff" d="M474.72,-209C466.26,-209 457.64,-209 449.06,-209"/>
<polygon fill="#63b8ff" stroke="#63b8ff" points="474.95,-212.5 484.95,-209 474.95,-205.5 474.95,-212.5"/>
</a>
</g>
</g>
<!-- Node9 -->
<g id="Node000009" class="node">
<title>Node9</title>
<g id="a_Node000009"><a xlink:href="../../da/d7a/classcommonpython_1_1messaging_1_1mq__manager_1_1MQManager.html#aa20f4e808bd10e87110c2815c7172988" target="_top" xlink:title=" ">
<polygon fill="white" stroke="#666666" points="428,-380.5 260,-380.5 260,-339.5 428,-339.5 428,-380.5"/>
<text text-anchor="start" x="268" y="-368.5" font-family="Helvetica,sans-Serif" font-size="10.00">commonpython.messaging.mq</text>
<text text-anchor="start" x="268" y="-357.5" font-family="Helvetica,sans-Serif" font-size="10.00">_manager.MQManager.get</text>
<text text-anchor="middle" x="344" y="-346.5" font-family="Helvetica,sans-Serif" font-size="10.00">_message</text>
</a>
</g>
</g>
<!-- Node1&#45;&gt;Node9 -->
<g id="edge9_Node000001_Node000009" class="edge">
<title>Node1&#45;&gt;Node9</title>
<g id="a_edge9_Node000001_Node000009"><a xlink:title=" ">
<path fill="none" stroke="#63b8ff" d="M545.01,-237.7C524.15,-265.53 488.95,-306.98 449,-331 442.49,-334.91 435.44,-338.31 428.18,-341.26"/>
<polygon fill="#63b8ff" stroke="#63b8ff" points="547.91,-239.66 551.01,-229.53 542.27,-235.52 547.91,-239.66"/>
</a>
</g>
</g>
<!-- Node10 -->
<g id="Node000010" class="node">
<title>Node10</title>
<g id="a_Node000010"><a xlink:href="../../da/d7a/classcommonpython_1_1messaging_1_1mq__manager_1_1MQManager.html#a36139cfca3b302ab3c930087a4b17d65" target="_top" xlink:title=" ">
<polygon fill="white" stroke="#666666" points="428,-127.5 260,-127.5 260,-86.5 428,-86.5 428,-127.5"/>
<text text-anchor="start" x="268" y="-115.5" font-family="Helvetica,sans-Serif" font-size="10.00">commonpython.messaging.mq</text>
<text text-anchor="start" x="268" y="-104.5" font-family="Helvetica,sans-Serif" font-size="10.00">_manager.MQManager.get</text>
<text text-anchor="middle" x="344" y="-93.5" font-family="Helvetica,sans-Serif" font-size="10.00">_queue_depth</text>
</a>
</g>
</g>
<!-- Node1&#45;&gt;Node10 -->
<g id="edge11_Node000001_Node000010" class="edge">
<title>Node1&#45;&gt;Node10</title>
<g id="a_edge11_Node000001_Node000010"><a xlink:title=" ">
<path fill="none" stroke="#63b8ff" d="M528.25,-182.55C506.13,-167.57 476.92,-149.41 449,-137 441.27,-133.57 433.05,-130.41 424.74,-127.55"/>
<polygon fill="#63b8ff" stroke="#63b8ff" points="526.44,-185.55 536.67,-188.33 530.41,-179.78 526.44,-185.55"/>
</a>
</g>
</g>
<!-- Node11 -->
<g id="Node000011" class="node">
<title>Node11</title>
<g id="a_Node000011"><a xlink:href="../../da/d7a/classcommonpython_1_1messaging_1_1mq__manager_1_1MQManager.html#ade7c79ee9d81b4d72cddf7403adf1ffc" target="_top" xlink:title=" ">
<polygon fill="white" stroke="#666666" points="197.5,-63 5.5,-63 5.5,-33 197.5,-33 197.5,-63"/>
<text text-anchor="start" x="13.5" y="-51" font-family="Helvetica,sans-Serif" font-size="10.00">commonpython.messaging.mq</text>
<text text-anchor="middle" x="101.5" y="-40" font-family="Helvetica,sans-Serif" font-size="10.00">_manager.MQManager.purge_queue</text>
</a>
</g>
</g>
<!-- Node1&#45;&gt;Node11 -->
<g id="edge13_Node000001_Node000011" class="edge">
<title>Node1&#45;&gt;Node11</title>
<g id="a_edge13_Node000001_Node000011"><a xlink:title=" ">
<path fill="none" stroke="#63b8ff" d="M548.56,-179.52C529.23,-148.05 494.01,-99.67 449,-77 406.48,-55.58 284.79,-49.55 197.65,-48.07"/>
<polygon fill="#63b8ff" stroke="#63b8ff" points="545.67,-181.51 553.81,-188.3 551.68,-177.92 545.67,-181.51"/>
</a>
</g>
</g>
<!-- Node12 -->
<g id="Node000012" class="node">
<title>Node12</title>
<g id="a_Node000012"><a xlink:href="../../da/d7a/classcommonpython_1_1messaging_1_1mq__manager_1_1MQManager.html#a7ebf18c3bf61946366a302d19508710d" target="_top" xlink:title=" ">
<polygon fill="white" stroke="#666666" points="428,-321.5 260,-321.5 260,-280.5 428,-280.5 428,-321.5"/>
<text text-anchor="start" x="268" y="-309.5" font-family="Helvetica,sans-Serif" font-size="10.00">commonpython.messaging.mq</text>
<text text-anchor="start" x="268" y="-298.5" font-family="Helvetica,sans-Serif" font-size="10.00">_manager.MQManager.put</text>
<text text-anchor="middle" x="344" y="-287.5" font-family="Helvetica,sans-Serif" font-size="10.00">_message</text>
</a>
</g>
</g>
<!-- Node1&#45;&gt;Node12 -->
<g id="edge14_Node000001_Node000012" class="edge">
<title>Node1&#45;&gt;Node12</title>
<g id="a_edge14_Node000001_Node000012"><a xlink:title=" ">
<path fill="none" stroke="#63b8ff" d="M517.47,-234.12C496.73,-244.62 471.95,-256.55 449,-266 436.67,-271.08 423.31,-276 410.4,-280.46"/>
<polygon fill="#63b8ff" stroke="#63b8ff" points="519.08,-237.23 526.39,-229.57 515.89,-231 519.08,-237.23"/>
</a>
</g>
</g>
<!-- Node13 -->
<g id="Node000013" class="node">
<title>Node13</title>
<g id="a_Node000013"><a xlink:href="../../d6/d85/classcommonpython_1_1database_1_1db2__manager_1_1DB2Manager.html#af323686805601c7cb16daa555ea0821b" target="_top" xlink:title=" ">
<polygon fill="white" stroke="#666666" points="438,-30 250,-30 250,0 438,0 438,-30"/>
<text text-anchor="start" x="258" y="-18" font-family="Helvetica,sans-Serif" font-size="10.00">commonpython.database.db2</text>
<text text-anchor="middle" x="344" y="-7" font-family="Helvetica,sans-Serif" font-size="10.00">_manager.DB2Manager.transaction</text>
</a>
</g>
</g>
<!-- Node1&#45;&gt;Node13 -->
<g id="edge16_Node000001_Node000013" class="edge">
<title>Node1&#45;&gt;Node13</title>
<g id="a_edge16_Node000001_Node000013"><a xlink:title=" ">
<path fill="none" stroke="#63b8ff" d="M551.8,-178.96C533.89,-141.71 498.36,-78.87 449,-44 440.96,-38.32 431.85,-33.75 422.43,-30.08"/>
<polygon fill="#63b8ff" stroke="#63b8ff" points="548.76,-180.73 556.18,-188.3 555.1,-177.76 548.76,-180.73"/>
</a>
</g>
</g>
<!-- Node5 -->
<g id="Node000005" class="node">
<title>Node5</title>
<g id="a_Node000005"><a xlink:href="../../d6/d85/classcommonpython_1_1database_1_1db2__manager_1_1DB2Manager.html#ae2f69904d2bdd61d49cb9eebb3ad9223" target="_top" xlink:title=" ">
<polygon fill="white" stroke="#666666" points="182.5,-240.5 20.5,-240.5 20.5,-199.5 182.5,-199.5 182.5,-240.5"/>
<text text-anchor="start" x="28.5" y="-228.5" font-family="Helvetica,sans-Serif" font-size="10.00">commonpython.database.db2</text>
<text text-anchor="start" x="28.5" y="-217.5" font-family="Helvetica,sans-Serif" font-size="10.00">_manager.DB2Manager.get</text>
<text text-anchor="middle" x="101.5" y="-206.5" font-family="Helvetica,sans-Serif" font-size="10.00">_database_info</text>
</a>
</g>
</g>
<!-- Node4&#45;&gt;Node5 -->
<g id="edge4_Node000004_Node000005" class="edge">
<title>Node4&#45;&gt;Node5</title>
<g id="a_edge4_Node000004_Node000005"><a xlink:title=" ">
<path fill="none" stroke="#63b8ff" d="M266.89,-178.34C257.49,-180.55 248.02,-182.8 239,-185 220.34,-189.54 200.29,-194.59 181.46,-199.41"/>
<polygon fill="#63b8ff" stroke="#63b8ff" points="267.7,-181.74 276.64,-176.06 266.11,-174.93 267.7,-181.74"/>
</a>
</g>
</g>
<!-- Node6 -->
<g id="Node000006" class="node">
<title>Node6</title>
<g id="a_Node000006"><a xlink:href="../../d6/d85/classcommonpython_1_1database_1_1db2__manager_1_1DB2Manager.html#a2d25bd39c2fedacac875e4c70309890a" target="_top" xlink:title=" ">
<polygon fill="white" stroke="#666666" points="182.5,-181.5 20.5,-181.5 20.5,-140.5 182.5,-140.5 182.5,-181.5"/>
<text text-anchor="start" x="28.5" y="-169.5" font-family="Helvetica,sans-Serif" font-size="10.00">commonpython.database.db2</text>
<text text-anchor="start" x="28.5" y="-158.5" font-family="Helvetica,sans-Serif" font-size="10.00">_manager.DB2Manager.get</text>
<text text-anchor="middle" x="101.5" y="-147.5" font-family="Helvetica,sans-Serif" font-size="10.00">_table_info</text>
</a>
</g>
</g>
<!-- Node4&#45;&gt;Node6 -->
<g id="edge5_Node000004_Node000006" class="edge">
<title>Node4&#45;&gt;Node6</title>
<g id="a_edge5_Node000004_Node000006"><a xlink:title=" ">
<path fill="none" stroke="#63b8ff" d="M231.46,-161C214.94,-161 198.2,-161 182.5,-161"/>
<polygon fill="#63b8ff" stroke="#63b8ff" points="231.7,-164.5 241.7,-161 231.7,-157.5 231.7,-164.5"/>
</a>
</g>
</g>
<!-- Node7 -->
<g id="Node000007" class="node">
<title>Node7</title>
<g id="a_Node000007"><a xlink:href="../../d6/d85/classcommonpython_1_1database_1_1db2__manager_1_1DB2Manager.html#aad0b00e23d460a43a9ee47d9caecaaa6" target="_top" xlink:title=" ">
<polygon fill="white" stroke="#666666" points="182.5,-122.5 20.5,-122.5 20.5,-81.5 182.5,-81.5 182.5,-122.5"/>
<text text-anchor="start" x="28.5" y="-110.5" font-family="Helvetica,sans-Serif" font-size="10.00">commonpython.database.db2</text>
<text text-anchor="start" x="28.5" y="-99.5" font-family="Helvetica,sans-Serif" font-size="10.00">_manager.DB2Manager.test</text>
<text text-anchor="middle" x="101.5" y="-88.5" font-family="Helvetica,sans-Serif" font-size="10.00">_connection</text>
</a>
</g>
</g>
<!-- Node4&#45;&gt;Node7 -->
<g id="edge6_Node000004_Node000007" class="edge">
<title>Node4&#45;&gt;Node7</title>
<g id="a_edge6_Node000004_Node000007"><a xlink:title=" ">
<path fill="none" stroke="#63b8ff" d="M266.89,-143.66C257.49,-141.45 248.02,-139.2 239,-137 220.34,-132.46 200.29,-127.41 181.46,-122.59"/>
<polygon fill="#63b8ff" stroke="#63b8ff" points="266.11,-147.07 276.64,-145.94 267.7,-140.26 266.11,-147.07"/>
</a>
</g>
</g>
<!-- Node8&#45;&gt;Node3 -->
<g id="edge8_Node000008_Node000003" class="edge">
<title>Node8&#45;&gt;Node3</title>
<g id="a_edge8_Node000008_Node000003"><a xlink:title=" ">
<path fill="none" stroke="#63b8ff" d="M277.35,-226.77C264.6,-230.37 251.36,-234.22 239,-238 222.87,-242.93 219.22,-245.37 203,-250 192.13,-253.1 180.53,-256.13 169.21,-258.93"/>
<polygon fill="#63b8ff" stroke="#63b8ff" points="278.31,-230.14 286.99,-224.07 276.41,-223.4 278.31,-230.14"/>
</a>
</g>
</g>
<!-- Node9&#45;&gt;Node2 -->
<g id="edge10_Node000009_Node000002" class="edge">
<title>Node9&#45;&gt;Node2</title>
<g id="a_edge10_Node000009_Node000002"><a xlink:title=" ">
<path fill="none" stroke="#63b8ff" d="M249.64,-360C228.53,-360 206.26,-360 185.61,-360"/>
<polygon fill="#63b8ff" stroke="#63b8ff" points="249.9,-363.5 259.9,-360 249.9,-356.5 249.9,-363.5"/>
</a>
</g>
</g>
<!-- Node10&#45;&gt;Node11 -->
<g id="edge12_Node000010_Node000011" class="edge">
<title>Node10&#45;&gt;Node11</title>
<g id="a_edge12_Node000010_Node000011"><a xlink:title=" ">
<path fill="none" stroke="#63b8ff" d="M251.61,-84C235.42,-79.97 218.72,-75.84 203,-72 190.98,-69.06 178.13,-65.96 165.79,-63.01"/>
<polygon fill="#63b8ff" stroke="#63b8ff" points="251.05,-87.47 261.6,-86.5 252.75,-80.68 251.05,-87.47"/>
</a>
</g>
</g>
<!-- Node12&#45;&gt;Node2 -->
<g id="edge15_Node000012_Node000002" class="edge">
<title>Node12&#45;&gt;Node2</title>
<g id="a_edge15_Node000012_Node000002"><a xlink:title=" ">
<path fill="none" stroke="#63b8ff" d="M249.93,-323.83C228.73,-329.03 206.35,-334.52 185.61,-339.61"/>
<polygon fill="#63b8ff" stroke="#63b8ff" points="251.02,-327.17 259.9,-321.39 249.35,-320.37 251.02,-327.17"/>
</a>
</g>
</g>
</g>
</svg>
