<?xml version="1.0" encoding="UTF-8" standalone="no"?>
<!DOCTYPE svg PUBLIC "-//W3C//DTD SVG 1.1//EN"
 "http://www.w3.org/Graphics/SVG/1.1/DTD/svg11.dtd">
<!-- Generated by graphviz version 2.43.0 (0)
 -->
<!-- Title: commonpython.database.db2_manager.DB2Manager.execute_batch Pages: 1 -->
<svg width="700pt" height="273pt"
 viewBox="0.00 0.00 700.00 272.50" xmlns="http://www.w3.org/2000/svg" xmlns:xlink="http://www.w3.org/1999/xlink">
<g id="graph0" class="graph" transform="scale(1 1) rotate(0) translate(4 268.5)">
<title>commonpython.database.db2_manager.DB2Manager.execute_batch</title>
<!-- Node1 -->
<g id="Node000001" class="node">
<title>Node1</title>
<g id="a_Node000001"><a xlink:title=" ">
<polygon fill="#999999" stroke="#666666" points="203,-179 0,-179 0,-149 203,-149 203,-179"/>
<text text-anchor="start" x="8" y="-167" font-family="Helvetica,sans-Serif" font-size="10.00">commonpython.database.db2</text>
<text text-anchor="middle" x="101.5" y="-156" font-family="Helvetica,sans-Serif" font-size="10.00">_manager.DB2Manager.execute_batch</text>
</a>
</g>
</g>
<!-- Node2 -->
<g id="Node000002" class="node">
<title>Node2</title>
<g id="a_Node000002"><a xlink:href="../../d6/d85/classcommonpython_1_1database_1_1db2__manager_1_1DB2Manager.html#ad0ab28d7036184db12445c789f9ce863" target="_top" xlink:title=" ">
<polygon fill="white" stroke="#666666" points="676.5,-264.5 500.5,-264.5 500.5,-223.5 676.5,-223.5 676.5,-264.5"/>
<text text-anchor="start" x="508.5" y="-252.5" font-family="Helvetica,sans-Serif" font-size="10.00">commonpython.database.db2</text>
<text text-anchor="start" x="508.5" y="-241.5" font-family="Helvetica,sans-Serif" font-size="10.00">_manager.DB2Manager._execute</text>
<text text-anchor="middle" x="588.5" y="-230.5" font-family="Helvetica,sans-Serif" font-size="10.00">_db2_command</text>
</a>
</g>
</g>
<!-- Node1&#45;&gt;Node2 -->
<g id="edge1_Node000001_Node000002" class="edge">
<title>Node1&#45;&gt;Node2</title>
<g id="a_edge1_Node000001_Node000002"><a xlink:title=" ">
<path fill="none" stroke="#63b8ff" d="M146.59,-179C173.09,-187.5 207.66,-197.66 239,-204 322.92,-220.98 419.77,-231.38 490.04,-237.3"/>
<polygon fill="#63b8ff" stroke="#63b8ff" points="489.95,-240.8 500.21,-238.14 490.53,-233.82 489.95,-240.8"/>
</a>
</g>
</g>
<!-- Node3 -->
<g id="Node000003" class="node">
<title>Node3</title>
<g id="a_Node000003"><a xlink:href="../../d6/d85/classcommonpython_1_1database_1_1db2__manager_1_1DB2Manager.html#a0d37e4a0c62f2474d75130bf59b59d26" target="_top" xlink:title=" ">
<polygon fill="white" stroke="#666666" points="449,-179 239,-179 239,-149 449,-149 449,-179"/>
<text text-anchor="start" x="247" y="-167" font-family="Helvetica,sans-Serif" font-size="10.00">commonpython.database.db2</text>
<text text-anchor="middle" x="344" y="-156" font-family="Helvetica,sans-Serif" font-size="10.00">_manager.DB2Manager.execute_update</text>
</a>
</g>
</g>
<!-- Node1&#45;&gt;Node3 -->
<g id="edge2_Node000001_Node000003" class="edge">
<title>Node1&#45;&gt;Node3</title>
<g id="a_edge2_Node000001_Node000003"><a xlink:title=" ">
<path fill="none" stroke="#63b8ff" d="M203.1,-164C211.61,-164 220.26,-164 228.86,-164"/>
<polygon fill="#63b8ff" stroke="#63b8ff" points="228.93,-167.5 238.93,-164 228.93,-160.5 228.93,-167.5"/>
</a>
</g>
</g>
<!-- Node4 -->
<g id="Node000004" class="node">
<title>Node4</title>
<g id="a_Node000004"><a xlink:href="../../d6/d85/classcommonpython_1_1database_1_1db2__manager_1_1DB2Manager.html#ae9d97b4b4535b05be8b744f32c4c14b3" target="_top" xlink:title=" ">
<polygon fill="white" stroke="#666666" points="669.5,-202.5 507.5,-202.5 507.5,-161.5 669.5,-161.5 669.5,-202.5"/>
<text text-anchor="start" x="515.5" y="-190.5" font-family="Helvetica,sans-Serif" font-size="10.00">commonpython.database.db2</text>
<text text-anchor="start" x="515.5" y="-179.5" font-family="Helvetica,sans-Serif" font-size="10.00">_manager.DB2Manager.is</text>
<text text-anchor="middle" x="588.5" y="-168.5" font-family="Helvetica,sans-Serif" font-size="10.00">_connected</text>
</a>
</g>
</g>
<!-- Node1&#45;&gt;Node4 -->
<g id="edge10_Node000001_Node000004" class="edge">
<title>Node1&#45;&gt;Node4</title>
<g id="a_edge10_Node000001_Node000004"><a xlink:title=" ">
<path fill="none" stroke="#63b8ff" d="M174.09,-179C194.93,-182.71 217.79,-186.15 239,-188 326.48,-195.63 426.76,-192.68 497.23,-188.7"/>
<polygon fill="#63b8ff" stroke="#63b8ff" points="497.62,-192.18 507.4,-188.1 497.21,-185.19 497.62,-192.18"/>
</a>
</g>
</g>
<!-- Node5 -->
<g id="Node000005" class="node">
<title>Node5</title>
<g id="a_Node000005"><a xlink:href="../../da/d7a/classcommonpython_1_1messaging_1_1mq__manager_1_1MQManager.html#a65be5e8c672869dfb55aee2f08e56395" target="_top" xlink:title=" ">
<polygon fill="white" stroke="#666666" points="685,-138 492,-138 492,-108 685,-108 685,-138"/>
<text text-anchor="start" x="500" y="-126" font-family="Helvetica,sans-Serif" font-size="10.00">commonpython.messaging.mq</text>
<text text-anchor="middle" x="588.5" y="-115" font-family="Helvetica,sans-Serif" font-size="10.00">_manager.MQManager.is_connected</text>
</a>
</g>
</g>
<!-- Node1&#45;&gt;Node5 -->
<g id="edge11_Node000001_Node000005" class="edge">
<title>Node1&#45;&gt;Node5</title>
<g id="a_edge11_Node000001_Node000005"><a xlink:title=" ">
<path fill="none" stroke="#63b8ff" d="M178.07,-148.97C197.83,-145.52 219.15,-142.22 239,-140 320.19,-130.92 412.56,-126.69 481.79,-124.72"/>
<polygon fill="#63b8ff" stroke="#63b8ff" points="481.94,-128.21 491.84,-124.44 481.74,-121.22 481.94,-128.21"/>
</a>
</g>
</g>
<!-- Node6 -->
<g id="Node000006" class="node">
<title>Node6</title>
<g id="a_Node000006"><a xlink:href="../../dd/dfd/classcommonpython_1_1framework_1_1component__base_1_1ComponentBase.html#a5f2976b6d101f240778bf68d83bc50e6" target="_top" xlink:title=" ">
<polygon fill="white" stroke="#666666" points="448.5,-75 239.5,-75 239.5,-45 448.5,-45 448.5,-75"/>
<text text-anchor="start" x="247.5" y="-63" font-family="Helvetica,sans-Serif" font-size="10.00">commonpython.framework.component</text>
<text text-anchor="middle" x="344" y="-52" font-family="Helvetica,sans-Serif" font-size="10.00">_base.ComponentBase.execute_update</text>
</a>
</g>
</g>
<!-- Node1&#45;&gt;Node6 -->
<g id="edge6_Node000001_Node000006" class="edge">
<title>Node1&#45;&gt;Node6</title>
<g id="a_edge6_Node000001_Node000006"><a xlink:title=" ">
<path fill="none" stroke="#63b8ff" d="M137.21,-148.99C179.93,-130.52 252.5,-99.13 299.06,-79"/>
<polygon fill="#63b8ff" stroke="#63b8ff" points="300.51,-82.19 308.3,-75.01 297.73,-75.76 300.51,-82.19"/>
</a>
</g>
</g>
<!-- Node3&#45;&gt;Node2 -->
<g id="edge3_Node000003_Node000002" class="edge">
<title>Node3&#45;&gt;Node2</title>
<g id="a_edge3_Node000003_Node000002"><a xlink:title=" ">
<path fill="none" stroke="#63b8ff" d="M387.79,-179.01C415.45,-188.64 452.28,-201.29 485,-212 493.46,-214.77 502.32,-217.62 511.15,-220.42"/>
<polygon fill="#63b8ff" stroke="#63b8ff" points="510.11,-223.76 520.7,-223.44 512.22,-217.09 510.11,-223.76"/>
</a>
</g>
</g>
<!-- Node3&#45;&gt;Node4 -->
<g id="edge4_Node000003_Node000004" class="edge">
<title>Node3&#45;&gt;Node4</title>
<g id="a_edge4_Node000003_Node000004"><a xlink:title=" ">
<path fill="none" stroke="#63b8ff" d="M449.25,-171.74C465.15,-172.92 481.45,-174.13 497.02,-175.28"/>
<polygon fill="#63b8ff" stroke="#63b8ff" points="496.91,-178.79 507.14,-176.04 497.43,-171.8 496.91,-178.79"/>
</a>
</g>
</g>
<!-- Node3&#45;&gt;Node5 -->
<g id="edge5_Node000003_Node000005" class="edge">
<title>Node3&#45;&gt;Node5</title>
<g id="a_edge5_Node000003_Node000005"><a xlink:title=" ">
<path fill="none" stroke="#63b8ff" d="M433.92,-148.97C451.71,-145.96 470.51,-142.78 488.61,-139.72"/>
<polygon fill="#63b8ff" stroke="#63b8ff" points="489.31,-143.15 498.59,-138.03 488.15,-136.25 489.31,-143.15"/>
</a>
</g>
</g>
<!-- Node6&#45;&gt;Node6 -->
<g id="edge7_Node000006_Node000006" class="edge">
<title>Node6&#45;&gt;Node6</title>
<g id="a_edge7_Node000006_Node000006"><a xlink:title=" ">
<path fill="none" stroke="#63b8ff" d="M301.46,-75.28C292.01,-84.41 306.19,-93 344,-93 366.45,-93 380.57,-89.97 386.36,-85.6"/>
<polygon fill="#63b8ff" stroke="#63b8ff" points="389.86,-85.33 386.54,-75.28 382.87,-85.21 389.86,-85.33"/>
</a>
</g>
</g>
<!-- Node7 -->
<g id="Node000007" class="node">
<title>Node7</title>
<g id="a_Node000007"><a xlink:href="../../dd/dfd/classcommonpython_1_1framework_1_1component__base_1_1ComponentBase.html#a52cf5bc5fef500fcb0ec6a1147f5090c" target="_top" xlink:title=" ">
<polygon fill="white" stroke="#666666" points="692,-30 485,-30 485,0 692,0 692,-30"/>
<text text-anchor="start" x="493" y="-18" font-family="Helvetica,sans-Serif" font-size="10.00">commonpython.framework.component</text>
<text text-anchor="middle" x="588.5" y="-7" font-family="Helvetica,sans-Serif" font-size="10.00">_base.ComponentBase.log_error</text>
</a>
</g>
</g>
<!-- Node6&#45;&gt;Node7 -->
<g id="edge8_Node000006_Node000007" class="edge">
<title>Node6&#45;&gt;Node7</title>
<g id="a_edge8_Node000006_Node000007"><a xlink:title=" ">
<path fill="none" stroke="#63b8ff" d="M426.09,-44.95C448.63,-40.77 473.27,-36.2 496.36,-31.91"/>
<polygon fill="#63b8ff" stroke="#63b8ff" points="497.3,-35.3 506.49,-30.03 496.02,-28.42 497.3,-35.3"/>
</a>
</g>
</g>
<!-- Node8 -->
<g id="Node000008" class="node">
<title>Node8</title>
<g id="a_Node000008"><a xlink:href="../../dd/dfd/classcommonpython_1_1framework_1_1component__base_1_1ComponentBase.html#aeb18efa5983399481ec92169a058ba9d" target="_top" xlink:title=" ">
<polygon fill="white" stroke="#666666" points="692,-78 485,-78 485,-48 692,-48 692,-78"/>
<text text-anchor="start" x="493" y="-66" font-family="Helvetica,sans-Serif" font-size="10.00">commonpython.framework.component</text>
<text text-anchor="middle" x="588.5" y="-55" font-family="Helvetica,sans-Serif" font-size="10.00">_base.ComponentBase.log_info</text>
</a>
</g>
</g>
<!-- Node6&#45;&gt;Node8 -->
<g id="edge9_Node000006_Node000008" class="edge">
<title>Node6&#45;&gt;Node8</title>
<g id="a_edge9_Node000006_Node000008"><a xlink:title=" ">
<path fill="none" stroke="#63b8ff" d="M448.55,-61.28C457.15,-61.39 465.88,-61.5 474.55,-61.6"/>
<polygon fill="#63b8ff" stroke="#63b8ff" points="474.64,-65.1 484.69,-61.73 474.73,-58.1 474.64,-65.1"/>
</a>
</g>
</g>
</g>
</svg>
