<?xml version="1.0" encoding="UTF-8" standalone="no"?>
<!DOCTYPE svg PUBLIC "-//W3C//DTD SVG 1.1//EN"
 "http://www.w3.org/Graphics/SVG/1.1/DTD/svg11.dtd">
<!-- Generated by graphviz version 2.43.0 (0)
 -->
<!-- Title: commonpython.database.db2_manager.DB2Manager.execute_query Pages: 1 -->
<svg width="441pt" height="216pt"
 viewBox="0.00 0.00 441.00 215.50" xmlns="http://www.w3.org/2000/svg" xmlns:xlink="http://www.w3.org/1999/xlink">
<g id="graph0" class="graph" transform="scale(1 1) rotate(0) translate(4 211.5)">
<title>commonpython.database.db2_manager.DB2Manager.execute_query</title>
<!-- Node1 -->
<g id="Node000001" class="node">
<title>Node1</title>
<g id="a_Node000001"><a xlink:title=" ">
<polygon fill="#999999" stroke="#666666" points="204,-113 0,-113 0,-83 204,-83 204,-113"/>
<text text-anchor="start" x="8" y="-101" font-family="Helvetica,sans-Serif" font-size="10.00">commonpython.database.db2</text>
<text text-anchor="middle" x="102" y="-90" font-family="Helvetica,sans-Serif" font-size="10.00">_manager.DB2Manager.execute_query</text>
</a>
</g>
</g>
<!-- Node2 -->
<g id="Node000002" class="node">
<title>Node2</title>
<g id="a_Node000002"><a xlink:href="../../d6/d85/classcommonpython_1_1database_1_1db2__manager_1_1DB2Manager.html#ad0ab28d7036184db12445c789f9ce863" target="_top" xlink:title=" ">
<polygon fill="white" stroke="#666666" points="424.5,-207.5 248.5,-207.5 248.5,-166.5 424.5,-166.5 424.5,-207.5"/>
<text text-anchor="start" x="256.5" y="-195.5" font-family="Helvetica,sans-Serif" font-size="10.00">commonpython.database.db2</text>
<text text-anchor="start" x="256.5" y="-184.5" font-family="Helvetica,sans-Serif" font-size="10.00">_manager.DB2Manager._execute</text>
<text text-anchor="middle" x="336.5" y="-173.5" font-family="Helvetica,sans-Serif" font-size="10.00">_db2_command</text>
</a>
</g>
</g>
<!-- Node1&#45;&gt;Node2 -->
<g id="edge1_Node000001_Node000002" class="edge">
<title>Node1&#45;&gt;Node2</title>
<g id="a_edge1_Node000001_Node000002"><a xlink:title=" ">
<path fill="none" stroke="#63b8ff" d="M134.4,-113.02C161.89,-125.86 203.1,-144.37 240,-158 244.8,-159.77 249.77,-161.53 254.8,-163.24"/>
<polygon fill="#63b8ff" stroke="#63b8ff" points="253.93,-166.63 264.52,-166.47 256.14,-159.99 253.93,-166.63"/>
</a>
</g>
</g>
<!-- Node3 -->
<g id="Node000003" class="node">
<title>Node3</title>
<g id="a_Node000003"><a xlink:href="../../d6/d85/classcommonpython_1_1database_1_1db2__manager_1_1DB2Manager.html#a600c3939e3c39796bf62a2798435c210" target="_top" xlink:title=" ">
<polygon fill="white" stroke="#666666" points="419,-148.5 254,-148.5 254,-107.5 419,-107.5 419,-148.5"/>
<text text-anchor="start" x="262" y="-136.5" font-family="Helvetica,sans-Serif" font-size="10.00">commonpython.database.db2</text>
<text text-anchor="start" x="262" y="-125.5" font-family="Helvetica,sans-Serif" font-size="10.00">_manager.DB2Manager._parse</text>
<text text-anchor="middle" x="336.5" y="-114.5" font-family="Helvetica,sans-Serif" font-size="10.00">_csv_results</text>
</a>
</g>
</g>
<!-- Node1&#45;&gt;Node3 -->
<g id="edge2_Node000001_Node000003" class="edge">
<title>Node1&#45;&gt;Node3</title>
<g id="a_edge2_Node000001_Node000003"><a xlink:title=" ">
<path fill="none" stroke="#63b8ff" d="M204.3,-111.07C217.34,-112.75 230.63,-114.47 243.5,-116.13"/>
<polygon fill="#63b8ff" stroke="#63b8ff" points="243.36,-119.64 253.73,-117.45 244.26,-112.7 243.36,-119.64"/>
</a>
</g>
</g>
<!-- Node4 -->
<g id="Node000004" class="node">
<title>Node4</title>
<g id="a_Node000004"><a xlink:href="../../d6/d85/classcommonpython_1_1database_1_1db2__manager_1_1DB2Manager.html#ae9d97b4b4535b05be8b744f32c4c14b3" target="_top" xlink:title=" ">
<polygon fill="white" stroke="#666666" points="417.5,-89.5 255.5,-89.5 255.5,-48.5 417.5,-48.5 417.5,-89.5"/>
<text text-anchor="start" x="263.5" y="-77.5" font-family="Helvetica,sans-Serif" font-size="10.00">commonpython.database.db2</text>
<text text-anchor="start" x="263.5" y="-66.5" font-family="Helvetica,sans-Serif" font-size="10.00">_manager.DB2Manager.is</text>
<text text-anchor="middle" x="336.5" y="-55.5" font-family="Helvetica,sans-Serif" font-size="10.00">_connected</text>
</a>
</g>
</g>
<!-- Node1&#45;&gt;Node4 -->
<g id="edge3_Node000001_Node000004" class="edge">
<title>Node1&#45;&gt;Node4</title>
<g id="a_edge3_Node000001_Node000004"><a xlink:title=" ">
<path fill="none" stroke="#63b8ff" d="M204.3,-85.36C217.95,-83.66 231.89,-81.92 245.33,-80.25"/>
<polygon fill="#63b8ff" stroke="#63b8ff" points="246.01,-83.69 255.5,-78.98 245.14,-76.74 246.01,-83.69"/>
</a>
</g>
</g>
<!-- Node5 -->
<g id="Node000005" class="node">
<title>Node5</title>
<g id="a_Node000005"><a xlink:href="../../da/d7a/classcommonpython_1_1messaging_1_1mq__manager_1_1MQManager.html#a65be5e8c672869dfb55aee2f08e56395" target="_top" xlink:title=" ">
<polygon fill="white" stroke="#666666" points="433,-30 240,-30 240,0 433,0 433,-30"/>
<text text-anchor="start" x="248" y="-18" font-family="Helvetica,sans-Serif" font-size="10.00">commonpython.messaging.mq</text>
<text text-anchor="middle" x="336.5" y="-7" font-family="Helvetica,sans-Serif" font-size="10.00">_manager.MQManager.is_connected</text>
</a>
</g>
</g>
<!-- Node1&#45;&gt;Node5 -->
<g id="edge4_Node000001_Node000005" class="edge">
<title>Node1&#45;&gt;Node5</title>
<g id="a_edge4_Node000001_Node000005"><a xlink:title=" ">
<path fill="none" stroke="#63b8ff" d="M134.88,-82.95C162.32,-70.37 203.2,-52.53 240,-40 247.36,-37.49 255.11,-35.09 262.87,-32.83"/>
<polygon fill="#63b8ff" stroke="#63b8ff" points="264.03,-36.15 272.7,-30.06 262.12,-29.41 264.03,-36.15"/>
</a>
</g>
</g>
</g>
</svg>
