<?xml version="1.0" encoding="UTF-8" standalone="no"?>
<!DOCTYPE svg PUBLIC "-//W3C//DTD SVG 1.1//EN"
 "http://www.w3.org/Graphics/SVG/1.1/DTD/svg11.dtd">
<!-- Generated by graphviz version 2.43.0 (0)
 -->
<!-- Title: commonpython.database.db2_manager.DB2Manager.test_connection Pages: 1 -->
<svg width="656pt" height="408pt"
 viewBox="0.00 0.00 656.00 408.00" xmlns="http://www.w3.org/2000/svg" xmlns:xlink="http://www.w3.org/1999/xlink">
<g id="graph0" class="graph" transform="scale(1 1) rotate(0) translate(4 404)">
<title>commonpython.database.db2_manager.DB2Manager.test_connection</title>
<!-- Node1 -->
<g id="Node000001" class="node">
<title>Node1</title>
<g id="a_Node000001"><a xlink:title=" ">
<polygon fill="#999999" stroke="#666666" points="162,-214.5 0,-214.5 0,-173.5 162,-173.5 162,-214.5"/>
<text text-anchor="start" x="8" y="-202.5" font-family="Helvetica,sans-Serif" font-size="10.00">commonpython.database.db2</text>
<text text-anchor="start" x="8" y="-191.5" font-family="Helvetica,sans-Serif" font-size="10.00">_manager.DB2Manager.test</text>
<text text-anchor="middle" x="81" y="-180.5" font-family="Helvetica,sans-Serif" font-size="10.00">_connection</text>
</a>
</g>
</g>
<!-- Node2 -->
<g id="Node000002" class="node">
<title>Node2</title>
<g id="a_Node000002"><a xlink:href="../../d6/dd2/classcommonpython_1_1cli_1_1cli_1_1CLI.html#a6f385c3d725bfb3c1a901c7d702627e0" target="_top" xlink:title=" ">
<polygon fill="white" stroke="#666666" points="392,-352 211,-352 211,-322 392,-322 392,-352"/>
<text text-anchor="start" x="219" y="-340" font-family="Helvetica,sans-Serif" font-size="10.00">commonpython.cli.cli.CLI.execute</text>
<text text-anchor="middle" x="301.5" y="-329" font-family="Helvetica,sans-Serif" font-size="10.00">_query</text>
</a>
</g>
</g>
<!-- Node1&#45;&gt;Node2 -->
<g id="edge1_Node000001_Node000002" class="edge">
<title>Node1&#45;&gt;Node2</title>
<g id="a_edge1_Node000001_Node000002"><a xlink:title=" ">
<path fill="none" stroke="#63b8ff" d="M113.77,-214.79C155.23,-241.93 227.37,-289.14 268.8,-316.25"/>
<polygon fill="#63b8ff" stroke="#63b8ff" points="267.11,-319.33 277.39,-321.88 270.94,-313.47 267.11,-319.33"/>
</a>
</g>
</g>
<!-- Node5 -->
<g id="Node000005" class="node">
<title>Node5</title>
<g id="a_Node000005"><a xlink:href="../../d6/d85/classcommonpython_1_1database_1_1db2__manager_1_1DB2Manager.html#a5ca23607d6391b8a38abf654c4b8884b" target="_top" xlink:title=" ">
<polygon fill="white" stroke="#666666" points="403.5,-209 199.5,-209 199.5,-179 403.5,-179 403.5,-209"/>
<text text-anchor="start" x="207.5" y="-197" font-family="Helvetica,sans-Serif" font-size="10.00">commonpython.database.db2</text>
<text text-anchor="middle" x="301.5" y="-186" font-family="Helvetica,sans-Serif" font-size="10.00">_manager.DB2Manager.execute_query</text>
</a>
</g>
</g>
<!-- Node1&#45;&gt;Node5 -->
<g id="edge5_Node000001_Node000005" class="edge">
<title>Node1&#45;&gt;Node5</title>
<g id="a_edge5_Node000001_Node000005"><a xlink:title=" ">
<path fill="none" stroke="#63b8ff" d="M162.12,-194C170.88,-194 179.91,-194 188.96,-194"/>
<polygon fill="#63b8ff" stroke="#63b8ff" points="189.18,-197.5 199.18,-194 189.18,-190.5 189.18,-197.5"/>
</a>
</g>
</g>
<!-- Node10 -->
<g id="Node000010" class="node">
<title>Node10</title>
<g id="a_Node000010"><a xlink:href="../../dd/dfd/classcommonpython_1_1framework_1_1component__base_1_1ComponentBase.html#a2f8bbb65ba07035c8ee79882d95d7238" target="_top" xlink:title=" ">
<polygon fill="white" stroke="#666666" points="405,-78 198,-78 198,-48 405,-48 405,-78"/>
<text text-anchor="start" x="206" y="-66" font-family="Helvetica,sans-Serif" font-size="10.00">commonpython.framework.component</text>
<text text-anchor="middle" x="301.5" y="-55" font-family="Helvetica,sans-Serif" font-size="10.00">_base.ComponentBase.execute_query</text>
</a>
</g>
</g>
<!-- Node1&#45;&gt;Node10 -->
<g id="edge10_Node000001_Node000010" class="edge">
<title>Node1&#45;&gt;Node10</title>
<g id="a_edge10_Node000001_Node000010"><a xlink:title=" ">
<path fill="none" stroke="#63b8ff" d="M116.62,-173.24C157.68,-148.63 225.67,-107.86 266.47,-83.4"/>
<polygon fill="#63b8ff" stroke="#63b8ff" points="268.46,-86.29 275.24,-78.15 264.86,-80.29 268.46,-86.29"/>
</a>
</g>
</g>
<!-- Node2&#45;&gt;Node2 -->
<g id="edge4_Node000002_Node000002" class="edge">
<title>Node2&#45;&gt;Node2</title>
<g id="a_edge4_Node000002_Node000002"><a xlink:title=" ">
<path fill="none" stroke="#63b8ff" d="M262.83,-352.28C254.23,-361.41 267.12,-370 301.5,-370 321.91,-370 334.75,-366.97 340.01,-362.6"/>
<polygon fill="#63b8ff" stroke="#63b8ff" points="343.51,-362.33 340.17,-352.28 336.51,-362.22 343.51,-362.33"/>
</a>
</g>
</g>
<!-- Node3 -->
<g id="Node000003" class="node">
<title>Node3</title>
<g id="a_Node000003"><a xlink:href="../../d6/dd2/classcommonpython_1_1cli_1_1cli_1_1CLI.html#ae6928d446a98c9c86e7435eb46d842e3" target="_top" xlink:title=" ">
<polygon fill="white" stroke="#666666" points="616,-400 473,-400 473,-370 616,-370 616,-400"/>
<text text-anchor="start" x="481" y="-388" font-family="Helvetica,sans-Serif" font-size="10.00">commonpython.cli.cli.CLI.</text>
<text text-anchor="middle" x="544.5" y="-377" font-family="Helvetica,sans-Serif" font-size="10.00">_display_results</text>
</a>
</g>
</g>
<!-- Node2&#45;&gt;Node3 -->
<g id="edge2_Node000002_Node000003" class="edge">
<title>Node2&#45;&gt;Node3</title>
<g id="a_edge2_Node000002_Node000003"><a xlink:title=" ">
<path fill="none" stroke="#63b8ff" d="M378.09,-352.06C405.02,-357.42 435.43,-363.48 462.77,-368.92"/>
<polygon fill="#63b8ff" stroke="#63b8ff" points="462.2,-372.38 472.69,-370.9 463.57,-365.51 462.2,-372.38"/>
</a>
</g>
</g>
<!-- Node4 -->
<g id="Node000004" class="node">
<title>Node4</title>
<g id="a_Node000004"><a xlink:href="../../d6/dd2/classcommonpython_1_1cli_1_1cli_1_1CLI.html#af44ec25e783d6ebcc3674731d3d10f75" target="_top" xlink:title=" ">
<polygon fill="white" stroke="#666666" points="616,-352 473,-352 473,-322 616,-322 616,-352"/>
<text text-anchor="start" x="481" y="-340" font-family="Helvetica,sans-Serif" font-size="10.00">commonpython.cli.cli.CLI.</text>
<text text-anchor="middle" x="544.5" y="-329" font-family="Helvetica,sans-Serif" font-size="10.00">_setup_database</text>
</a>
</g>
</g>
<!-- Node2&#45;&gt;Node4 -->
<g id="edge3_Node000002_Node000004" class="edge">
<title>Node2&#45;&gt;Node4</title>
<g id="a_edge3_Node000002_Node000004"><a xlink:title=" ">
<path fill="none" stroke="#63b8ff" d="M392.24,-337C415.33,-337 440.04,-337 462.66,-337"/>
<polygon fill="#63b8ff" stroke="#63b8ff" points="462.89,-340.5 472.89,-337 462.89,-333.5 462.89,-340.5"/>
</a>
</g>
</g>
<!-- Node6 -->
<g id="Node000006" class="node">
<title>Node6</title>
<g id="a_Node000006"><a xlink:href="../../d6/d85/classcommonpython_1_1database_1_1db2__manager_1_1DB2Manager.html#ad0ab28d7036184db12445c789f9ce863" target="_top" xlink:title=" ">
<polygon fill="white" stroke="#666666" points="632.5,-303.5 456.5,-303.5 456.5,-262.5 632.5,-262.5 632.5,-303.5"/>
<text text-anchor="start" x="464.5" y="-291.5" font-family="Helvetica,sans-Serif" font-size="10.00">commonpython.database.db2</text>
<text text-anchor="start" x="464.5" y="-280.5" font-family="Helvetica,sans-Serif" font-size="10.00">_manager.DB2Manager._execute</text>
<text text-anchor="middle" x="544.5" y="-269.5" font-family="Helvetica,sans-Serif" font-size="10.00">_db2_command</text>
</a>
</g>
</g>
<!-- Node5&#45;&gt;Node6 -->
<g id="edge6_Node000005_Node000006" class="edge">
<title>Node5&#45;&gt;Node6</title>
<g id="a_edge6_Node000005_Node000006"><a xlink:title=" ">
<path fill="none" stroke="#63b8ff" d="M333.92,-209.04C361.69,-221.99 403.48,-240.63 441,-254 446.17,-255.84 451.52,-257.65 456.94,-259.4"/>
<polygon fill="#63b8ff" stroke="#63b8ff" points="456.15,-262.82 466.74,-262.49 458.26,-256.15 456.15,-262.82"/>
</a>
</g>
</g>
<!-- Node7 -->
<g id="Node000007" class="node">
<title>Node7</title>
<g id="a_Node000007"><a xlink:href="../../d6/d85/classcommonpython_1_1database_1_1db2__manager_1_1DB2Manager.html#a600c3939e3c39796bf62a2798435c210" target="_top" xlink:title=" ">
<polygon fill="white" stroke="#666666" points="627,-244.5 462,-244.5 462,-203.5 627,-203.5 627,-244.5"/>
<text text-anchor="start" x="470" y="-232.5" font-family="Helvetica,sans-Serif" font-size="10.00">commonpython.database.db2</text>
<text text-anchor="start" x="470" y="-221.5" font-family="Helvetica,sans-Serif" font-size="10.00">_manager.DB2Manager._parse</text>
<text text-anchor="middle" x="544.5" y="-210.5" font-family="Helvetica,sans-Serif" font-size="10.00">_csv_results</text>
</a>
</g>
</g>
<!-- Node5&#45;&gt;Node7 -->
<g id="edge7_Node000005_Node000007" class="edge">
<title>Node5&#45;&gt;Node7</title>
<g id="a_edge7_Node000005_Node000007"><a xlink:title=" ">
<path fill="none" stroke="#63b8ff" d="M403.66,-206.59C419.61,-208.58 436.03,-210.62 451.76,-212.58"/>
<polygon fill="#63b8ff" stroke="#63b8ff" points="451.63,-216.09 461.98,-213.85 452.49,-209.14 451.63,-216.09"/>
</a>
</g>
</g>
<!-- Node8 -->
<g id="Node000008" class="node">
<title>Node8</title>
<g id="a_Node000008"><a xlink:href="../../d6/d85/classcommonpython_1_1database_1_1db2__manager_1_1DB2Manager.html#ae9d97b4b4535b05be8b744f32c4c14b3" target="_top" xlink:title=" ">
<polygon fill="white" stroke="#666666" points="625.5,-185.5 463.5,-185.5 463.5,-144.5 625.5,-144.5 625.5,-185.5"/>
<text text-anchor="start" x="471.5" y="-173.5" font-family="Helvetica,sans-Serif" font-size="10.00">commonpython.database.db2</text>
<text text-anchor="start" x="471.5" y="-162.5" font-family="Helvetica,sans-Serif" font-size="10.00">_manager.DB2Manager.is</text>
<text text-anchor="middle" x="544.5" y="-151.5" font-family="Helvetica,sans-Serif" font-size="10.00">_connected</text>
</a>
</g>
</g>
<!-- Node5&#45;&gt;Node8 -->
<g id="edge8_Node000005_Node000008" class="edge">
<title>Node5&#45;&gt;Node8</title>
<g id="a_edge8_Node000005_Node000008"><a xlink:title=" ">
<path fill="none" stroke="#63b8ff" d="M403.66,-181.83C420.19,-179.84 437.23,-177.79 453.47,-175.83"/>
<polygon fill="#63b8ff" stroke="#63b8ff" points="453.96,-179.3 463.47,-174.63 453.12,-172.35 453.96,-179.3"/>
</a>
</g>
</g>
<!-- Node9 -->
<g id="Node000009" class="node">
<title>Node9</title>
<g id="a_Node000009"><a xlink:href="../../da/d7a/classcommonpython_1_1messaging_1_1mq__manager_1_1MQManager.html#a65be5e8c672869dfb55aee2f08e56395" target="_top" xlink:title=" ">
<polygon fill="white" stroke="#666666" points="641,-126 448,-126 448,-96 641,-96 641,-126"/>
<text text-anchor="start" x="456" y="-114" font-family="Helvetica,sans-Serif" font-size="10.00">commonpython.messaging.mq</text>
<text text-anchor="middle" x="544.5" y="-103" font-family="Helvetica,sans-Serif" font-size="10.00">_manager.MQManager.is_connected</text>
</a>
</g>
</g>
<!-- Node5&#45;&gt;Node9 -->
<g id="edge9_Node000005_Node000009" class="edge">
<title>Node5&#45;&gt;Node9</title>
<g id="a_edge9_Node000005_Node000009"><a xlink:title=" ">
<path fill="none" stroke="#63b8ff" d="M334.42,-178.94C362.14,-166.27 403.61,-148.3 441,-136 448.88,-133.41 457.18,-130.95 465.5,-128.66"/>
<polygon fill="#63b8ff" stroke="#63b8ff" points="466.5,-132.02 475.26,-126.05 464.69,-125.25 466.5,-132.02"/>
</a>
</g>
</g>
<!-- Node10&#45;&gt;Node10 -->
<g id="edge11_Node000010_Node000010" class="edge">
<title>Node10&#45;&gt;Node10</title>
<g id="a_edge11_Node000010_Node000010"><a xlink:title=" ">
<path fill="none" stroke="#63b8ff" d="M262.83,-78.28C254.23,-87.41 267.12,-96 301.5,-96 321.91,-96 334.75,-92.97 340.01,-88.6"/>
<polygon fill="#63b8ff" stroke="#63b8ff" points="343.51,-88.33 340.17,-78.28 336.51,-88.22 343.51,-88.33"/>
</a>
</g>
</g>
<!-- Node11 -->
<g id="Node000011" class="node">
<title>Node11</title>
<g id="a_Node000011"><a xlink:href="../../dd/dfd/classcommonpython_1_1framework_1_1component__base_1_1ComponentBase.html#a52cf5bc5fef500fcb0ec6a1147f5090c" target="_top" xlink:title=" ">
<polygon fill="white" stroke="#666666" points="648,-78 441,-78 441,-48 648,-48 648,-78"/>
<text text-anchor="start" x="449" y="-66" font-family="Helvetica,sans-Serif" font-size="10.00">commonpython.framework.component</text>
<text text-anchor="middle" x="544.5" y="-55" font-family="Helvetica,sans-Serif" font-size="10.00">_base.ComponentBase.log_error</text>
</a>
</g>
</g>
<!-- Node10&#45;&gt;Node11 -->
<g id="edge12_Node000010_Node000011" class="edge">
<title>Node10&#45;&gt;Node11</title>
<g id="a_edge12_Node000010_Node000011"><a xlink:title=" ">
<path fill="none" stroke="#63b8ff" d="M405.06,-63C413.43,-63 421.93,-63 430.38,-63"/>
<polygon fill="#63b8ff" stroke="#63b8ff" points="430.65,-66.5 440.65,-63 430.65,-59.5 430.65,-66.5"/>
</a>
</g>
</g>
<!-- Node12 -->
<g id="Node000012" class="node">
<title>Node12</title>
<g id="a_Node000012"><a xlink:href="../../dd/dfd/classcommonpython_1_1framework_1_1component__base_1_1ComponentBase.html#aeb18efa5983399481ec92169a058ba9d" target="_top" xlink:title=" ">
<polygon fill="white" stroke="#666666" points="648,-30 441,-30 441,0 648,0 648,-30"/>
<text text-anchor="start" x="449" y="-18" font-family="Helvetica,sans-Serif" font-size="10.00">commonpython.framework.component</text>
<text text-anchor="middle" x="544.5" y="-7" font-family="Helvetica,sans-Serif" font-size="10.00">_base.ComponentBase.log_info</text>
</a>
</g>
</g>
<!-- Node10&#45;&gt;Node12 -->
<g id="edge13_Node000010_Node000012" class="edge">
<title>Node10&#45;&gt;Node12</title>
<g id="a_edge13_Node000010_Node000012"><a xlink:title=" ">
<path fill="none" stroke="#63b8ff" d="M378.09,-47.94C403.55,-42.87 432.13,-37.18 458.28,-31.97"/>
<polygon fill="#63b8ff" stroke="#63b8ff" points="459.05,-35.39 468.18,-30 457.68,-28.52 459.05,-35.39"/>
</a>
</g>
</g>
</g>
</svg>
