<?xml version="1.0" encoding="UTF-8" standalone="no"?>
<!DOCTYPE svg PUBLIC "-//W3C//DTD SVG 1.1//EN"
 "http://www.w3.org/Graphics/SVG/1.1/DTD/svg11.dtd">
<!-- Generated by graphviz version 2.43.0 (0)
 -->
<!-- Title: commonpython.database.db2_manager.DB2Manager._execute_db2_command Pages: 1 -->
<svg width="669pt" height="307pt"
 viewBox="0.00 0.00 669.00 306.50" xmlns="http://www.w3.org/2000/svg" xmlns:xlink="http://www.w3.org/1999/xlink">
<g id="graph0" class="graph" transform="scale(1 1) rotate(0) translate(4 302.5)">
<title>commonpython.database.db2_manager.DB2Manager._execute_db2_command</title>
<!-- Node1 -->
<g id="Node000001" class="node">
<title>Node1</title>
<g id="a_Node000001"><a xlink:title=" ">
<polygon fill="#999999" stroke="#666666" points="661,-191 485,-191 485,-150 661,-150 661,-191"/>
<text text-anchor="start" x="493" y="-179" font-family="Helvetica,sans-Serif" font-size="10.00">commonpython.database.db2</text>
<text text-anchor="start" x="493" y="-168" font-family="Helvetica,sans-Serif" font-size="10.00">_manager.DB2Manager._execute</text>
<text text-anchor="middle" x="573" y="-157" font-family="Helvetica,sans-Serif" font-size="10.00">_db2_command</text>
</a>
</g>
</g>
<!-- Node2 -->
<g id="Node000002" class="node">
<title>Node2</title>
<g id="a_Node000002"><a xlink:href="../../d6/d85/classcommonpython_1_1database_1_1db2__manager_1_1DB2Manager.html#a667d3f82ae813c1625bdb6c82044d6ab" target="_top" xlink:title=" ">
<polygon fill="white" stroke="#666666" points="429.5,-298.5 258.5,-298.5 258.5,-268.5 429.5,-268.5 429.5,-298.5"/>
<text text-anchor="start" x="266.5" y="-286.5" font-family="Helvetica,sans-Serif" font-size="10.00">commonpython.database.db2</text>
<text text-anchor="middle" x="344" y="-275.5" font-family="Helvetica,sans-Serif" font-size="10.00">_manager.DB2Manager.connect</text>
</a>
</g>
</g>
<!-- Node1&#45;&gt;Node2 -->
<g id="edge1_Node000001_Node000002" class="edge">
<title>Node1&#45;&gt;Node2</title>
<g id="a_edge1_Node000001_Node000002"><a xlink:title=" ">
<path fill="none" stroke="#63b8ff" d="M541.38,-198.05C517.73,-217.92 483.34,-243.89 449,-259.5 441.41,-262.95 433.27,-265.93 425.02,-268.5"/>
<polygon fill="#63b8ff" stroke="#63b8ff" points="543.95,-200.45 549.28,-191.3 539.4,-195.13 543.95,-200.45"/>
</a>
</g>
</g>
<!-- Node3 -->
<g id="Node000003" class="node">
<title>Node3</title>
<g id="a_Node000003"><a xlink:href="../../d6/d85/classcommonpython_1_1database_1_1db2__manager_1_1DB2Manager.html#ae1baf83ec876a18dbd80d445d39641c3" target="_top" xlink:title=" ">
<polygon fill="white" stroke="#666666" points="436.5,-250.5 251.5,-250.5 251.5,-220.5 436.5,-220.5 436.5,-250.5"/>
<text text-anchor="start" x="259.5" y="-238.5" font-family="Helvetica,sans-Serif" font-size="10.00">commonpython.database.db2</text>
<text text-anchor="middle" x="344" y="-227.5" font-family="Helvetica,sans-Serif" font-size="10.00">_manager.DB2Manager.disconnect</text>
</a>
</g>
</g>
<!-- Node1&#45;&gt;Node3 -->
<g id="edge2_Node000001_Node000003" class="edge">
<title>Node1&#45;&gt;Node3</title>
<g id="a_edge2_Node000001_Node000003"><a xlink:title=" ">
<path fill="none" stroke="#63b8ff" d="M492.52,-193.92C478.05,-198.14 463.08,-202.48 449,-206.5 432.96,-211.08 415.5,-215.99 399.55,-220.43"/>
<polygon fill="#63b8ff" stroke="#63b8ff" points="493.82,-197.19 502.44,-191.03 491.86,-190.47 493.82,-197.19"/>
</a>
</g>
</g>
<!-- Node4 -->
<g id="Node000004" class="node">
<title>Node4</title>
<g id="a_Node000004"><a xlink:href="../../d6/d85/classcommonpython_1_1database_1_1db2__manager_1_1DB2Manager.html#a7db48a3010e6fc0df8ead73c99d3b70a" target="_top" xlink:title=" ">
<polygon fill="white" stroke="#666666" points="203,-207.5 0,-207.5 0,-177.5 203,-177.5 203,-207.5"/>
<text text-anchor="start" x="8" y="-195.5" font-family="Helvetica,sans-Serif" font-size="10.00">commonpython.database.db2</text>
<text text-anchor="middle" x="101.5" y="-184.5" font-family="Helvetica,sans-Serif" font-size="10.00">_manager.DB2Manager.execute_batch</text>
</a>
</g>
</g>
<!-- Node1&#45;&gt;Node4 -->
<g id="edge3_Node000001_Node000004" class="edge">
<title>Node1&#45;&gt;Node4</title>
<g id="a_edge3_Node000001_Node000004"><a xlink:title=" ">
<path fill="none" stroke="#63b8ff" d="M474.78,-175.06C395.34,-178.78 283.44,-184.02 203.1,-187.79"/>
<polygon fill="#63b8ff" stroke="#63b8ff" points="474.97,-178.55 484.79,-174.59 474.64,-171.56 474.97,-178.55"/>
</a>
</g>
</g>
<!-- Node5 -->
<g id="Node000005" class="node">
<title>Node5</title>
<g id="a_Node000005"><a xlink:href="../../d6/d85/classcommonpython_1_1database_1_1db2__manager_1_1DB2Manager.html#a5ca23607d6391b8a38abf654c4b8884b" target="_top" xlink:title=" ">
<polygon fill="white" stroke="#666666" points="446,-116.5 242,-116.5 242,-86.5 446,-86.5 446,-116.5"/>
<text text-anchor="start" x="250" y="-104.5" font-family="Helvetica,sans-Serif" font-size="10.00">commonpython.database.db2</text>
<text text-anchor="middle" x="344" y="-93.5" font-family="Helvetica,sans-Serif" font-size="10.00">_manager.DB2Manager.execute_query</text>
</a>
</g>
</g>
<!-- Node1&#45;&gt;Node5 -->
<g id="edge4_Node000001_Node000005" class="edge">
<title>Node1&#45;&gt;Node5</title>
<g id="a_edge4_Node000001_Node000005"><a xlink:title=" ">
<path fill="none" stroke="#63b8ff" d="M510.71,-146.38C491.16,-139.15 469.32,-131.54 449,-125.5 438.25,-122.31 426.78,-119.28 415.52,-116.53"/>
<polygon fill="#63b8ff" stroke="#63b8ff" points="509.52,-149.67 520.11,-149.9 511.97,-143.11 509.52,-149.67"/>
</a>
</g>
</g>
<!-- Node9 -->
<g id="Node000009" class="node">
<title>Node9</title>
<g id="a_Node000009"><a xlink:href="../../d6/d85/classcommonpython_1_1database_1_1db2__manager_1_1DB2Manager.html#a0d37e4a0c62f2474d75130bf59b59d26" target="_top" xlink:title=" ">
<polygon fill="white" stroke="#666666" points="449,-164.5 239,-164.5 239,-134.5 449,-134.5 449,-164.5"/>
<text text-anchor="start" x="247" y="-152.5" font-family="Helvetica,sans-Serif" font-size="10.00">commonpython.database.db2</text>
<text text-anchor="middle" x="344" y="-141.5" font-family="Helvetica,sans-Serif" font-size="10.00">_manager.DB2Manager.execute_update</text>
</a>
</g>
</g>
<!-- Node1&#45;&gt;Node9 -->
<g id="edge8_Node000001_Node000009" class="edge">
<title>Node1&#45;&gt;Node9</title>
<g id="a_edge8_Node000001_Node000009"><a xlink:title=" ">
<path fill="none" stroke="#63b8ff" d="M474.72,-161.5C466.32,-160.72 457.8,-159.94 449.35,-159.15"/>
<polygon fill="#63b8ff" stroke="#63b8ff" points="474.61,-165 484.89,-162.44 475.25,-158.03 474.61,-165"/>
</a>
</g>
</g>
<!-- Node10 -->
<g id="Node000010" class="node">
<title>Node10</title>
<g id="a_Node000010"><a xlink:href="../../d6/d85/classcommonpython_1_1database_1_1db2__manager_1_1DB2Manager.html#af323686805601c7cb16daa555ea0821b" target="_top" xlink:title=" ">
<polygon fill="white" stroke="#666666" points="438,-68.5 250,-68.5 250,-38.5 438,-38.5 438,-68.5"/>
<text text-anchor="start" x="258" y="-56.5" font-family="Helvetica,sans-Serif" font-size="10.00">commonpython.database.db2</text>
<text text-anchor="middle" x="344" y="-45.5" font-family="Helvetica,sans-Serif" font-size="10.00">_manager.DB2Manager.transaction</text>
</a>
</g>
</g>
<!-- Node1&#45;&gt;Node10 -->
<g id="edge10_Node000001_Node000010" class="edge">
<title>Node1&#45;&gt;Node10</title>
<g id="a_edge10_Node000001_Node000010"><a xlink:title=" ">
<path fill="none" stroke="#63b8ff" d="M543.22,-143.1C519.65,-122.14 484.52,-94.1 449,-77.5 441.61,-74.05 433.69,-71.07 425.64,-68.52"/>
<polygon fill="#63b8ff" stroke="#63b8ff" points="540.98,-145.8 550.75,-149.91 545.68,-140.61 540.98,-145.8"/>
</a>
</g>
</g>
<!-- Node6 -->
<g id="Node000006" class="node">
<title>Node6</title>
<g id="a_Node000006"><a xlink:href="../../d6/d85/classcommonpython_1_1database_1_1db2__manager_1_1DB2Manager.html#ae2f69904d2bdd61d49cb9eebb3ad9223" target="_top" xlink:title=" ">
<polygon fill="white" stroke="#666666" points="182.5,-159 20.5,-159 20.5,-118 182.5,-118 182.5,-159"/>
<text text-anchor="start" x="28.5" y="-147" font-family="Helvetica,sans-Serif" font-size="10.00">commonpython.database.db2</text>
<text text-anchor="start" x="28.5" y="-136" font-family="Helvetica,sans-Serif" font-size="10.00">_manager.DB2Manager.get</text>
<text text-anchor="middle" x="101.5" y="-125" font-family="Helvetica,sans-Serif" font-size="10.00">_database_info</text>
</a>
</g>
</g>
<!-- Node5&#45;&gt;Node6 -->
<g id="edge5_Node000005_Node000006" class="edge">
<title>Node5&#45;&gt;Node6</title>
<g id="a_edge5_Node000005_Node000006"><a xlink:title=" ">
<path fill="none" stroke="#63b8ff" d="M234.87,-118.13C217.29,-120.84 199.35,-123.6 182.58,-126.18"/>
<polygon fill="#63b8ff" stroke="#63b8ff" points="235.83,-121.53 245.18,-116.55 234.76,-114.61 235.83,-121.53"/>
</a>
</g>
</g>
<!-- Node7 -->
<g id="Node000007" class="node">
<title>Node7</title>
<g id="a_Node000007"><a xlink:href="../../d6/d85/classcommonpython_1_1database_1_1db2__manager_1_1DB2Manager.html#a2d25bd39c2fedacac875e4c70309890a" target="_top" xlink:title=" ">
<polygon fill="white" stroke="#666666" points="182.5,-100 20.5,-100 20.5,-59 182.5,-59 182.5,-100"/>
<text text-anchor="start" x="28.5" y="-88" font-family="Helvetica,sans-Serif" font-size="10.00">commonpython.database.db2</text>
<text text-anchor="start" x="28.5" y="-77" font-family="Helvetica,sans-Serif" font-size="10.00">_manager.DB2Manager.get</text>
<text text-anchor="middle" x="101.5" y="-66" font-family="Helvetica,sans-Serif" font-size="10.00">_table_info</text>
</a>
</g>
</g>
<!-- Node5&#45;&gt;Node7 -->
<g id="edge6_Node000005_Node000007" class="edge">
<title>Node5&#45;&gt;Node7</title>
<g id="a_edge6_Node000005_Node000007"><a xlink:title=" ">
<path fill="none" stroke="#63b8ff" d="M231.46,-91.3C214.94,-89.79 198.2,-88.25 182.5,-86.82"/>
<polygon fill="#63b8ff" stroke="#63b8ff" points="231.43,-94.81 241.7,-92.23 232.06,-87.84 231.43,-94.81"/>
</a>
</g>
</g>
<!-- Node8 -->
<g id="Node000008" class="node">
<title>Node8</title>
<g id="a_Node000008"><a xlink:href="../../d6/d85/classcommonpython_1_1database_1_1db2__manager_1_1DB2Manager.html#aad0b00e23d460a43a9ee47d9caecaaa6" target="_top" xlink:title=" ">
<polygon fill="white" stroke="#666666" points="182.5,-41 20.5,-41 20.5,0 182.5,0 182.5,-41"/>
<text text-anchor="start" x="28.5" y="-29" font-family="Helvetica,sans-Serif" font-size="10.00">commonpython.database.db2</text>
<text text-anchor="start" x="28.5" y="-18" font-family="Helvetica,sans-Serif" font-size="10.00">_manager.DB2Manager.test</text>
<text text-anchor="middle" x="101.5" y="-7" font-family="Helvetica,sans-Serif" font-size="10.00">_connection</text>
</a>
</g>
</g>
<!-- Node5&#45;&gt;Node8 -->
<g id="edge7_Node000005_Node000008" class="edge">
<title>Node5&#45;&gt;Node8</title>
<g id="a_edge7_Node000005_Node000008"><a xlink:title=" ">
<path fill="none" stroke="#63b8ff" d="M252.65,-83.14C247.97,-81.41 243.39,-79.54 239,-77.5 220.86,-69.07 220.86,-59.5 203,-50.5 196.09,-47.02 188.7,-43.86 181.19,-41.03"/>
<polygon fill="#63b8ff" stroke="#63b8ff" points="251.78,-86.54 262.37,-86.45 254.04,-79.91 251.78,-86.54"/>
</a>
</g>
</g>
<!-- Node9&#45;&gt;Node4 -->
<g id="edge9_Node000009_Node000004" class="edge">
<title>Node9&#45;&gt;Node4</title>
<g id="a_edge9_Node000009_Node000004"><a xlink:title=" ">
<path fill="none" stroke="#63b8ff" d="M248.89,-166.33C228.33,-170 206.7,-173.87 186.57,-177.47"/>
<polygon fill="#63b8ff" stroke="#63b8ff" points="249.66,-169.74 258.88,-164.54 248.42,-162.85 249.66,-169.74"/>
</a>
</g>
</g>
</g>
</svg>
