<?xml version="1.0" encoding="UTF-8" standalone="no"?>
<!DOCTYPE svg PUBLIC "-//W3C//DTD SVG 1.1//EN"
 "http://www.w3.org/Graphics/SVG/1.1/DTD/svg11.dtd">
<!-- Generated by graphviz version 2.43.0 (0)
 -->
<!-- Title: Graphical Class Hierarchy Pages: 1 -->
<svg width="314pt" height="86pt"
 viewBox="0.00 0.00 314.00 86.00" xmlns="http://www.w3.org/2000/svg" xmlns:xlink="http://www.w3.org/1999/xlink">
<g id="graph0" class="graph" transform="scale(1 1) rotate(0) translate(4 82)">
<title>Graphical Class Hierarchy</title>
<!-- Node0 -->
<g id="Node000000" class="node">
<title>Node0</title>
<g id="a_Node000000"><a xlink:title=" ">
<polygon fill="#e0e0e0" stroke="#999999" points="104,-48.5 0,-48.5 0,-29.5 104,-29.5 104,-48.5"/>
<text text-anchor="middle" x="52" y="-36.5" font-family="Helvetica,sans-Serif" font-size="10.00">logging.Formatter</text>
</a>
</g>
</g>
<!-- Node1 -->
<g id="Node000001" class="node">
<title>Node1</title>
<g id="a_Node000001"><a xlink:href="dc/df6/classcommonpython_1_1logging_1_1logger__manager_1_1ColoredFormatter.html" target="_top" xlink:title=" ">
<polygon fill="white" stroke="#666666" points="306,-78 140,-78 140,-48 306,-48 306,-78"/>
<text text-anchor="start" x="148" y="-66" font-family="Helvetica,sans-Serif" font-size="10.00">commonpython.logging.logger</text>
<text text-anchor="middle" x="223" y="-55" font-family="Helvetica,sans-Serif" font-size="10.00">_manager.ColoredFormatter</text>
</a>
</g>
</g>
<!-- Node0&#45;&gt;Node1 -->
<g id="edge2_Node000000_Node000001" class="edge">
<title>Node0&#45;&gt;Node1</title>
<g id="a_edge2_Node000000_Node000001"><a xlink:title=" ">
<path fill="none" stroke="#63b8ff" d="M114.15,-47.68C122.49,-48.87 131.16,-50.1 139.79,-51.33"/>
<polygon fill="#63b8ff" stroke="#63b8ff" points="114.56,-44.21 104.16,-46.27 113.57,-51.14 114.56,-44.21"/>
</a>
</g>
</g>
<!-- Node2 -->
<g id="Node000002" class="node">
<title>Node2</title>
<g id="a_Node000002"><a xlink:href="d4/db4/classcommonpython_1_1logging_1_1logger__manager_1_1JSONFormatter.html" target="_top" xlink:title=" ">
<polygon fill="white" stroke="#666666" points="306,-30 140,-30 140,0 306,0 306,-30"/>
<text text-anchor="start" x="148" y="-18" font-family="Helvetica,sans-Serif" font-size="10.00">commonpython.logging.logger</text>
<text text-anchor="middle" x="223" y="-7" font-family="Helvetica,sans-Serif" font-size="10.00">_manager.JSONFormatter</text>
</a>
</g>
</g>
<!-- Node0&#45;&gt;Node2 -->
<g id="edge3_Node000000_Node000002" class="edge">
<title>Node0&#45;&gt;Node2</title>
<g id="a_edge3_Node000000_Node000002"><a xlink:title=" ">
<path fill="none" stroke="#63b8ff" d="M114.15,-30.32C122.49,-29.13 131.16,-27.9 139.79,-26.67"/>
<polygon fill="#63b8ff" stroke="#63b8ff" points="113.57,-26.86 104.16,-31.73 114.56,-33.79 113.57,-26.86"/>
</a>
</g>
</g>
</g>
</svg>
