<?xml version="1.0" encoding="UTF-8" standalone="no"?>
<!DOCTYPE svg PUBLIC "-//W3C//DTD SVG 1.1//EN"
 "http://www.w3.org/Graphics/SVG/1.1/DTD/svg11.dtd">
<!-- Generated by graphviz version 2.43.0 (0)
 -->
<!-- Title: commonpython.cli.cli.CLI._setup_messaging Pages: 1 -->
<!--zoomable 274 -->

<svg id="main" version="1.1" xmlns="http://www.w3.org/2000/svg" xmlns:xlink="http://www.w3.org/1999/xlink" xml:space="preserve" onload="init(evt)">
<style type="text/css"><![CDATA[
.node, .edge {opacity: 0.7;}
.node.selected, .edge.selected {opacity: 1;}
.edge:hover path { stroke: red; }
.edge:hover polygon { stroke: red; fill: red; }
]]></style>

<defs>
  <circle id="rim" cx="0" cy="0" r="7"/>
  <circle id="rim2" cx="0" cy="0" r="3.5"/>
  <g id="zoomPlus">
    <use xlink:href="#rim" fill="#404040"><set attributeName="fill" to="#808080" begin="zoomplus.mouseover" end="zoomplus.mouseout"/></use>
    <path d="M-4,0h8M0,-4v8" fill="none" stroke="white" stroke-width="1.5" pointer-events="none"/>
  </g>
  <g id="zoomMin">
    <use xlink:href="#rim" fill="#404040"><set attributeName="fill" to="#808080" begin="zoomminus.mouseover" end="zoomminus.mouseout"/></use>
    <path d="M-4,0h8" fill="none" stroke="white" stroke-width="1.5" pointer-events="none"/>
  </g>
  <g id="arrowUp" transform="translate(30 24)">
    <use xlink:href="#rim"/>
    <path pointer-events="none" fill="none" stroke="white" stroke-width="1.5" d="M0,-3.0v7 M-2.5,-0.5L0,-3.0L2.5,-0.5"/>
  </g>
  <g id="arrowRight" transform="rotate(90) translate(36 -43)">
    <use xlink:href="#rim"/>
    <path pointer-events="none" fill="none" stroke="white" stroke-width="1.5" d="M0,-3.0v7 M-2.5,-0.5L0,-3.0L2.5,-0.5"/>
  </g>
  <g id="arrowDown" transform="rotate(180) translate(-30 -48)">
    <use xlink:href="#rim"/>
    <path pointer-events="none" fill="none" stroke="white" stroke-width="1.5" d="M0,-3.0v7 M-2.5,-0.5L0,-3.0L2.5,-0.5"/>
  </g>
  <g id="arrowLeft" transform="rotate(270) translate(-36 17)">
    <use xlink:href="#rim"/>
    <path pointer-events="none" fill="none" stroke="white" stroke-width="1.5" d="M0,-3.0v7 M-2.5,-0.5L0,-3.0L2.5,-0.5"/>
  </g>
  <g id="resetDef">
    <use xlink:href="#rim2" fill="#404040"><set attributeName="fill" to="#808080" begin="reset.mouseover" end="reset.mouseout"/></use>
  </g>
</defs>
<script type="application/ecmascript">
var viewWidth = 594;
var viewHeight = 274;
var sectionId = 'dynsection-3';
</script>
<script type="application/ecmascript" xlink:href="../../svg.min.js"/>
<svg id="graph" class="graph">
<g id="viewport">
<title>commonpython.cli.cli.CLI._setup_messaging</title>
<!-- Node1 -->
<g id="Node000001" class="node">
<title>Node1</title>
<g id="a_Node000001"><a xlink:title=" ">
<polygon fill="#999999" stroke="#666666" points="586,-116 443,-116 443,-86 586,-86 586,-116"/>
<text text-anchor="start" x="451" y="-104" font-family="Helvetica,sans-Serif" font-size="10.00">commonpython.cli.cli.CLI.</text>
<text text-anchor="middle" x="514.5" y="-93" font-family="Helvetica,sans-Serif" font-size="10.00">_setup_messaging</text>
</a>
</g>
</g>
<!-- Node2 -->
<g id="Node000002" class="node">
<title>Node2</title>
<g id="a_Node000002"><a xlink:href="../../d6/dd2/classcommonpython_1_1cli_1_1cli_1_1CLI.html#a3f977116a5cf6d8c00f2bb246cfef782" target="_top" xlink:title=" ">
<polygon fill="white" stroke="#666666" points="396.5,-248 238.5,-248 238.5,-218 396.5,-218 396.5,-248"/>
<text text-anchor="start" x="246.5" y="-236" font-family="Helvetica,sans-Serif" font-size="10.00">commonpython.cli.cli.CLI.get</text>
<text text-anchor="middle" x="317.5" y="-225" font-family="Helvetica,sans-Serif" font-size="10.00">_message</text>
</a>
</g>
</g>
<!-- Node1&#45;&gt;Node2 -->
<g id="edge1_Node000001_Node000002" class="edge">
<title>Node1&#45;&gt;Node2</title>
<g id="a_edge1_Node000001_Node000002"><a xlink:title=" ">
<path fill="none" stroke="#63b8ff" d="M496.78,-124.11C477.75,-148.75 444.43,-187.14 407,-209 401.09,-212.45 394.67,-215.42 388.07,-217.97"/>
<polygon fill="#63b8ff" stroke="#63b8ff" points="499.65,-126.11 502.89,-116.02 494.07,-121.89 499.65,-126.11"/>
</a>
</g>
</g>
<!-- Node4 -->
<g id="Node000004" class="node">
<title>Node4</title>
<g id="a_Node000004"><a xlink:href="../../d6/dd2/classcommonpython_1_1cli_1_1cli_1_1CLI.html#a5b831c5dbe6824d9e2c27a673daf3ef1" target="_top" xlink:title=" ">
<polygon fill="white" stroke="#666666" points="396.5,-116 238.5,-116 238.5,-86 396.5,-86 396.5,-116"/>
<text text-anchor="start" x="246.5" y="-104" font-family="Helvetica,sans-Serif" font-size="10.00">commonpython.cli.cli.CLI.get</text>
<text text-anchor="middle" x="317.5" y="-93" font-family="Helvetica,sans-Serif" font-size="10.00">_queue_depth</text>
</a>
</g>
</g>
<!-- Node1&#45;&gt;Node4 -->
<g id="edge4_Node000001_Node000004" class="edge">
<title>Node1&#45;&gt;Node4</title>
<g id="a_edge4_Node000001_Node000004"><a xlink:title=" ">
<path fill="none" stroke="#63b8ff" d="M432.48,-101C420.58,-101 408.35,-101 396.52,-101"/>
<polygon fill="#63b8ff" stroke="#63b8ff" points="432.82,-104.5 442.82,-101 432.82,-97.5 432.82,-104.5"/>
</a>
</g>
</g>
<!-- Node6 -->
<g id="Node000006" class="node">
<title>Node6</title>
<g id="a_Node000006"><a xlink:href="../../d6/dd2/classcommonpython_1_1cli_1_1cli_1_1CLI.html#a8aadb5626fc6f25b75fdddbd7e978faa" target="_top" xlink:title=" ">
<polygon fill="white" stroke="#666666" points="396.5,-182 238.5,-182 238.5,-152 396.5,-152 396.5,-182"/>
<text text-anchor="start" x="246.5" y="-170" font-family="Helvetica,sans-Serif" font-size="10.00">commonpython.cli.cli.CLI.put</text>
<text text-anchor="middle" x="317.5" y="-159" font-family="Helvetica,sans-Serif" font-size="10.00">_message</text>
</a>
</g>
</g>
<!-- Node1&#45;&gt;Node6 -->
<g id="edge7_Node000001_Node000006" class="edge">
<title>Node1&#45;&gt;Node6</title>
<g id="a_edge7_Node000001_Node000006"><a xlink:title=" ">
<path fill="none" stroke="#63b8ff" d="M468.38,-120.08C449.57,-127.69 427.4,-136.23 407,-143 397.63,-146.11 387.61,-149.12 377.8,-151.89"/>
<polygon fill="#63b8ff" stroke="#63b8ff" points="469.94,-123.22 477.88,-116.19 467.3,-116.74 469.94,-123.22"/>
</a>
</g>
</g>
<!-- Node7 -->
<g id="Node000007" class="node">
<title>Node7</title>
<g id="a_Node000007"><a xlink:href="../../d6/dd2/classcommonpython_1_1cli_1_1cli_1_1CLI.html#a167dfb23681ed2d0caa8796d0a432166" target="_top" xlink:title=" ">
<polygon fill="white" stroke="#666666" points="407,-67.5 228,-67.5 228,-48.5 407,-48.5 407,-67.5"/>
<text text-anchor="middle" x="317.5" y="-55.5" font-family="Helvetica,sans-Serif" font-size="10.00">commonpython.cli.cli.CLI.test_all</text>
</a>
</g>
</g>
<!-- Node1&#45;&gt;Node7 -->
<g id="edge10_Node000001_Node000007" class="edge">
<title>Node1&#45;&gt;Node7</title>
<g id="a_edge10_Node000001_Node000007"><a xlink:title=" ">
<path fill="none" stroke="#63b8ff" d="M437.56,-83.79C427.29,-81.49 416.89,-79.18 407,-77 392.88,-73.89 377.48,-70.57 363.54,-67.58"/>
<polygon fill="#63b8ff" stroke="#63b8ff" points="436.81,-87.21 447.34,-85.98 438.35,-80.38 436.81,-87.21"/>
</a>
</g>
</g>
<!-- Node8 -->
<g id="Node000008" class="node">
<title>Node8</title>
<g id="a_Node000008"><a xlink:href="../../d6/dd2/classcommonpython_1_1cli_1_1cli_1_1CLI.html#a6da3814194d7512377ad5099f41abaf2" target="_top" xlink:title=" ">
<polygon fill="white" stroke="#666666" points="398,-30 237,-30 237,0 398,0 398,-30"/>
<text text-anchor="start" x="245" y="-18" font-family="Helvetica,sans-Serif" font-size="10.00">commonpython.cli.cli.CLI.test</text>
<text text-anchor="middle" x="317.5" y="-7" font-family="Helvetica,sans-Serif" font-size="10.00">_messaging</text>
</a>
</g>
</g>
<!-- Node1&#45;&gt;Node8 -->
<g id="edge11_Node000001_Node000008" class="edge">
<title>Node1&#45;&gt;Node8</title>
<g id="a_edge11_Node000001_Node000008"><a xlink:title=" ">
<path fill="none" stroke="#63b8ff" d="M482.88,-80.27C462.18,-66.99 433.82,-50.21 407,-39 399.07,-35.68 390.55,-32.7 382.03,-30.05"/>
<polygon fill="#63b8ff" stroke="#63b8ff" points="481.25,-83.38 491.54,-85.9 485.07,-77.52 481.25,-83.38"/>
</a>
</g>
</g>
<!-- Node2&#45;&gt;Node2 -->
<g id="edge3_Node000002_Node000002" class="edge">
<title>Node2&#45;&gt;Node2</title>
<g id="a_edge3_Node000002_Node000002"><a xlink:title=" ">
<path fill="none" stroke="#63b8ff" d="M351.81,-258.6C347.12,-262.97 335.68,-266 317.5,-266 286.88,-266 275.39,-257.41 283.05,-248.28"/>
<polygon fill="#63b8ff" stroke="#63b8ff" points="355.31,-258.32 351.95,-248.28 348.31,-258.22 355.31,-258.32"/>
</a>
</g>
</g>
<!-- Node3 -->
<g id="Node000003" class="node">
<title>Node3</title>
<g id="a_Node000003"><a xlink:href="../../da/d7a/classcommonpython_1_1messaging_1_1mq__manager_1_1MQManager.html#a89310d92ccfe7cd1ddbbf39d6467ecfa" target="_top" xlink:title=" ">
<polygon fill="white" stroke="#666666" points="180,-220.5 12,-220.5 12,-179.5 180,-179.5 180,-220.5"/>
<text text-anchor="start" x="20" y="-208.5" font-family="Helvetica,sans-Serif" font-size="10.00">commonpython.messaging.mq</text>
<text text-anchor="start" x="20" y="-197.5" font-family="Helvetica,sans-Serif" font-size="10.00">_manager.MQManager.browse</text>
<text text-anchor="middle" x="96" y="-186.5" font-family="Helvetica,sans-Serif" font-size="10.00">_message</text>
</a>
</g>
</g>
<!-- Node2&#45;&gt;Node3 -->
<g id="edge2_Node000002_Node000003" class="edge">
<title>Node2&#45;&gt;Node3</title>
<g id="a_edge2_Node000002_Node000003"><a xlink:title=" ">
<path fill="none" stroke="#63b8ff" d="M228.21,-219.73C212.41,-217.35 195.99,-214.88 180.33,-212.53"/>
<polygon fill="#63b8ff" stroke="#63b8ff" points="228.09,-223.25 238.49,-221.27 229.13,-216.32 228.09,-223.25"/>
</a>
</g>
</g>
<!-- Node4&#45;&gt;Node4 -->
<g id="edge5_Node000004_Node000004" class="edge">
<title>Node4&#45;&gt;Node4</title>
<g id="a_edge5_Node000004_Node000004"><a xlink:title=" ">
<path fill="none" stroke="#63b8ff" d="M351.81,-126.6C347.12,-130.97 335.68,-134 317.5,-134 286.88,-134 275.39,-125.41 283.05,-116.28"/>
<polygon fill="#63b8ff" stroke="#63b8ff" points="355.31,-126.32 351.95,-116.28 348.31,-126.22 355.31,-126.32"/>
</a>
</g>
</g>
<!-- Node5 -->
<g id="Node000005" class="node">
<title>Node5</title>
<g id="a_Node000005"><a xlink:href="../../da/d7a/classcommonpython_1_1messaging_1_1mq__manager_1_1MQManager.html#ade7c79ee9d81b4d72cddf7403adf1ffc" target="_top" xlink:title=" ">
<polygon fill="white" stroke="#666666" points="192,-116 0,-116 0,-86 192,-86 192,-116"/>
<text text-anchor="start" x="8" y="-104" font-family="Helvetica,sans-Serif" font-size="10.00">commonpython.messaging.mq</text>
<text text-anchor="middle" x="96" y="-93" font-family="Helvetica,sans-Serif" font-size="10.00">_manager.MQManager.purge_queue</text>
</a>
</g>
</g>
<!-- Node4&#45;&gt;Node5 -->
<g id="edge6_Node000004_Node000005" class="edge">
<title>Node4&#45;&gt;Node5</title>
<g id="a_edge6_Node000004_Node000005"><a xlink:title=" ">
<path fill="none" stroke="#63b8ff" d="M228.16,-101C216.28,-101 204.05,-101 192.05,-101"/>
<polygon fill="#63b8ff" stroke="#63b8ff" points="228.49,-104.5 238.49,-101 228.49,-97.5 228.49,-104.5"/>
</a>
</g>
</g>
<!-- Node6&#45;&gt;Node3 -->
<g id="edge8_Node000006_Node000003" class="edge">
<title>Node6&#45;&gt;Node3</title>
<g id="a_edge8_Node000006_Node000003"><a xlink:title=" ">
<path fill="none" stroke="#63b8ff" d="M228.21,-180.27C212.41,-182.65 195.99,-185.12 180.33,-187.47"/>
<polygon fill="#63b8ff" stroke="#63b8ff" points="229.13,-183.68 238.49,-178.73 228.09,-176.75 229.13,-183.68"/>
</a>
</g>
</g>
<!-- Node6&#45;&gt;Node6 -->
<g id="edge9_Node000006_Node000006" class="edge">
<title>Node6&#45;&gt;Node6</title>
<g id="a_edge9_Node000006_Node000006"><a xlink:title=" ">
<path fill="none" stroke="#63b8ff" d="M351.81,-192.6C347.12,-196.97 335.68,-200 317.5,-200 286.88,-200 275.39,-191.41 283.05,-182.28"/>
<polygon fill="#63b8ff" stroke="#63b8ff" points="355.31,-192.32 351.95,-182.28 348.31,-192.22 355.31,-192.32"/>
</a>
</g>
</g>
</g>
</svg>

<g id="navigator" transform="translate(0 0)" fill="#404254">
  <rect fill="#f2f5e9" fill-opacity="0.5" stroke="#606060" stroke-width=".5" x="0" y="0" width="60" height="60"/>
  <use id="zoomplus" xlink:href="#zoomPlus" x="17" y="9" onmousedown="handleZoom(evt,'in')"/>
  <use id="zoomminus" xlink:href="#zoomMin" x="42" y="9" onmousedown="handleZoom(evt,'out')"/>
  <use id="reset" xlink:href="#resetDef" x="30" y="36" onmousedown="handleReset()"/>
   <use id="arrowup" xlink:href="#arrowUp" x="0" y="0" onmousedown="handlePan(0,-1)"/>
  <use id="arrowright" xlink:href="#arrowRight" x="0" y="0" onmousedown="handlePan(1,0)"/>
  <use id="arrowdown" xlink:href="#arrowDown" x="0" y="0" onmousedown="handlePan(0,1)"/>
  <use id="arrowleft" xlink:href="#arrowLeft" x="0" y="0" onmousedown="handlePan(-1,0)"/>
</g>
<svg viewBox="0 0 15 15" width="100%" height="30px" preserveAspectRatio="xMaxYMin meet">
 <g id="arrow_out" transform="scale(0.3 0.3)">
  <a xlink:href="classcommonpython_1_1cli_1_1cli_1_1CLI_a0a650b67088eade813342c1a2c930667_icgraph_org.svg" target="_base">
   <rect id="button" ry="5" rx="5" y="6" x="6" height="38" width="38"
        fill="#f2f5e9" fill-opacity="0.5" stroke="#606060" stroke-width="1.0"/>
   <path id="arrow"
     d="M 11.500037,31.436501 C 11.940474,20.09759 22.043105,11.32322 32.158766,21.979434 L 37.068811,17.246167 C 37.068811,17.246167 37.088388,32 37.088388,32 L 22.160133,31.978069 C 22.160133,31.978069 26.997745,27.140456 26.997745,27.140456 C 18.528582,18.264221 13.291696,25.230495 11.500037,31.436501 z"
     style="fill:#404040;"/>
  </a>
 </g>
</svg>

<style type='text/css'>
<![CDATA[
[data-mouse-over-selected='false'] { opacity: 0.7; }
[data-mouse-over-selected='true']  { opacity: 1.0; }
]]>
</style>
<script type="application/ecmascript"><![CDATA[
document.addEventListener('DOMContentLoaded', (event) => {
  highlightEdges();
  highlightAdjacentNodes();
});
]]></script>
</svg>
