<?xml version="1.0" encoding="UTF-8" standalone="no"?>
<!DOCTYPE svg PUBLIC "-//W3C//DTD SVG 1.1//EN"
 "http://www.w3.org/Graphics/SVG/1.1/DTD/svg11.dtd">
<!-- Generated by graphviz version 2.43.0 (0)
 -->
<!-- Title: commonpython.cli.cli.CLI._display_results Pages: 1 -->
<svg width="572pt" height="322pt"
 viewBox="0.00 0.00 572.00 321.50" xmlns="http://www.w3.org/2000/svg" xmlns:xlink="http://www.w3.org/1999/xlink">
<g id="graph0" class="graph" transform="scale(1 1) rotate(0) translate(4 317.5)">
<title>commonpython.cli.cli.CLI._display_results</title>
<!-- Node1 -->
<g id="Node000001" class="node">
<title>Node1</title>
<g id="a_Node000001"><a xlink:title=" ">
<polygon fill="#999999" stroke="#666666" points="564,-111 421,-111 421,-81 564,-81 564,-111"/>
<text text-anchor="start" x="429" y="-99" font-family="Helvetica,sans-Serif" font-size="10.00">commonpython.cli.cli.CLI.</text>
<text text-anchor="middle" x="492.5" y="-88" font-family="Helvetica,sans-Serif" font-size="10.00">_display_results</text>
</a>
</g>
</g>
<!-- Node2 -->
<g id="Node000002" class="node">
<title>Node2</title>
<g id="a_Node000002"><a xlink:href="../../d6/dd2/classcommonpython_1_1cli_1_1cli_1_1CLI.html#a6f385c3d725bfb3c1a901c7d702627e0" target="_top" xlink:title=" ">
<polygon fill="white" stroke="#666666" points="385,-223 204,-223 204,-193 385,-193 385,-223"/>
<text text-anchor="start" x="212" y="-211" font-family="Helvetica,sans-Serif" font-size="10.00">commonpython.cli.cli.CLI.execute</text>
<text text-anchor="middle" x="294.5" y="-200" font-family="Helvetica,sans-Serif" font-size="10.00">_query</text>
</a>
</g>
</g>
<!-- Node1&#45;&gt;Node2 -->
<g id="edge1_Node000001_Node000002" class="edge">
<title>Node1&#45;&gt;Node2</title>
<g id="a_edge1_Node000001_Node000002"><a xlink:title=" ">
<path fill="none" stroke="#63b8ff" d="M464.63,-117.45C443.72,-133.5 413.56,-155.29 385,-171 369.97,-179.26 352.71,-186.82 337.38,-192.91"/>
<polygon fill="#63b8ff" stroke="#63b8ff" points="466.96,-120.07 472.71,-111.17 462.67,-114.54 466.96,-120.07"/>
</a>
</g>
</g>
<!-- Node6 -->
<g id="Node000006" class="node">
<title>Node6</title>
<g id="a_Node000006"><a xlink:href="../../d6/dd2/classcommonpython_1_1cli_1_1cli_1_1CLI.html#a3f977116a5cf6d8c00f2bb246cfef782" target="_top" xlink:title=" ">
<polygon fill="white" stroke="#666666" points="373.5,-144 215.5,-144 215.5,-114 373.5,-114 373.5,-144"/>
<text text-anchor="start" x="223.5" y="-132" font-family="Helvetica,sans-Serif" font-size="10.00">commonpython.cli.cli.CLI.get</text>
<text text-anchor="middle" x="294.5" y="-121" font-family="Helvetica,sans-Serif" font-size="10.00">_message</text>
</a>
</g>
</g>
<!-- Node1&#45;&gt;Node6 -->
<g id="edge6_Node000001_Node000006" class="edge">
<title>Node1&#45;&gt;Node6</title>
<g id="a_edge6_Node000001_Node000006"><a xlink:title=" ">
<path fill="none" stroke="#63b8ff" d="M410.62,-109.62C398.44,-111.67 385.91,-113.78 373.79,-115.82"/>
<polygon fill="#63b8ff" stroke="#63b8ff" points="411.46,-113.03 420.74,-107.91 410.3,-106.12 411.46,-113.03"/>
</a>
</g>
</g>
<!-- Node8 -->
<g id="Node000008" class="node">
<title>Node8</title>
<g id="a_Node000008"><a xlink:href="../../d6/dd2/classcommonpython_1_1cli_1_1cli_1_1CLI.html#ad7e1799bc52e9ae732cddeb43e6ec083" target="_top" xlink:title=" ">
<polygon fill="white" stroke="#666666" points="373.5,-78 215.5,-78 215.5,-48 373.5,-48 373.5,-78"/>
<text text-anchor="start" x="223.5" y="-66" font-family="Helvetica,sans-Serif" font-size="10.00">commonpython.cli.cli.CLI.get</text>
<text text-anchor="middle" x="294.5" y="-55" font-family="Helvetica,sans-Serif" font-size="10.00">_table_info</text>
</a>
</g>
</g>
<!-- Node1&#45;&gt;Node8 -->
<g id="edge9_Node000001_Node000008" class="edge">
<title>Node1&#45;&gt;Node8</title>
<g id="a_edge9_Node000001_Node000008"><a xlink:title=" ">
<path fill="none" stroke="#63b8ff" d="M410.62,-82.38C398.44,-80.33 385.91,-78.22 373.79,-76.18"/>
<polygon fill="#63b8ff" stroke="#63b8ff" points="410.3,-85.88 420.74,-84.09 411.46,-78.97 410.3,-85.88"/>
</a>
</g>
</g>
<!-- Node9 -->
<g id="Node000009" class="node">
<title>Node9</title>
<g id="a_Node000009"><a xlink:href="../../d6/dd2/classcommonpython_1_1cli_1_1cli_1_1CLI.html#a5b97312ff83dc76429a4a924fbd01fb1" target="_top" xlink:title=" ">
<polygon fill="white" stroke="#666666" points="378.5,-30 210.5,-30 210.5,0 378.5,0 378.5,-30"/>
<text text-anchor="start" x="218.5" y="-18" font-family="Helvetica,sans-Serif" font-size="10.00">commonpython.cli.cli.CLI.show</text>
<text text-anchor="middle" x="294.5" y="-7" font-family="Helvetica,sans-Serif" font-size="10.00">_config</text>
</a>
</g>
</g>
<!-- Node1&#45;&gt;Node9 -->
<g id="edge11_Node000001_Node000009" class="edge">
<title>Node1&#45;&gt;Node9</title>
<g id="a_edge11_Node000001_Node000009"><a xlink:title=" ">
<path fill="none" stroke="#63b8ff" d="M458.65,-75.88C438.06,-63.91 410.65,-49.15 385,-39 376.77,-35.75 367.95,-32.78 359.17,-30.13"/>
<polygon fill="#63b8ff" stroke="#63b8ff" points="456.92,-78.92 467.31,-80.98 460.47,-72.89 456.92,-78.92"/>
</a>
</g>
</g>
<!-- Node2&#45;&gt;Node2 -->
<g id="edge2_Node000002_Node000002" class="edge">
<title>Node2&#45;&gt;Node2</title>
<g id="a_edge2_Node000002_Node000002"><a xlink:title=" ">
<path fill="none" stroke="#63b8ff" d="M329.16,-233.6C324.42,-237.97 312.87,-241 294.5,-241 263.56,-241 251.96,-232.41 259.7,-223.28"/>
<polygon fill="#63b8ff" stroke="#63b8ff" points="332.66,-233.32 329.3,-223.28 325.66,-233.22 332.66,-233.32"/>
</a>
</g>
</g>
<!-- Node3 -->
<g id="Node000003" class="node">
<title>Node3</title>
<g id="a_Node000003"><a xlink:href="../../d6/d85/classcommonpython_1_1database_1_1db2__manager_1_1DB2Manager.html#ae2f69904d2bdd61d49cb9eebb3ad9223" target="_top" xlink:title=" ">
<polygon fill="white" stroke="#666666" points="165,-313.5 3,-313.5 3,-272.5 165,-272.5 165,-313.5"/>
<text text-anchor="start" x="11" y="-301.5" font-family="Helvetica,sans-Serif" font-size="10.00">commonpython.database.db2</text>
<text text-anchor="start" x="11" y="-290.5" font-family="Helvetica,sans-Serif" font-size="10.00">_manager.DB2Manager.get</text>
<text text-anchor="middle" x="84" y="-279.5" font-family="Helvetica,sans-Serif" font-size="10.00">_database_info</text>
</a>
</g>
</g>
<!-- Node2&#45;&gt;Node3 -->
<g id="edge3_Node000002_Node000003" class="edge">
<title>Node2&#45;&gt;Node3</title>
<g id="a_edge3_Node000002_Node000003"><a xlink:title=" ">
<path fill="none" stroke="#63b8ff" d="M252.54,-227.32C228.2,-238.54 196.58,-252.65 168,-264 160.91,-266.82 153.42,-269.64 145.96,-272.36"/>
<polygon fill="#63b8ff" stroke="#63b8ff" points="254.23,-230.39 261.83,-223.01 251.29,-224.04 254.23,-230.39"/>
</a>
</g>
</g>
<!-- Node4 -->
<g id="Node000004" class="node">
<title>Node4</title>
<g id="a_Node000004"><a xlink:href="../../d6/d85/classcommonpython_1_1database_1_1db2__manager_1_1DB2Manager.html#a2d25bd39c2fedacac875e4c70309890a" target="_top" xlink:title=" ">
<polygon fill="white" stroke="#666666" points="165,-254.5 3,-254.5 3,-213.5 165,-213.5 165,-254.5"/>
<text text-anchor="start" x="11" y="-242.5" font-family="Helvetica,sans-Serif" font-size="10.00">commonpython.database.db2</text>
<text text-anchor="start" x="11" y="-231.5" font-family="Helvetica,sans-Serif" font-size="10.00">_manager.DB2Manager.get</text>
<text text-anchor="middle" x="84" y="-220.5" font-family="Helvetica,sans-Serif" font-size="10.00">_table_info</text>
</a>
</g>
</g>
<!-- Node2&#45;&gt;Node4 -->
<g id="edge4_Node000002_Node000004" class="edge">
<title>Node2&#45;&gt;Node4</title>
<g id="a_edge4_Node000002_Node000004"><a xlink:title=" ">
<path fill="none" stroke="#63b8ff" d="M193.83,-220.43C184.17,-221.63 174.46,-222.84 165.02,-224.02"/>
<polygon fill="#63b8ff" stroke="#63b8ff" points="194.38,-223.89 203.87,-219.18 193.51,-216.94 194.38,-223.89"/>
</a>
</g>
</g>
<!-- Node5 -->
<g id="Node000005" class="node">
<title>Node5</title>
<g id="a_Node000005"><a xlink:href="../../d6/d85/classcommonpython_1_1database_1_1db2__manager_1_1DB2Manager.html#aad0b00e23d460a43a9ee47d9caecaaa6" target="_top" xlink:title=" ">
<polygon fill="white" stroke="#666666" points="165,-195.5 3,-195.5 3,-154.5 165,-154.5 165,-195.5"/>
<text text-anchor="start" x="11" y="-183.5" font-family="Helvetica,sans-Serif" font-size="10.00">commonpython.database.db2</text>
<text text-anchor="start" x="11" y="-172.5" font-family="Helvetica,sans-Serif" font-size="10.00">_manager.DB2Manager.test</text>
<text text-anchor="middle" x="84" y="-161.5" font-family="Helvetica,sans-Serif" font-size="10.00">_connection</text>
</a>
</g>
</g>
<!-- Node2&#45;&gt;Node5 -->
<g id="edge5_Node000002_Node000005" class="edge">
<title>Node2&#45;&gt;Node5</title>
<g id="a_edge5_Node000002_Node000005"><a xlink:title=" ">
<path fill="none" stroke="#63b8ff" d="M193.83,-192.23C184.17,-190.7 174.46,-189.16 165.02,-187.67"/>
<polygon fill="#63b8ff" stroke="#63b8ff" points="193.44,-195.71 203.87,-193.81 194.54,-188.79 193.44,-195.71"/>
</a>
</g>
</g>
<!-- Node6&#45;&gt;Node6 -->
<g id="edge8_Node000006_Node000006" class="edge">
<title>Node6&#45;&gt;Node6</title>
<g id="a_edge8_Node000006_Node000006"><a xlink:title=" ">
<path fill="none" stroke="#63b8ff" d="M329.16,-154.6C324.42,-158.97 312.87,-162 294.5,-162 263.56,-162 251.96,-153.41 259.7,-144.28"/>
<polygon fill="#63b8ff" stroke="#63b8ff" points="332.66,-154.32 329.3,-144.28 325.66,-154.22 332.66,-154.32"/>
</a>
</g>
</g>
<!-- Node7 -->
<g id="Node000007" class="node">
<title>Node7</title>
<g id="a_Node000007"><a xlink:href="../../da/d7a/classcommonpython_1_1messaging_1_1mq__manager_1_1MQManager.html#a89310d92ccfe7cd1ddbbf39d6467ecfa" target="_top" xlink:title=" ">
<polygon fill="white" stroke="#666666" points="168,-136.5 0,-136.5 0,-95.5 168,-95.5 168,-136.5"/>
<text text-anchor="start" x="8" y="-124.5" font-family="Helvetica,sans-Serif" font-size="10.00">commonpython.messaging.mq</text>
<text text-anchor="start" x="8" y="-113.5" font-family="Helvetica,sans-Serif" font-size="10.00">_manager.MQManager.browse</text>
<text text-anchor="middle" x="84" y="-102.5" font-family="Helvetica,sans-Serif" font-size="10.00">_message</text>
</a>
</g>
</g>
<!-- Node6&#45;&gt;Node7 -->
<g id="edge7_Node000006_Node000007" class="edge">
<title>Node6&#45;&gt;Node7</title>
<g id="a_edge7_Node000006_Node000007"><a xlink:title=" ">
<path fill="none" stroke="#63b8ff" d="M205.08,-123.49C192.86,-122.72 180.33,-121.94 168.2,-121.19"/>
<polygon fill="#63b8ff" stroke="#63b8ff" points="205.07,-126.99 215.27,-124.12 205.51,-120.01 205.07,-126.99"/>
</a>
</g>
</g>
<!-- Node8&#45;&gt;Node8 -->
<g id="edge10_Node000008_Node000008" class="edge">
<title>Node8&#45;&gt;Node8</title>
<g id="a_edge10_Node000008_Node000008"><a xlink:title=" ">
<path fill="none" stroke="#63b8ff" d="M329.16,-88.6C324.42,-92.97 312.87,-96 294.5,-96 263.56,-96 251.96,-87.41 259.7,-78.28"/>
<polygon fill="#63b8ff" stroke="#63b8ff" points="332.66,-88.32 329.3,-78.28 325.66,-88.22 332.66,-88.32"/>
</a>
</g>
</g>
</g>
</svg>
