<?xml version="1.0" encoding="UTF-8" standalone="no"?>
<!DOCTYPE svg PUBLIC "-//W3C//DTD SVG 1.1//EN"
 "http://www.w3.org/Graphics/SVG/1.1/DTD/svg11.dtd">
<!-- Generated by graphviz version 2.43.0 (0)
 -->
<!-- Title: commonpython.cli.cli.CLI.test_all Pages: 1 -->
<svg width="366pt" height="86pt"
 viewBox="0.00 0.00 366.00 86.00" xmlns="http://www.w3.org/2000/svg" xmlns:xlink="http://www.w3.org/1999/xlink">
<g id="graph0" class="graph" transform="scale(1 1) rotate(0) translate(4 82)">
<title>commonpython.cli.cli.CLI.test_all</title>
<!-- Node1 -->
<g id="Node000001" class="node">
<title>Node1</title>
<g id="a_Node000001"><a xlink:title=" ">
<polygon fill="#999999" stroke="#666666" points="179,-48.5 0,-48.5 0,-29.5 179,-29.5 179,-48.5"/>
<text text-anchor="middle" x="89.5" y="-36.5" font-family="Helvetica,sans-Serif" font-size="10.00">commonpython.cli.cli.CLI.test_all</text>
</a>
</g>
</g>
<!-- Node2 -->
<g id="Node000002" class="node">
<title>Node2</title>
<g id="a_Node000002"><a xlink:href="../../d6/dd2/classcommonpython_1_1cli_1_1cli_1_1CLI.html#af44ec25e783d6ebcc3674731d3d10f75" target="_top" xlink:title=" ">
<polygon fill="white" stroke="#666666" points="358,-78 215,-78 215,-48 358,-48 358,-78"/>
<text text-anchor="start" x="223" y="-66" font-family="Helvetica,sans-Serif" font-size="10.00">commonpython.cli.cli.CLI.</text>
<text text-anchor="middle" x="286.5" y="-55" font-family="Helvetica,sans-Serif" font-size="10.00">_setup_database</text>
</a>
</g>
</g>
<!-- Node1&#45;&gt;Node2 -->
<g id="edge1_Node000001_Node000002" class="edge">
<title>Node1&#45;&gt;Node2</title>
<g id="a_edge1_Node000001_Node000002"><a xlink:title=" ">
<path fill="none" stroke="#63b8ff" d="M167.85,-48.52C179.98,-50.01 192.54,-51.56 204.74,-53.06"/>
<polygon fill="#63b8ff" stroke="#63b8ff" points="204.54,-56.56 214.89,-54.31 205.4,-49.61 204.54,-56.56"/>
</a>
</g>
</g>
<!-- Node3 -->
<g id="Node000003" class="node">
<title>Node3</title>
<g id="a_Node000003"><a xlink:href="../../d6/dd2/classcommonpython_1_1cli_1_1cli_1_1CLI.html#a0a650b67088eade813342c1a2c930667" target="_top" xlink:title=" ">
<polygon fill="white" stroke="#666666" points="358,-30 215,-30 215,0 358,0 358,-30"/>
<text text-anchor="start" x="223" y="-18" font-family="Helvetica,sans-Serif" font-size="10.00">commonpython.cli.cli.CLI.</text>
<text text-anchor="middle" x="286.5" y="-7" font-family="Helvetica,sans-Serif" font-size="10.00">_setup_messaging</text>
</a>
</g>
</g>
<!-- Node1&#45;&gt;Node3 -->
<g id="edge2_Node000001_Node000003" class="edge">
<title>Node1&#45;&gt;Node3</title>
<g id="a_edge2_Node000001_Node000003"><a xlink:title=" ">
<path fill="none" stroke="#63b8ff" d="M167.85,-29.48C179.98,-27.99 192.54,-26.44 204.74,-24.94"/>
<polygon fill="#63b8ff" stroke="#63b8ff" points="205.4,-28.39 214.89,-23.69 204.54,-21.44 205.4,-28.39"/>
</a>
</g>
</g>
</g>
</svg>
