<?xml version="1.0" encoding="UTF-8" standalone="no"?>
<!DOCTYPE svg PUBLIC "-//W3C//DTD SVG 1.1//EN"
 "http://www.w3.org/Graphics/SVG/1.1/DTD/svg11.dtd">
<!-- Generated by graphviz version 2.43.0 (0)
 -->
<!-- Title: commonpython.cli.cli.CLI.execute_query Pages: 1 -->
<svg width="368pt" height="86pt"
 viewBox="0.00 0.00 368.00 86.00" xmlns="http://www.w3.org/2000/svg" xmlns:xlink="http://www.w3.org/1999/xlink">
<g id="graph0" class="graph" transform="scale(1 1) rotate(0) translate(4 82)">
<title>commonpython.cli.cli.CLI.execute_query</title>
<!-- Node1 -->
<g id="Node000001" class="node">
<title>Node1</title>
<g id="a_Node000001"><a xlink:title=" ">
<polygon fill="#999999" stroke="#666666" points="181,-54 0,-54 0,-24 181,-24 181,-54"/>
<text text-anchor="start" x="8" y="-42" font-family="Helvetica,sans-Serif" font-size="10.00">commonpython.cli.cli.CLI.execute</text>
<text text-anchor="middle" x="90.5" y="-31" font-family="Helvetica,sans-Serif" font-size="10.00">_query</text>
</a>
</g>
</g>
<!-- Node1&#45;&gt;Node1 -->
<g id="edge3_Node000001_Node000001" class="edge">
<title>Node1&#45;&gt;Node1</title>
<g id="a_edge3_Node000001_Node000001"><a xlink:title=" ">
<path fill="none" stroke="#63b8ff" d="M55.7,-54.28C47.96,-63.41 59.56,-72 90.5,-72 108.87,-72 120.42,-68.97 125.16,-64.6"/>
<polygon fill="#63b8ff" stroke="#63b8ff" points="128.66,-64.32 125.3,-54.28 121.66,-64.22 128.66,-64.32"/>
</a>
</g>
</g>
<!-- Node2 -->
<g id="Node000002" class="node">
<title>Node2</title>
<g id="a_Node000002"><a xlink:href="../../d6/dd2/classcommonpython_1_1cli_1_1cli_1_1CLI.html#ae6928d446a98c9c86e7435eb46d842e3" target="_top" xlink:title=" ">
<polygon fill="white" stroke="#666666" points="360,-78 217,-78 217,-48 360,-48 360,-78"/>
<text text-anchor="start" x="225" y="-66" font-family="Helvetica,sans-Serif" font-size="10.00">commonpython.cli.cli.CLI.</text>
<text text-anchor="middle" x="288.5" y="-55" font-family="Helvetica,sans-Serif" font-size="10.00">_display_results</text>
</a>
</g>
</g>
<!-- Node1&#45;&gt;Node2 -->
<g id="edge1_Node000001_Node000002" class="edge">
<title>Node1&#45;&gt;Node2</title>
<g id="a_edge1_Node000001_Node000002"><a xlink:title=" ">
<path fill="none" stroke="#63b8ff" d="M181.18,-49.98C189.71,-51.03 198.32,-52.08 206.76,-53.11"/>
<polygon fill="#63b8ff" stroke="#63b8ff" points="206.59,-56.62 216.94,-54.36 207.44,-49.67 206.59,-56.62"/>
</a>
</g>
</g>
<!-- Node3 -->
<g id="Node000003" class="node">
<title>Node3</title>
<g id="a_Node000003"><a xlink:href="../../d6/dd2/classcommonpython_1_1cli_1_1cli_1_1CLI.html#af44ec25e783d6ebcc3674731d3d10f75" target="_top" xlink:title=" ">
<polygon fill="white" stroke="#666666" points="360,-30 217,-30 217,0 360,0 360,-30"/>
<text text-anchor="start" x="225" y="-18" font-family="Helvetica,sans-Serif" font-size="10.00">commonpython.cli.cli.CLI.</text>
<text text-anchor="middle" x="288.5" y="-7" font-family="Helvetica,sans-Serif" font-size="10.00">_setup_database</text>
</a>
</g>
</g>
<!-- Node1&#45;&gt;Node3 -->
<g id="edge2_Node000001_Node000003" class="edge">
<title>Node1&#45;&gt;Node3</title>
<g id="a_edge2_Node000001_Node000003"><a xlink:title=" ">
<path fill="none" stroke="#63b8ff" d="M181.18,-28.02C189.71,-26.97 198.32,-25.92 206.76,-24.89"/>
<polygon fill="#63b8ff" stroke="#63b8ff" points="207.44,-28.33 216.94,-23.64 206.59,-21.38 207.44,-28.33"/>
</a>
</g>
</g>
</g>
</svg>
