<?xml version="1.0" encoding="UTF-8" standalone="no"?>
<!DOCTYPE svg PUBLIC "-//W3C//DTD SVG 1.1//EN"
 "http://www.w3.org/Graphics/SVG/1.1/DTD/svg11.dtd">
<!-- Generated by graphviz version 2.43.0 (0)
 -->
<!-- Title: commonpython.cli.cli.CLI._setup_database Pages: 1 -->
<svg width="566pt" height="255pt"
 viewBox="0.00 0.00 566.00 254.50" xmlns="http://www.w3.org/2000/svg" xmlns:xlink="http://www.w3.org/1999/xlink">
<g id="graph0" class="graph" transform="scale(1 1) rotate(0) translate(4 250.5)">
<title>commonpython.cli.cli.CLI._setup_database</title>
<!-- Node1 -->
<g id="Node000001" class="node">
<title>Node1</title>
<g id="a_Node000001"><a xlink:title=" ">
<polygon fill="#999999" stroke="#666666" points="558,-94 415,-94 415,-64 558,-64 558,-94"/>
<text text-anchor="start" x="423" y="-82" font-family="Helvetica,sans-Serif" font-size="10.00">commonpython.cli.cli.CLI.</text>
<text text-anchor="middle" x="486.5" y="-71" font-family="Helvetica,sans-Serif" font-size="10.00">_setup_database</text>
</a>
</g>
</g>
<!-- Node2 -->
<g id="Node000002" class="node">
<title>Node2</title>
<g id="a_Node000002"><a xlink:href="../../d6/dd2/classcommonpython_1_1cli_1_1cli_1_1CLI.html#a6f385c3d725bfb3c1a901c7d702627e0" target="_top" xlink:title=" ">
<polygon fill="white" stroke="#666666" points="379,-182 198,-182 198,-152 379,-152 379,-182"/>
<text text-anchor="start" x="206" y="-170" font-family="Helvetica,sans-Serif" font-size="10.00">commonpython.cli.cli.CLI.execute</text>
<text text-anchor="middle" x="288.5" y="-159" font-family="Helvetica,sans-Serif" font-size="10.00">_query</text>
</a>
</g>
</g>
<!-- Node1&#45;&gt;Node2 -->
<g id="edge1_Node000001_Node000002" class="edge">
<title>Node1&#45;&gt;Node2</title>
<g id="a_edge1_Node000001_Node000002"><a xlink:title=" ">
<path fill="none" stroke="#63b8ff" d="M456.05,-99.77C435.31,-113.61 406.45,-131.34 379,-143 371.15,-146.33 362.72,-149.31 354.28,-151.95"/>
<polygon fill="#63b8ff" stroke="#63b8ff" points="458.1,-102.61 464.42,-94.1 454.18,-96.81 458.1,-102.61"/>
</a>
</g>
</g>
<!-- Node6 -->
<g id="Node000006" class="node">
<title>Node6</title>
<g id="a_Node000006"><a xlink:href="../../d6/dd2/classcommonpython_1_1cli_1_1cli_1_1CLI.html#ad7e1799bc52e9ae732cddeb43e6ec083" target="_top" xlink:title=" ">
<polygon fill="white" stroke="#666666" points="367.5,-116 209.5,-116 209.5,-86 367.5,-86 367.5,-116"/>
<text text-anchor="start" x="217.5" y="-104" font-family="Helvetica,sans-Serif" font-size="10.00">commonpython.cli.cli.CLI.get</text>
<text text-anchor="middle" x="288.5" y="-93" font-family="Helvetica,sans-Serif" font-size="10.00">_table_info</text>
</a>
</g>
</g>
<!-- Node1&#45;&gt;Node6 -->
<g id="edge6_Node000001_Node000006" class="edge">
<title>Node1&#45;&gt;Node6</title>
<g id="a_edge6_Node000001_Node000006"><a xlink:title=" ">
<path fill="none" stroke="#63b8ff" d="M404.62,-88.08C392.44,-89.44 379.91,-90.85 367.79,-92.21"/>
<polygon fill="#63b8ff" stroke="#63b8ff" points="405.19,-91.54 414.74,-86.94 404.41,-84.58 405.19,-91.54"/>
</a>
</g>
</g>
<!-- Node7 -->
<g id="Node000007" class="node">
<title>Node7</title>
<g id="a_Node000007"><a xlink:href="../../d6/dd2/classcommonpython_1_1cli_1_1cli_1_1CLI.html#a167dfb23681ed2d0caa8796d0a432166" target="_top" xlink:title=" ">
<polygon fill="white" stroke="#666666" points="378,-67.5 199,-67.5 199,-48.5 378,-48.5 378,-67.5"/>
<text text-anchor="middle" x="288.5" y="-55.5" font-family="Helvetica,sans-Serif" font-size="10.00">commonpython.cli.cli.CLI.test_all</text>
</a>
</g>
</g>
<!-- Node1&#45;&gt;Node7 -->
<g id="edge8_Node000001_Node000007" class="edge">
<title>Node1&#45;&gt;Node7</title>
<g id="a_edge8_Node000001_Node000007"><a xlink:title=" ">
<path fill="none" stroke="#63b8ff" d="M404.63,-70.34C395.93,-69.4 387.04,-68.45 378.25,-67.51"/>
<polygon fill="#63b8ff" stroke="#63b8ff" points="404.42,-73.83 414.74,-71.42 405.17,-66.87 404.42,-73.83"/>
</a>
</g>
</g>
<!-- Node8 -->
<g id="Node000008" class="node">
<title>Node8</title>
<g id="a_Node000008"><a xlink:href="../../d6/dd2/classcommonpython_1_1cli_1_1cli_1_1CLI.html#a16c2f6fe657560399d1a4f3bd5f563ab" target="_top" xlink:title=" ">
<polygon fill="white" stroke="#666666" points="369,-30 208,-30 208,0 369,0 369,-30"/>
<text text-anchor="start" x="216" y="-18" font-family="Helvetica,sans-Serif" font-size="10.00">commonpython.cli.cli.CLI.test</text>
<text text-anchor="middle" x="288.5" y="-7" font-family="Helvetica,sans-Serif" font-size="10.00">_database</text>
</a>
</g>
</g>
<!-- Node1&#45;&gt;Node8 -->
<g id="edge9_Node000001_Node000008" class="edge">
<title>Node1&#45;&gt;Node8</title>
<g id="a_edge9_Node000001_Node000008"><a xlink:title=" ">
<path fill="none" stroke="#63b8ff" d="M438.53,-60.23C420.1,-53.17 398.7,-45.32 379,-39 369.35,-35.9 359.03,-32.88 348.95,-30.07"/>
<polygon fill="#63b8ff" stroke="#63b8ff" points="437.27,-63.5 447.86,-63.84 439.8,-56.97 437.27,-63.5"/>
</a>
</g>
</g>
<!-- Node2&#45;&gt;Node2 -->
<g id="edge2_Node000002_Node000002" class="edge">
<title>Node2&#45;&gt;Node2</title>
<g id="a_edge2_Node000002_Node000002"><a xlink:title=" ">
<path fill="none" stroke="#63b8ff" d="M323.16,-192.6C318.42,-196.97 306.87,-200 288.5,-200 257.56,-200 245.96,-191.41 253.7,-182.28"/>
<polygon fill="#63b8ff" stroke="#63b8ff" points="326.66,-192.32 323.3,-182.28 319.66,-192.22 326.66,-192.32"/>
</a>
</g>
</g>
<!-- Node3 -->
<g id="Node000003" class="node">
<title>Node3</title>
<g id="a_Node000003"><a xlink:href="../../d6/d85/classcommonpython_1_1database_1_1db2__manager_1_1DB2Manager.html#ae2f69904d2bdd61d49cb9eebb3ad9223" target="_top" xlink:title=" ">
<polygon fill="white" stroke="#666666" points="162,-246.5 0,-246.5 0,-205.5 162,-205.5 162,-246.5"/>
<text text-anchor="start" x="8" y="-234.5" font-family="Helvetica,sans-Serif" font-size="10.00">commonpython.database.db2</text>
<text text-anchor="start" x="8" y="-223.5" font-family="Helvetica,sans-Serif" font-size="10.00">_manager.DB2Manager.get</text>
<text text-anchor="middle" x="81" y="-212.5" font-family="Helvetica,sans-Serif" font-size="10.00">_database_info</text>
</a>
</g>
</g>
<!-- Node2&#45;&gt;Node3 -->
<g id="edge3_Node000002_Node000003" class="edge">
<title>Node2&#45;&gt;Node3</title>
<g id="a_edge3_Node000002_Node000003"><a xlink:title=" ">
<path fill="none" stroke="#63b8ff" d="M225.31,-184.86C202.72,-191.34 177.02,-198.72 153.68,-205.42"/>
<polygon fill="#63b8ff" stroke="#63b8ff" points="226.47,-188.16 235.11,-182.04 224.53,-181.44 226.47,-188.16"/>
</a>
</g>
</g>
<!-- Node4 -->
<g id="Node000004" class="node">
<title>Node4</title>
<g id="a_Node000004"><a xlink:href="../../d6/d85/classcommonpython_1_1database_1_1db2__manager_1_1DB2Manager.html#a2d25bd39c2fedacac875e4c70309890a" target="_top" xlink:title=" ">
<polygon fill="white" stroke="#666666" points="162,-187.5 0,-187.5 0,-146.5 162,-146.5 162,-187.5"/>
<text text-anchor="start" x="8" y="-175.5" font-family="Helvetica,sans-Serif" font-size="10.00">commonpython.database.db2</text>
<text text-anchor="start" x="8" y="-164.5" font-family="Helvetica,sans-Serif" font-size="10.00">_manager.DB2Manager.get</text>
<text text-anchor="middle" x="81" y="-153.5" font-family="Helvetica,sans-Serif" font-size="10.00">_table_info</text>
</a>
</g>
</g>
<!-- Node2&#45;&gt;Node4 -->
<g id="edge4_Node000002_Node000004" class="edge">
<title>Node2&#45;&gt;Node4</title>
<g id="a_edge4_Node000002_Node000004"><a xlink:title=" ">
<path fill="none" stroke="#63b8ff" d="M187.88,-167C179.27,-167 170.63,-167 162.2,-167"/>
<polygon fill="#63b8ff" stroke="#63b8ff" points="187.96,-170.5 197.96,-167 187.96,-163.5 187.96,-170.5"/>
</a>
</g>
</g>
<!-- Node5 -->
<g id="Node000005" class="node">
<title>Node5</title>
<g id="a_Node000005"><a xlink:href="../../d6/d85/classcommonpython_1_1database_1_1db2__manager_1_1DB2Manager.html#aad0b00e23d460a43a9ee47d9caecaaa6" target="_top" xlink:title=" ">
<polygon fill="white" stroke="#666666" points="162,-128.5 0,-128.5 0,-87.5 162,-87.5 162,-128.5"/>
<text text-anchor="start" x="8" y="-116.5" font-family="Helvetica,sans-Serif" font-size="10.00">commonpython.database.db2</text>
<text text-anchor="start" x="8" y="-105.5" font-family="Helvetica,sans-Serif" font-size="10.00">_manager.DB2Manager.test</text>
<text text-anchor="middle" x="81" y="-94.5" font-family="Helvetica,sans-Serif" font-size="10.00">_connection</text>
</a>
</g>
</g>
<!-- Node2&#45;&gt;Node5 -->
<g id="edge5_Node000002_Node000005" class="edge">
<title>Node2&#45;&gt;Node5</title>
<g id="a_edge5_Node000002_Node000005"><a xlink:title=" ">
<path fill="none" stroke="#63b8ff" d="M220.28,-149.22C212.76,-147.15 205.21,-145.05 198,-143 182.02,-138.45 164.85,-133.37 148.76,-128.53"/>
<polygon fill="#63b8ff" stroke="#63b8ff" points="219.56,-152.65 230.13,-151.9 221.4,-145.89 219.56,-152.65"/>
</a>
</g>
</g>
<!-- Node6&#45;&gt;Node6 -->
<g id="edge7_Node000006_Node000006" class="edge">
<title>Node6&#45;&gt;Node6</title>
<g id="a_edge7_Node000006_Node000006"><a xlink:title=" ">
<path fill="none" stroke="#63b8ff" d="M323.16,-126.6C318.42,-130.97 306.87,-134 288.5,-134 257.56,-134 245.96,-125.41 253.7,-116.28"/>
<polygon fill="#63b8ff" stroke="#63b8ff" points="326.66,-126.32 323.3,-116.28 319.66,-126.22 326.66,-126.32"/>
</a>
</g>
</g>
</g>
</svg>
