<?xml version="1.0" encoding="UTF-8" standalone="no"?>
<!DOCTYPE svg PUBLIC "-//W3C//DTD SVG 1.1//EN"
 "http://www.w3.org/Graphics/SVG/1.1/DTD/svg11.dtd">
<!-- Generated by graphviz version 2.43.0 (0)
 -->
<!-- Title: commonpython.messaging.mq_manager.MQManager Pages: 1 -->
<svg width="170pt" height="278pt"
 viewBox="0.00 0.00 170.00 278.00" xmlns="http://www.w3.org/2000/svg" xmlns:xlink="http://www.w3.org/1999/xlink">
<g id="graph0" class="graph" transform="scale(1 1) rotate(0) translate(4 274)">
<title>commonpython.messaging.mq_manager.MQManager</title>
<!-- Node1 -->
<g id="Node000001" class="node">
<title>Node1</title>
<g id="a_Node000001"><a xlink:title=" ">
<polygon fill="#999999" stroke="transparent" points="162,-270 0,-270 0,0 162,0 162,-270"/>
<text text-anchor="start" x="5" y="-258" font-family="Helvetica,sans-Serif" font-size="10.00">commonpython.messaging.mq</text>
<text text-anchor="start" x="25.5" y="-247" font-family="Helvetica,sans-Serif" font-size="10.00">_manager.MQManager</text>
<text text-anchor="start" x="7.5" y="-232" font-family="Helvetica,sans-Serif" font-size="10.00">+</text>
<text text-anchor="start" x="24" y="-232" font-family="Helvetica,sans-Serif" font-size="10.00">config</text>
<text text-anchor="start" x="7.5" y="-217" font-family="Helvetica,sans-Serif" font-size="10.00">+</text>
<text text-anchor="start" x="24" y="-217" font-family="Helvetica,sans-Serif" font-size="10.00">logger</text>
<text text-anchor="start" x="7.5" y="-202" font-family="Helvetica,sans-Serif" font-size="10.00">+</text>
<text text-anchor="start" x="24" y="-202" font-family="Helvetica,sans-Serif" font-size="10.00">connection_info</text>
<text text-anchor="start" x="7.5" y="-187" font-family="Helvetica,sans-Serif" font-size="10.00">+</text>
<text text-anchor="start" x="24" y="-187" font-family="Helvetica,sans-Serif" font-size="10.00">connected</text>
<text text-anchor="start" x="7.5" y="-172" font-family="Helvetica,sans-Serif" font-size="10.00">+</text>
<text text-anchor="start" x="24" y="-172" font-family="Helvetica,sans-Serif" font-size="10.00">__init__()</text>
<text text-anchor="start" x="7.5" y="-157" font-family="Helvetica,sans-Serif" font-size="10.00">+</text>
<text text-anchor="start" x="24" y="-157" font-family="Helvetica,sans-Serif" font-size="10.00">connect()</text>
<text text-anchor="start" x="7.5" y="-142" font-family="Helvetica,sans-Serif" font-size="10.00">+</text>
<text text-anchor="start" x="24" y="-142" font-family="Helvetica,sans-Serif" font-size="10.00">disconnect()</text>
<text text-anchor="start" x="7.5" y="-127" font-family="Helvetica,sans-Serif" font-size="10.00">+</text>
<text text-anchor="start" x="24" y="-127" font-family="Helvetica,sans-Serif" font-size="10.00">is_connected()</text>
<text text-anchor="start" x="7.5" y="-112" font-family="Helvetica,sans-Serif" font-size="10.00">+</text>
<text text-anchor="start" x="24" y="-112" font-family="Helvetica,sans-Serif" font-size="10.00">put_message()</text>
<text text-anchor="start" x="7.5" y="-97" font-family="Helvetica,sans-Serif" font-size="10.00">+</text>
<text text-anchor="start" x="24" y="-97" font-family="Helvetica,sans-Serif" font-size="10.00">get_message()</text>
<text text-anchor="start" x="7.5" y="-82" font-family="Helvetica,sans-Serif" font-size="10.00">+</text>
<text text-anchor="start" x="24" y="-82" font-family="Helvetica,sans-Serif" font-size="10.00">browse_message()</text>
<text text-anchor="start" x="7.5" y="-67" font-family="Helvetica,sans-Serif" font-size="10.00">+</text>
<text text-anchor="start" x="24" y="-67" font-family="Helvetica,sans-Serif" font-size="10.00">get_queue_depth()</text>
<text text-anchor="start" x="7.5" y="-52" font-family="Helvetica,sans-Serif" font-size="10.00">+</text>
<text text-anchor="start" x="24" y="-52" font-family="Helvetica,sans-Serif" font-size="10.00">purge_queue()</text>
<text text-anchor="start" x="7.5" y="-37" font-family="Helvetica,sans-Serif" font-size="10.00">+</text>
<text text-anchor="start" x="24" y="-37" font-family="Helvetica,sans-Serif" font-size="10.00">test_connection()</text>
<text text-anchor="start" x="7.5" y="-22" font-family="Helvetica,sans-Serif" font-size="10.00">#</text>
<text text-anchor="start" x="24" y="-22" font-family="Helvetica,sans-Serif" font-size="10.00">_build_connection_info()</text>
<text text-anchor="start" x="7.5" y="-7" font-family="Helvetica,sans-Serif" font-size="10.00">#</text>
<text text-anchor="start" x="24" y="-7" font-family="Helvetica,sans-Serif" font-size="10.00">_execute_mq_command()</text>
<polygon fill="#666666" stroke="#666666" points="0,-242 0,-242 162,-242 162,-242 0,-242"/>
<polygon fill="#666666" stroke="#666666" points="0,-182 0,-182 22,-182 22,-182 0,-182"/>
<polygon fill="#666666" stroke="#666666" points="22,-182 22,-182 162,-182 162,-182 22,-182"/>
<polygon fill="none" stroke="#666666" points="0,0 0,-270 162,-270 162,0 0,0"/>
</a>
</g>
</g>
</g>
</svg>
