<?xml version="1.0" encoding="UTF-8" standalone="no"?>
<!DOCTYPE svg PUBLIC "-//W3C//DTD SVG 1.1//EN"
 "http://www.w3.org/Graphics/SVG/1.1/DTD/svg11.dtd">
<!-- Generated by graphviz version 2.43.0 (0)
 -->
<!-- Title: commonpython.logging.logger_manager.LoggerManager._setup_logger Pages: 1 -->
<svg width="376pt" height="108pt"
 viewBox="0.00 0.00 376.00 108.00" xmlns="http://www.w3.org/2000/svg" xmlns:xlink="http://www.w3.org/1999/xlink">
<g id="graph0" class="graph" transform="scale(1 1) rotate(0) translate(4 104)">
<title>commonpython.logging.logger_manager.LoggerManager._setup_logger</title>
<!-- Node1 -->
<g id="Node000001" class="node">
<title>Node1</title>
<g id="a_Node000001"><a xlink:title=" ">
<polygon fill="#999999" stroke="#666666" points="166,-70 0,-70 0,-29 166,-29 166,-70"/>
<text text-anchor="start" x="8" y="-58" font-family="Helvetica,sans-Serif" font-size="10.00">commonpython.logging.logger</text>
<text text-anchor="start" x="8" y="-47" font-family="Helvetica,sans-Serif" font-size="10.00">_manager.LoggerManager.</text>
<text text-anchor="middle" x="83" y="-36" font-family="Helvetica,sans-Serif" font-size="10.00">_setup_logger</text>
</a>
</g>
</g>
<!-- Node2 -->
<g id="Node000002" class="node">
<title>Node2</title>
<g id="a_Node000002"><a xlink:href="../../d6/dc2/classcommonpython_1_1logging_1_1logger__manager_1_1LoggerManager.html#ad0135f96db8289a7e47a9cdea31d24ac" target="_top" xlink:title=" ">
<polygon fill="white" stroke="#666666" points="368,-100 202,-100 202,-59 368,-59 368,-100"/>
<text text-anchor="start" x="210" y="-88" font-family="Helvetica,sans-Serif" font-size="10.00">commonpython.logging.logger</text>
<text text-anchor="start" x="210" y="-77" font-family="Helvetica,sans-Serif" font-size="10.00">_manager.LoggerManager.</text>
<text text-anchor="middle" x="285" y="-66" font-family="Helvetica,sans-Serif" font-size="10.00">_setup_console_handler</text>
</a>
</g>
</g>
<!-- Node1&#45;&gt;Node2 -->
<g id="edge1_Node000001_Node000002" class="edge">
<title>Node1&#45;&gt;Node2</title>
<g id="a_edge1_Node000001_Node000002"><a xlink:title=" ">
<path fill="none" stroke="#63b8ff" d="M166.21,-61.83C174.65,-63.1 183.27,-64.39 191.81,-65.67"/>
<polygon fill="#63b8ff" stroke="#63b8ff" points="191.37,-69.15 201.78,-67.17 192.41,-62.22 191.37,-69.15"/>
</a>
</g>
</g>
<!-- Node3 -->
<g id="Node000003" class="node">
<title>Node3</title>
<g id="a_Node000003"><a xlink:href="../../d6/dc2/classcommonpython_1_1logging_1_1logger__manager_1_1LoggerManager.html#af458993c0641a32d7eff569e6e97f762" target="_top" xlink:title=" ">
<polygon fill="white" stroke="#666666" points="368,-41 202,-41 202,0 368,0 368,-41"/>
<text text-anchor="start" x="210" y="-29" font-family="Helvetica,sans-Serif" font-size="10.00">commonpython.logging.logger</text>
<text text-anchor="start" x="210" y="-18" font-family="Helvetica,sans-Serif" font-size="10.00">_manager.LoggerManager.</text>
<text text-anchor="middle" x="285" y="-7" font-family="Helvetica,sans-Serif" font-size="10.00">_setup_file_handler</text>
</a>
</g>
</g>
<!-- Node1&#45;&gt;Node3 -->
<g id="edge2_Node000001_Node000003" class="edge">
<title>Node1&#45;&gt;Node3</title>
<g id="a_edge2_Node000001_Node000003"><a xlink:title=" ">
<path fill="none" stroke="#63b8ff" d="M166.21,-37.58C174.65,-36.36 183.27,-35.11 191.81,-33.87"/>
<polygon fill="#63b8ff" stroke="#63b8ff" points="192.39,-37.32 201.78,-32.42 191.38,-30.39 192.39,-37.32"/>
</a>
</g>
</g>
</g>
</svg>
