<?xml version="1.0" encoding="UTF-8" standalone="no"?>
<!DOCTYPE svg PUBLIC "-//W3C//DTD SVG 1.1//EN"
 "http://www.w3.org/Graphics/SVG/1.1/DTD/svg11.dtd">
<!-- Generated by graphviz version 2.43.0 (0)
 -->
<!-- Title: commonpython.framework.component_base.ComponentBase.execute_query Pages: 1 -->
<svg width="413pt" height="167pt"
 viewBox="0.00 0.00 413.00 167.00" xmlns="http://www.w3.org/2000/svg" xmlns:xlink="http://www.w3.org/1999/xlink">
<g id="graph0" class="graph" transform="scale(1 1) rotate(0) translate(4 163)">
<title>commonpython.framework.component_base.ComponentBase.execute_query</title>
<!-- Node1 -->
<g id="Node000001" class="node">
<title>Node1</title>
<g id="a_Node000001"><a xlink:title=" ">
<polygon fill="#999999" stroke="#666666" points="405,-94.5 198,-94.5 198,-64.5 405,-64.5 405,-94.5"/>
<text text-anchor="start" x="206" y="-82.5" font-family="Helvetica,sans-Serif" font-size="10.00">commonpython.framework.component</text>
<text text-anchor="middle" x="301.5" y="-71.5" font-family="Helvetica,sans-Serif" font-size="10.00">_base.ComponentBase.execute_query</text>
</a>
</g>
</g>
<!-- Node1&#45;&gt;Node1 -->
<g id="edge1_Node000001_Node000001" class="edge">
<title>Node1&#45;&gt;Node1</title>
<g id="a_edge1_Node000001_Node000001"><a xlink:title=" ">
<path fill="none" stroke="#63b8ff" d="M340.01,-105.1C334.75,-109.47 321.91,-112.5 301.5,-112.5 267.12,-112.5 254.23,-103.91 262.83,-94.78"/>
<polygon fill="#63b8ff" stroke="#63b8ff" points="343.51,-104.83 340.17,-94.78 336.51,-104.72 343.51,-104.83"/>
</a>
</g>
</g>
<!-- Node2 -->
<g id="Node000002" class="node">
<title>Node2</title>
<g id="a_Node000002"><a xlink:href="../../d6/d85/classcommonpython_1_1database_1_1db2__manager_1_1DB2Manager.html#ae2f69904d2bdd61d49cb9eebb3ad9223" target="_top" xlink:title=" ">
<polygon fill="white" stroke="#666666" points="162,-159 0,-159 0,-118 162,-118 162,-159"/>
<text text-anchor="start" x="8" y="-147" font-family="Helvetica,sans-Serif" font-size="10.00">commonpython.database.db2</text>
<text text-anchor="start" x="8" y="-136" font-family="Helvetica,sans-Serif" font-size="10.00">_manager.DB2Manager.get</text>
<text text-anchor="middle" x="81" y="-125" font-family="Helvetica,sans-Serif" font-size="10.00">_database_info</text>
</a>
</g>
</g>
<!-- Node1&#45;&gt;Node2 -->
<g id="edge2_Node000001_Node000002" class="edge">
<title>Node1&#45;&gt;Node2</title>
<g id="a_edge2_Node000001_Node000002"><a xlink:title=" ">
<path fill="none" stroke="#63b8ff" d="M235.02,-97.18C210.85,-103.71 183.25,-111.16 158.21,-117.92"/>
<polygon fill="#63b8ff" stroke="#63b8ff" points="236.06,-100.53 244.8,-94.54 234.23,-93.77 236.06,-100.53"/>
</a>
</g>
</g>
<!-- Node3 -->
<g id="Node000003" class="node">
<title>Node3</title>
<g id="a_Node000003"><a xlink:href="../../d6/d85/classcommonpython_1_1database_1_1db2__manager_1_1DB2Manager.html#a2d25bd39c2fedacac875e4c70309890a" target="_top" xlink:title=" ">
<polygon fill="white" stroke="#666666" points="162,-100 0,-100 0,-59 162,-59 162,-100"/>
<text text-anchor="start" x="8" y="-88" font-family="Helvetica,sans-Serif" font-size="10.00">commonpython.database.db2</text>
<text text-anchor="start" x="8" y="-77" font-family="Helvetica,sans-Serif" font-size="10.00">_manager.DB2Manager.get</text>
<text text-anchor="middle" x="81" y="-66" font-family="Helvetica,sans-Serif" font-size="10.00">_table_info</text>
</a>
</g>
</g>
<!-- Node1&#45;&gt;Node3 -->
<g id="edge3_Node000001_Node000003" class="edge">
<title>Node1&#45;&gt;Node3</title>
<g id="a_edge3_Node000001_Node000003"><a xlink:title=" ">
<path fill="none" stroke="#63b8ff" d="M187.85,-79.5C179.23,-79.5 170.64,-79.5 162.3,-79.5"/>
<polygon fill="#63b8ff" stroke="#63b8ff" points="187.97,-83 197.97,-79.5 187.97,-76 187.97,-83"/>
</a>
</g>
</g>
<!-- Node4 -->
<g id="Node000004" class="node">
<title>Node4</title>
<g id="a_Node000004"><a xlink:href="../../d6/d85/classcommonpython_1_1database_1_1db2__manager_1_1DB2Manager.html#aad0b00e23d460a43a9ee47d9caecaaa6" target="_top" xlink:title=" ">
<polygon fill="white" stroke="#666666" points="162,-41 0,-41 0,0 162,0 162,-41"/>
<text text-anchor="start" x="8" y="-29" font-family="Helvetica,sans-Serif" font-size="10.00">commonpython.database.db2</text>
<text text-anchor="start" x="8" y="-18" font-family="Helvetica,sans-Serif" font-size="10.00">_manager.DB2Manager.test</text>
<text text-anchor="middle" x="81" y="-7" font-family="Helvetica,sans-Serif" font-size="10.00">_connection</text>
</a>
</g>
</g>
<!-- Node1&#45;&gt;Node4 -->
<g id="edge4_Node000001_Node000004" class="edge">
<title>Node1&#45;&gt;Node4</title>
<g id="a_edge4_Node000001_Node000004"><a xlink:title=" ">
<path fill="none" stroke="#63b8ff" d="M235.02,-61.82C210.85,-55.29 183.25,-47.84 158.21,-41.08"/>
<polygon fill="#63b8ff" stroke="#63b8ff" points="234.23,-65.23 244.8,-64.46 236.06,-58.47 234.23,-65.23"/>
</a>
</g>
</g>
</g>
</svg>
