<?xml version="1.0" encoding="UTF-8" standalone="no"?>
<!DOCTYPE svg PUBLIC "-//W3C//DTD SVG 1.1//EN"
 "http://www.w3.org/Graphics/SVG/1.1/DTD/svg11.dtd">
<!-- Generated by graphviz version 2.43.0 (0)
 -->
<!-- Title: commonpython.framework.component_base.ComponentBase.execute_update Pages: 1 -->
<svg width="460pt" height="86pt"
 viewBox="0.00 0.00 460.00 86.00" xmlns="http://www.w3.org/2000/svg" xmlns:xlink="http://www.w3.org/1999/xlink">
<g id="graph0" class="graph" transform="scale(1 1) rotate(0) translate(4 82)">
<title>commonpython.framework.component_base.ComponentBase.execute_update</title>
<!-- Node1 -->
<g id="Node000001" class="node">
<title>Node1</title>
<g id="a_Node000001"><a xlink:title=" ">
<polygon fill="#999999" stroke="#666666" points="209,-54 0,-54 0,-24 209,-24 209,-54"/>
<text text-anchor="start" x="8" y="-42" font-family="Helvetica,sans-Serif" font-size="10.00">commonpython.framework.component</text>
<text text-anchor="middle" x="104.5" y="-31" font-family="Helvetica,sans-Serif" font-size="10.00">_base.ComponentBase.execute_update</text>
</a>
</g>
</g>
<!-- Node1&#45;&gt;Node1 -->
<g id="edge1_Node000001_Node000001" class="edge">
<title>Node1&#45;&gt;Node1</title>
<g id="a_edge1_Node000001_Node000001"><a xlink:title=" ">
<path fill="none" stroke="#63b8ff" d="M61.61,-54.28C52.08,-63.41 66.38,-72 104.5,-72 127.14,-72 141.37,-68.97 147.21,-64.6"/>
<polygon fill="#63b8ff" stroke="#63b8ff" points="150.71,-64.34 147.39,-54.28 143.72,-64.21 150.71,-64.34"/>
</a>
</g>
</g>
<!-- Node2 -->
<g id="Node000002" class="node">
<title>Node2</title>
<g id="a_Node000002"><a xlink:href="../../dd/dfd/classcommonpython_1_1framework_1_1component__base_1_1ComponentBase.html#a52cf5bc5fef500fcb0ec6a1147f5090c" target="_top" xlink:title=" ">
<polygon fill="white" stroke="#666666" points="452,-78 245,-78 245,-48 452,-48 452,-78"/>
<text text-anchor="start" x="253" y="-66" font-family="Helvetica,sans-Serif" font-size="10.00">commonpython.framework.component</text>
<text text-anchor="middle" x="348.5" y="-55" font-family="Helvetica,sans-Serif" font-size="10.00">_base.ComponentBase.log_error</text>
</a>
</g>
</g>
<!-- Node1&#45;&gt;Node2 -->
<g id="edge2_Node000001_Node000002" class="edge">
<title>Node1&#45;&gt;Node2</title>
<g id="a_edge2_Node000001_Node000002"><a xlink:title=" ">
<path fill="none" stroke="#63b8ff" d="M209.18,-49.28C217.67,-50.12 226.26,-50.98 234.81,-51.82"/>
<polygon fill="#63b8ff" stroke="#63b8ff" points="234.51,-55.31 244.8,-52.82 235.2,-48.35 234.51,-55.31"/>
</a>
</g>
</g>
<!-- Node3 -->
<g id="Node000003" class="node">
<title>Node3</title>
<g id="a_Node000003"><a xlink:href="../../dd/dfd/classcommonpython_1_1framework_1_1component__base_1_1ComponentBase.html#aeb18efa5983399481ec92169a058ba9d" target="_top" xlink:title=" ">
<polygon fill="white" stroke="#666666" points="452,-30 245,-30 245,0 452,0 452,-30"/>
<text text-anchor="start" x="253" y="-18" font-family="Helvetica,sans-Serif" font-size="10.00">commonpython.framework.component</text>
<text text-anchor="middle" x="348.5" y="-7" font-family="Helvetica,sans-Serif" font-size="10.00">_base.ComponentBase.log_info</text>
</a>
</g>
</g>
<!-- Node1&#45;&gt;Node3 -->
<g id="edge3_Node000001_Node000003" class="edge">
<title>Node1&#45;&gt;Node3</title>
<g id="a_edge3_Node000001_Node000003"><a xlink:title=" ">
<path fill="none" stroke="#63b8ff" d="M209.18,-28.72C217.67,-27.88 226.26,-27.02 234.81,-26.18"/>
<polygon fill="#63b8ff" stroke="#63b8ff" points="235.2,-29.65 244.8,-25.18 234.51,-22.69 235.2,-29.65"/>
</a>
</g>
</g>
</g>
</svg>
