<?xml version="1.0" encoding="UTF-8" standalone="no"?>
<!DOCTYPE svg PUBLIC "-//W3C//DTD SVG 1.1//EN"
 "http://www.w3.org/Graphics/SVG/1.1/DTD/svg11.dtd">
<!-- Generated by graphviz version 2.43.0 (0)
 -->
<!-- Title: commonpython.framework.component_base.ComponentBase.disconnect_database Pages: 1 -->
<svg width="458pt" height="86pt"
 viewBox="0.00 0.00 458.00 86.00" xmlns="http://www.w3.org/2000/svg" xmlns:xlink="http://www.w3.org/1999/xlink">
<g id="graph0" class="graph" transform="scale(1 1) rotate(0) translate(4 82)">
<title>commonpython.framework.component_base.ComponentBase.disconnect_database</title>
<!-- Node1 -->
<g id="Node000001" class="node">
<title>Node1</title>
<g id="a_Node000001"><a xlink:title=" ">
<polygon fill="#999999" stroke="#666666" points="207,-59.5 0,-59.5 0,-18.5 207,-18.5 207,-59.5"/>
<text text-anchor="start" x="8" y="-47.5" font-family="Helvetica,sans-Serif" font-size="10.00">commonpython.framework.component</text>
<text text-anchor="start" x="8" y="-36.5" font-family="Helvetica,sans-Serif" font-size="10.00">_base.ComponentBase.disconnect</text>
<text text-anchor="middle" x="103.5" y="-25.5" font-family="Helvetica,sans-Serif" font-size="10.00">_database</text>
</a>
</g>
</g>
<!-- Node2 -->
<g id="Node000002" class="node">
<title>Node2</title>
<g id="a_Node000002"><a xlink:href="../../dd/dfd/classcommonpython_1_1framework_1_1component__base_1_1ComponentBase.html#a52cf5bc5fef500fcb0ec6a1147f5090c" target="_top" xlink:title=" ">
<polygon fill="white" stroke="#666666" points="450,-78 243,-78 243,-48 450,-48 450,-78"/>
<text text-anchor="start" x="251" y="-66" font-family="Helvetica,sans-Serif" font-size="10.00">commonpython.framework.component</text>
<text text-anchor="middle" x="346.5" y="-55" font-family="Helvetica,sans-Serif" font-size="10.00">_base.ComponentBase.log_error</text>
</a>
</g>
</g>
<!-- Node1&#45;&gt;Node2 -->
<g id="edge1_Node000001_Node000002" class="edge">
<title>Node1&#45;&gt;Node2</title>
<g id="a_edge1_Node000001_Node000002"><a xlink:title=" ">
<path fill="none" stroke="#63b8ff" d="M207.06,-49.21C215.53,-50.06 224.12,-50.91 232.66,-51.76"/>
<polygon fill="#63b8ff" stroke="#63b8ff" points="232.35,-55.25 242.65,-52.76 233.05,-48.28 232.35,-55.25"/>
</a>
</g>
</g>
<!-- Node3 -->
<g id="Node000003" class="node">
<title>Node3</title>
<g id="a_Node000003"><a xlink:href="../../dd/dfd/classcommonpython_1_1framework_1_1component__base_1_1ComponentBase.html#aeb18efa5983399481ec92169a058ba9d" target="_top" xlink:title=" ">
<polygon fill="white" stroke="#666666" points="450,-30 243,-30 243,0 450,0 450,-30"/>
<text text-anchor="start" x="251" y="-18" font-family="Helvetica,sans-Serif" font-size="10.00">commonpython.framework.component</text>
<text text-anchor="middle" x="346.5" y="-7" font-family="Helvetica,sans-Serif" font-size="10.00">_base.ComponentBase.log_info</text>
</a>
</g>
</g>
<!-- Node1&#45;&gt;Node3 -->
<g id="edge2_Node000001_Node000003" class="edge">
<title>Node1&#45;&gt;Node3</title>
<g id="a_edge2_Node000001_Node000003"><a xlink:title=" ">
<path fill="none" stroke="#63b8ff" d="M207.06,-28.79C215.53,-27.94 224.12,-27.09 232.66,-26.24"/>
<polygon fill="#63b8ff" stroke="#63b8ff" points="233.05,-29.72 242.65,-25.24 232.35,-22.75 233.05,-29.72"/>
</a>
</g>
</g>
</g>
</svg>
