<?xml version="1.0" encoding="UTF-8" standalone="no"?>
<!DOCTYPE svg PUBLIC "-//W3C//DTD SVG 1.1//EN"
 "http://www.w3.org/Graphics/SVG/1.1/DTD/svg11.dtd">
<!-- Generated by graphviz version 2.43.0 (0)
 -->
<!-- Title: commonpython.framework.component_base.ComponentBase.log_error Pages: 1 -->
<svg width="707pt" height="455pt"
 viewBox="0.00 0.00 707.00 454.50" xmlns="http://www.w3.org/2000/svg" xmlns:xlink="http://www.w3.org/1999/xlink">
<g id="graph0" class="graph" transform="scale(1 1) rotate(0) translate(4 450.5)">
<title>commonpython.framework.component_base.ComponentBase.log_error</title>
<!-- Node1 -->
<g id="Node000001" class="node">
<title>Node1</title>
<g id="a_Node000001"><a xlink:title=" ">
<polygon fill="#999999" stroke="#666666" points="699,-228 492,-228 492,-198 699,-198 699,-228"/>
<text text-anchor="start" x="500" y="-216" font-family="Helvetica,sans-Serif" font-size="10.00">commonpython.framework.component</text>
<text text-anchor="middle" x="595.5" y="-205" font-family="Helvetica,sans-Serif" font-size="10.00">_base.ComponentBase.log_error</text>
</a>
</g>
</g>
<!-- Node2 -->
<g id="Node000002" class="node">
<title>Node2</title>
<g id="a_Node000002"><a xlink:href="../../dd/dfd/classcommonpython_1_1framework_1_1component__base_1_1ComponentBase.html#a5bdc93172b8871828ba2422a4ebb1933" target="_top" xlink:title=" ">
<polygon fill="white" stroke="#666666" points="451,-446.5 244,-446.5 244,-405.5 451,-405.5 451,-446.5"/>
<text text-anchor="start" x="252" y="-434.5" font-family="Helvetica,sans-Serif" font-size="10.00">commonpython.framework.component</text>
<text text-anchor="start" x="252" y="-423.5" font-family="Helvetica,sans-Serif" font-size="10.00">_base.ComponentBase.connect</text>
<text text-anchor="middle" x="347.5" y="-412.5" font-family="Helvetica,sans-Serif" font-size="10.00">_database</text>
</a>
</g>
</g>
<!-- Node1&#45;&gt;Node2 -->
<g id="edge1_Node000001_Node000002" class="edge">
<title>Node1&#45;&gt;Node2</title>
<g id="a_edge1_Node000001_Node000002"><a xlink:title=" ">
<path fill="none" stroke="#63b8ff" d="M582.99,-237.27C562.91,-276.9 517.68,-355.3 456,-397 451.36,-400.14 446.38,-402.94 441.22,-405.44"/>
<polygon fill="#63b8ff" stroke="#63b8ff" points="586.24,-238.58 587.54,-228.07 579.97,-235.48 586.24,-238.58"/>
</a>
</g>
</g>
<!-- Node3 -->
<g id="Node000003" class="node">
<title>Node3</title>
<g id="a_Node000003"><a xlink:href="../../dd/dfd/classcommonpython_1_1framework_1_1component__base_1_1ComponentBase.html#ae379666bcccb544f62d8355ad90ca296" target="_top" xlink:title=" ">
<polygon fill="white" stroke="#666666" points="451,-387.5 244,-387.5 244,-346.5 451,-346.5 451,-387.5"/>
<text text-anchor="start" x="252" y="-375.5" font-family="Helvetica,sans-Serif" font-size="10.00">commonpython.framework.component</text>
<text text-anchor="start" x="252" y="-364.5" font-family="Helvetica,sans-Serif" font-size="10.00">_base.ComponentBase.connect</text>
<text text-anchor="middle" x="347.5" y="-353.5" font-family="Helvetica,sans-Serif" font-size="10.00">_messaging</text>
</a>
</g>
</g>
<!-- Node1&#45;&gt;Node3 -->
<g id="edge2_Node000001_Node000003" class="edge">
<title>Node1&#45;&gt;Node3</title>
<g id="a_edge2_Node000001_Node000003"><a xlink:title=" ">
<path fill="none" stroke="#63b8ff" d="M575.36,-235.92C550.64,-264.07 504.93,-311.34 456,-338 450.23,-341.14 444.09,-343.96 437.79,-346.49"/>
<polygon fill="#63b8ff" stroke="#63b8ff" points="578.16,-238.04 582.05,-228.19 572.86,-233.46 578.16,-238.04"/>
</a>
</g>
</g>
<!-- Node4 -->
<g id="Node000004" class="node">
<title>Node4</title>
<g id="a_Node000004"><a xlink:href="../../dd/dfd/classcommonpython_1_1framework_1_1component__base_1_1ComponentBase.html#a86c7da62143fe31bbd4a0b4e44198884" target="_top" xlink:title=" ">
<polygon fill="white" stroke="#666666" points="451,-328.5 244,-328.5 244,-287.5 451,-287.5 451,-328.5"/>
<text text-anchor="start" x="252" y="-316.5" font-family="Helvetica,sans-Serif" font-size="10.00">commonpython.framework.component</text>
<text text-anchor="start" x="252" y="-305.5" font-family="Helvetica,sans-Serif" font-size="10.00">_base.ComponentBase.disconnect</text>
<text text-anchor="middle" x="347.5" y="-294.5" font-family="Helvetica,sans-Serif" font-size="10.00">_database</text>
</a>
</g>
</g>
<!-- Node1&#45;&gt;Node4 -->
<g id="edge3_Node000001_Node000004" class="edge">
<title>Node1&#45;&gt;Node4</title>
<g id="a_edge3_Node000001_Node000004"><a xlink:title=" ">
<path fill="none" stroke="#63b8ff" d="M557.55,-232.87C530.09,-247.07 491.42,-265.91 456,-279 447.93,-281.98 439.42,-284.8 430.86,-287.43"/>
<polygon fill="#63b8ff" stroke="#63b8ff" points="559.52,-235.79 566.76,-228.06 556.28,-229.58 559.52,-235.79"/>
</a>
</g>
</g>
<!-- Node5 -->
<g id="Node000005" class="node">
<title>Node5</title>
<g id="a_Node000005"><a xlink:href="../../dd/dfd/classcommonpython_1_1framework_1_1component__base_1_1ComponentBase.html#a685bc345dc9edae2ee8748918f7b86a8" target="_top" xlink:title=" ">
<polygon fill="white" stroke="#666666" points="451,-269.5 244,-269.5 244,-228.5 451,-228.5 451,-269.5"/>
<text text-anchor="start" x="252" y="-257.5" font-family="Helvetica,sans-Serif" font-size="10.00">commonpython.framework.component</text>
<text text-anchor="start" x="252" y="-246.5" font-family="Helvetica,sans-Serif" font-size="10.00">_base.ComponentBase.disconnect</text>
<text text-anchor="middle" x="347.5" y="-235.5" font-family="Helvetica,sans-Serif" font-size="10.00">_messaging</text>
</a>
</g>
</g>
<!-- Node1&#45;&gt;Node5 -->
<g id="edge4_Node000001_Node000005" class="edge">
<title>Node1&#45;&gt;Node5</title>
<g id="a_edge4_Node000001_Node000005"><a xlink:title=" ">
<path fill="none" stroke="#63b8ff" d="M481.82,-229.49C471.64,-230.98 461.36,-232.48 451.27,-233.96"/>
<polygon fill="#63b8ff" stroke="#63b8ff" points="482.57,-232.92 491.96,-228.01 481.55,-225.99 482.57,-232.92"/>
</a>
</g>
</g>
<!-- Node6 -->
<g id="Node000006" class="node">
<title>Node6</title>
<g id="a_Node000006"><a xlink:href="../../dd/dfd/classcommonpython_1_1framework_1_1component__base_1_1ComponentBase.html#a2f8bbb65ba07035c8ee79882d95d7238" target="_top" xlink:title=" ">
<polygon fill="white" stroke="#666666" points="451,-192 244,-192 244,-162 451,-162 451,-192"/>
<text text-anchor="start" x="252" y="-180" font-family="Helvetica,sans-Serif" font-size="10.00">commonpython.framework.component</text>
<text text-anchor="middle" x="347.5" y="-169" font-family="Helvetica,sans-Serif" font-size="10.00">_base.ComponentBase.execute_query</text>
</a>
</g>
</g>
<!-- Node1&#45;&gt;Node6 -->
<g id="edge5_Node000001_Node000006" class="edge">
<title>Node1&#45;&gt;Node6</title>
<g id="a_edge5_Node000001_Node000006"><a xlink:title=" ">
<path fill="none" stroke="#63b8ff" d="M481.82,-196.51C471.64,-195.02 461.36,-193.52 451.27,-192.04"/>
<polygon fill="#63b8ff" stroke="#63b8ff" points="481.55,-200.01 491.96,-197.99 482.57,-193.08 481.55,-200.01"/>
</a>
</g>
</g>
<!-- Node10 -->
<g id="Node000010" class="node">
<title>Node10</title>
<g id="a_Node000010"><a xlink:href="../../dd/dfd/classcommonpython_1_1framework_1_1component__base_1_1ComponentBase.html#a5f2976b6d101f240778bf68d83bc50e6" target="_top" xlink:title=" ">
<polygon fill="white" stroke="#666666" points="452,-126 243,-126 243,-96 452,-96 452,-126"/>
<text text-anchor="start" x="251" y="-114" font-family="Helvetica,sans-Serif" font-size="10.00">commonpython.framework.component</text>
<text text-anchor="middle" x="347.5" y="-103" font-family="Helvetica,sans-Serif" font-size="10.00">_base.ComponentBase.execute_update</text>
</a>
</g>
</g>
<!-- Node1&#45;&gt;Node10 -->
<g id="edge10_Node000001_Node000010" class="edge">
<title>Node1&#45;&gt;Node10</title>
<g id="a_edge10_Node000001_Node000010"><a xlink:title=" ">
<path fill="none" stroke="#63b8ff" d="M551.52,-193.9C524.26,-181.91 488.19,-166.25 456,-153 433.58,-143.77 408.34,-133.88 387.95,-126.02"/>
<polygon fill="#63b8ff" stroke="#63b8ff" points="550.22,-197.15 560.78,-197.98 553.04,-190.75 550.22,-197.15"/>
</a>
</g>
</g>
<!-- Node12 -->
<g id="Node000012" class="node">
<title>Node12</title>
<g id="a_Node000012"><a xlink:href="../../dd/dfd/classcommonpython_1_1framework_1_1component__base_1_1ComponentBase.html#a2228aa89402202332cfcb93d202c4154" target="_top" xlink:title=" ">
<polygon fill="white" stroke="#666666" points="456,-78 239,-78 239,-48 456,-48 456,-78"/>
<text text-anchor="start" x="247" y="-66" font-family="Helvetica,sans-Serif" font-size="10.00">commonpython.framework.component</text>
<text text-anchor="middle" x="347.5" y="-55" font-family="Helvetica,sans-Serif" font-size="10.00">_base.ComponentBase.receive_message</text>
</a>
</g>
</g>
<!-- Node1&#45;&gt;Node12 -->
<g id="edge13_Node000001_Node000012" class="edge">
<title>Node1&#45;&gt;Node12</title>
<g id="a_edge13_Node000001_Node000012"><a xlink:title=" ">
<path fill="none" stroke="#63b8ff" d="M575.97,-189.99C551.58,-161.31 505.89,-112.9 456,-87 449.38,-83.56 442.28,-80.62 435.01,-78.09"/>
<polygon fill="#63b8ff" stroke="#63b8ff" points="573.46,-192.44 582.56,-197.87 578.83,-187.95 573.46,-192.44"/>
</a>
</g>
</g>
<!-- Node13 -->
<g id="Node000013" class="node">
<title>Node13</title>
<g id="a_Node000013"><a xlink:href="../../dd/dfd/classcommonpython_1_1framework_1_1component__base_1_1ComponentBase.html#adda9cbd0db7fede19462bd40f172ec29" target="_top" xlink:title=" ">
<polygon fill="white" stroke="#666666" points="451,-30 244,-30 244,0 451,0 451,-30"/>
<text text-anchor="start" x="252" y="-18" font-family="Helvetica,sans-Serif" font-size="10.00">commonpython.framework.component</text>
<text text-anchor="middle" x="347.5" y="-7" font-family="Helvetica,sans-Serif" font-size="10.00">_base.ComponentBase.send_message</text>
</a>
</g>
</g>
<!-- Node1&#45;&gt;Node13 -->
<g id="edge14_Node000001_Node000013" class="edge">
<title>Node1&#45;&gt;Node13</title>
<g id="a_edge14_Node000001_Node000013"><a xlink:title=" ">
<path fill="none" stroke="#63b8ff" d="M582.37,-188.91C561.84,-150.75 516.5,-76.85 456,-39 450.49,-35.55 444.54,-32.6 438.38,-30.06"/>
<polygon fill="#63b8ff" stroke="#63b8ff" points="579.29,-190.58 587.05,-197.8 585.49,-187.32 579.29,-190.58"/>
</a>
</g>
</g>
<!-- Node6&#45;&gt;Node6 -->
<g id="edge6_Node000006_Node000006" class="edge">
<title>Node6&#45;&gt;Node6</title>
<g id="a_edge6_Node000006_Node000006"><a xlink:title=" ">
<path fill="none" stroke="#63b8ff" d="M390.56,-202.6C384.68,-206.97 370.32,-210 347.5,-210 309.06,-210 294.65,-201.41 304.26,-192.28"/>
<polygon fill="#63b8ff" stroke="#63b8ff" points="394.06,-202.34 390.74,-192.28 387.07,-202.21 394.06,-202.34"/>
</a>
</g>
</g>
<!-- Node7 -->
<g id="Node000007" class="node">
<title>Node7</title>
<g id="a_Node000007"><a xlink:href="../../d6/d85/classcommonpython_1_1database_1_1db2__manager_1_1DB2Manager.html#ae2f69904d2bdd61d49cb9eebb3ad9223" target="_top" xlink:title=" ">
<polygon fill="white" stroke="#666666" points="182.5,-280.5 20.5,-280.5 20.5,-239.5 182.5,-239.5 182.5,-280.5"/>
<text text-anchor="start" x="28.5" y="-268.5" font-family="Helvetica,sans-Serif" font-size="10.00">commonpython.database.db2</text>
<text text-anchor="start" x="28.5" y="-257.5" font-family="Helvetica,sans-Serif" font-size="10.00">_manager.DB2Manager.get</text>
<text text-anchor="middle" x="101.5" y="-246.5" font-family="Helvetica,sans-Serif" font-size="10.00">_database_info</text>
</a>
</g>
</g>
<!-- Node6&#45;&gt;Node7 -->
<g id="edge7_Node000006_Node000007" class="edge">
<title>Node6&#45;&gt;Node7</title>
<g id="a_edge7_Node000006_Node000007"><a xlink:title=" ">
<path fill="none" stroke="#63b8ff" d="M299.53,-195.75C271.67,-206.6 235.54,-220.2 203,-231 194.38,-233.86 185.3,-236.71 176.26,-239.44"/>
<polygon fill="#63b8ff" stroke="#63b8ff" points="300.99,-198.93 309.02,-192.03 298.44,-192.42 300.99,-198.93"/>
</a>
</g>
</g>
<!-- Node8 -->
<g id="Node000008" class="node">
<title>Node8</title>
<g id="a_Node000008"><a xlink:href="../../d6/d85/classcommonpython_1_1database_1_1db2__manager_1_1DB2Manager.html#a2d25bd39c2fedacac875e4c70309890a" target="_top" xlink:title=" ">
<polygon fill="white" stroke="#666666" points="182.5,-221.5 20.5,-221.5 20.5,-180.5 182.5,-180.5 182.5,-221.5"/>
<text text-anchor="start" x="28.5" y="-209.5" font-family="Helvetica,sans-Serif" font-size="10.00">commonpython.database.db2</text>
<text text-anchor="start" x="28.5" y="-198.5" font-family="Helvetica,sans-Serif" font-size="10.00">_manager.DB2Manager.get</text>
<text text-anchor="middle" x="101.5" y="-187.5" font-family="Helvetica,sans-Serif" font-size="10.00">_table_info</text>
</a>
</g>
</g>
<!-- Node6&#45;&gt;Node8 -->
<g id="edge8_Node000006_Node000008" class="edge">
<title>Node6&#45;&gt;Node8</title>
<g id="a_edge8_Node000006_Node000008"><a xlink:title=" ">
<path fill="none" stroke="#63b8ff" d="M233.62,-188.1C216.37,-189.8 198.89,-191.52 182.54,-193.13"/>
<polygon fill="#63b8ff" stroke="#63b8ff" points="234.12,-191.57 243.73,-187.11 233.43,-184.6 234.12,-191.57"/>
</a>
</g>
</g>
<!-- Node9 -->
<g id="Node000009" class="node">
<title>Node9</title>
<g id="a_Node000009"><a xlink:href="../../d6/d85/classcommonpython_1_1database_1_1db2__manager_1_1DB2Manager.html#aad0b00e23d460a43a9ee47d9caecaaa6" target="_top" xlink:title=" ">
<polygon fill="white" stroke="#666666" points="182.5,-162.5 20.5,-162.5 20.5,-121.5 182.5,-121.5 182.5,-162.5"/>
<text text-anchor="start" x="28.5" y="-150.5" font-family="Helvetica,sans-Serif" font-size="10.00">commonpython.database.db2</text>
<text text-anchor="start" x="28.5" y="-139.5" font-family="Helvetica,sans-Serif" font-size="10.00">_manager.DB2Manager.test</text>
<text text-anchor="middle" x="101.5" y="-128.5" font-family="Helvetica,sans-Serif" font-size="10.00">_connection</text>
</a>
</g>
</g>
<!-- Node6&#45;&gt;Node9 -->
<g id="edge9_Node000006_Node000009" class="edge">
<title>Node6&#45;&gt;Node9</title>
<g id="a_edge9_Node000006_Node000009"><a xlink:title=" ">
<path fill="none" stroke="#63b8ff" d="M233.62,-160.81C216.37,-158.33 198.89,-155.83 182.54,-153.48"/>
<polygon fill="#63b8ff" stroke="#63b8ff" points="233.33,-164.3 243.73,-162.26 234.33,-157.37 233.33,-164.3"/>
</a>
</g>
</g>
<!-- Node10&#45;&gt;Node10 -->
<g id="edge12_Node000010_Node000010" class="edge">
<title>Node10&#45;&gt;Node10</title>
<g id="a_edge12_Node000010_Node000010"><a xlink:title=" ">
<path fill="none" stroke="#63b8ff" d="M390.56,-136.6C384.68,-140.97 370.32,-144 347.5,-144 309.06,-144 294.65,-135.41 304.26,-126.28"/>
<polygon fill="#63b8ff" stroke="#63b8ff" points="394.06,-136.34 390.74,-126.28 387.07,-136.21 394.06,-136.34"/>
</a>
</g>
</g>
<!-- Node11 -->
<g id="Node000011" class="node">
<title>Node11</title>
<g id="a_Node000011"><a xlink:href="../../d6/d85/classcommonpython_1_1database_1_1db2__manager_1_1DB2Manager.html#a7db48a3010e6fc0df8ead73c99d3b70a" target="_top" xlink:title=" ">
<polygon fill="white" stroke="#666666" points="203,-103 0,-103 0,-73 203,-73 203,-103"/>
<text text-anchor="start" x="8" y="-91" font-family="Helvetica,sans-Serif" font-size="10.00">commonpython.database.db2</text>
<text text-anchor="middle" x="101.5" y="-80" font-family="Helvetica,sans-Serif" font-size="10.00">_manager.DB2Manager.execute_batch</text>
</a>
</g>
</g>
<!-- Node10&#45;&gt;Node11 -->
<g id="edge11_Node000010_Node000011" class="edge">
<title>Node10&#45;&gt;Node11</title>
<g id="a_edge11_Node000010_Node000011"><a xlink:title=" ">
<path fill="none" stroke="#63b8ff" d="M232.49,-100.25C222.69,-99.33 212.82,-98.4 203.13,-97.49"/>
<polygon fill="#63b8ff" stroke="#63b8ff" points="232.38,-103.76 242.67,-101.21 233.04,-96.79 232.38,-103.76"/>
</a>
</g>
</g>
</g>
</svg>
